G04 #@! TF.GenerationSoftware,KiCad,Pcbnew,6.0.1-79c1e3a40b~116~ubuntu20.04.1*
G04 #@! TF.CreationDate,2022-01-21T15:25:52-05:00*
G04 #@! TF.ProjectId,stencil,7374656e-6369-46c2-9e6b-696361645f70,rev?*
G04 #@! TF.SameCoordinates,Original*
G04 #@! TF.FileFunction,Paste,Top*
G04 #@! TF.FilePolarity,Positive*
%FSLAX46Y46*%
G04 Gerber Fmt 4.6, Leading zero omitted, Abs format (unit mm)*
G04 Created by KiCad (PCBNEW 6.0.1-79c1e3a40b~116~ubuntu20.04.1) date 2022-01-21 15:25:52*
%MOMM*%
%LPD*%
G01*
G04 APERTURE LIST*
%ADD10C,1.050000*%
%ADD11C,0.500000*%
%ADD12C,1.000000*%
%ADD13R,1.500000X3.500000*%
G04 APERTURE END LIST*
D10*
X204175003Y-35300003D02*
G75*
G03*
X204175003Y-35300003I-525000J0D01*
G01*
D11*
X83400003Y-94550003D02*
G75*
G03*
X82900003Y-95050003I1J-500001D01*
G01*
D12*
X86650003Y-94050003D02*
G75*
G03*
X86650003Y-94050003I-500000J0D01*
G01*
D11*
X94300003Y-156050003D02*
G75*
G03*
X94800003Y-155550003I-1J500001D01*
G01*
X206900003Y-82650003D02*
G75*
G03*
X206400003Y-82150003I-500001J-1D01*
G01*
X205900003Y-156050003D02*
G75*
G03*
X206900003Y-155050003I1J999999D01*
G01*
X82900003Y-80650003D02*
G75*
G03*
X83400003Y-81150003I500001J1D01*
G01*
X82900003Y-93050003D02*
G75*
G03*
X83400003Y-93550003I500001J1D01*
G01*
X206400003Y-143150003D02*
G75*
G03*
X206900003Y-142650003I-1J500001D01*
G01*
X169200003Y-32550003D02*
G75*
G03*
X168700003Y-32050003I-500001J-1D01*
G01*
X82900003Y-68250003D02*
G75*
G03*
X83400003Y-68750003I500001J1D01*
G01*
X119600003Y-32550003D02*
G75*
G03*
X119100003Y-32050003I-500001J-1D01*
G01*
X94800003Y-32550003D02*
G75*
G03*
X94300003Y-32050003I-500001J-1D01*
G01*
X206900003Y-70250003D02*
X206900003Y-80650003D01*
X83400003Y-82150003D02*
G75*
G03*
X82900003Y-82650003I1J-500001D01*
G01*
X96300003Y-156050003D02*
X106700003Y-156050003D01*
X206900003Y-119850003D02*
X206900003Y-130250003D01*
X82900003Y-132250003D02*
X82900003Y-142650003D01*
X193500003Y-156050003D02*
G75*
G03*
X194000003Y-155550003I-1J500001D01*
G01*
X132000003Y-32550003D02*
G75*
G03*
X131500003Y-32050003I-500001J-1D01*
G01*
D10*
X86675003Y-35300003D02*
G75*
G03*
X86675003Y-35300003I-525000J0D01*
G01*
D11*
X206900003Y-95050003D02*
X206900003Y-105450003D01*
X82900003Y-117850003D02*
G75*
G03*
X83400003Y-118350003I500001J1D01*
G01*
D12*
X174775003Y-35300003D02*
G75*
G03*
X174775003Y-35300003I-500000J0D01*
G01*
D11*
X195000003Y-155550003D02*
G75*
G03*
X195500003Y-156050003I500001J1D01*
G01*
X195500003Y-32050003D02*
G75*
G03*
X195000003Y-32550003I1J-500001D01*
G01*
D12*
X116025003Y-35300003D02*
G75*
G03*
X116025003Y-35300003I-500000J0D01*
G01*
D11*
X108700003Y-32050003D02*
X119100003Y-32050003D01*
X83400003Y-131750003D02*
G75*
G03*
X82900003Y-132250003I1J-500001D01*
G01*
X183100003Y-156050003D02*
X193500003Y-156050003D01*
X206400003Y-93550003D02*
G75*
G03*
X206900003Y-93050003I-1J500001D01*
G01*
X95800003Y-155550003D02*
G75*
G03*
X96300003Y-156050003I500001J1D01*
G01*
X145900003Y-32050003D02*
X156300003Y-32050003D01*
X206900003Y-119850003D02*
G75*
G03*
X206400003Y-119350003I-500001J-1D01*
G01*
X181100003Y-156050003D02*
G75*
G03*
X181600003Y-155550003I-1J500001D01*
G01*
X119100003Y-156050003D02*
G75*
G03*
X119600003Y-155550003I-1J500001D01*
G01*
X170700003Y-32050003D02*
X181100003Y-32050003D01*
X206900003Y-57850003D02*
X206900003Y-68250003D01*
D12*
X204150003Y-94050003D02*
G75*
G03*
X204150003Y-94050003I-500000J0D01*
G01*
D11*
X206400003Y-105950003D02*
G75*
G03*
X206900003Y-105450003I-1J500001D01*
G01*
X170700003Y-156050003D02*
X181100003Y-156050003D01*
X82900003Y-33050003D02*
X82900003Y-43450003D01*
X206900003Y-33050003D02*
X206900003Y-43450003D01*
D12*
X86650003Y-64675003D02*
G75*
G03*
X86650003Y-64675003I-500000J0D01*
G01*
D11*
X158300003Y-156050003D02*
X168700003Y-156050003D01*
X143900003Y-156050003D02*
G75*
G03*
X144400003Y-155550003I-1J500001D01*
G01*
X206900003Y-45450003D02*
X206900003Y-55850003D01*
X144400003Y-32550003D02*
G75*
G03*
X143900003Y-32050003I-500001J-1D01*
G01*
X206900003Y-144650003D02*
G75*
G03*
X206400003Y-144150003I-500001J-1D01*
G01*
D12*
X145400003Y-152800003D02*
G75*
G03*
X145400003Y-152800003I-500000J0D01*
G01*
D11*
X183100003Y-32050003D02*
G75*
G03*
X182600003Y-32550003I1J-500001D01*
G01*
X206400003Y-118350003D02*
G75*
G03*
X206900003Y-117850003I-1J500001D01*
G01*
X106700003Y-156050003D02*
G75*
G03*
X107200003Y-155550003I-1J500001D01*
G01*
X206400003Y-56350003D02*
G75*
G03*
X206900003Y-55850003I-1J500001D01*
G01*
X145900003Y-156050003D02*
X156300003Y-156050003D01*
X206900003Y-107450003D02*
G75*
G03*
X206400003Y-106950003I-500001J-1D01*
G01*
X206900003Y-45450003D02*
G75*
G03*
X206400003Y-44950003I-500001J-1D01*
G01*
X120600003Y-155550003D02*
G75*
G03*
X121100003Y-156050003I500001J1D01*
G01*
X83400003Y-69750003D02*
G75*
G03*
X82900003Y-70250003I1J-500001D01*
G01*
X83400003Y-57350003D02*
G75*
G03*
X82900003Y-57850003I1J-500001D01*
G01*
X158300003Y-32050003D02*
G75*
G03*
X157800003Y-32550003I1J-500001D01*
G01*
X158300003Y-32050003D02*
X168700003Y-32050003D01*
X194000003Y-32550003D02*
G75*
G03*
X193500003Y-32050003I-500001J-1D01*
G01*
X170700003Y-32050003D02*
G75*
G03*
X170200003Y-32550003I1J-500001D01*
G01*
X121100003Y-156050003D02*
X131500003Y-156050003D01*
X82900003Y-130250003D02*
G75*
G03*
X83400003Y-130750003I500001J1D01*
G01*
D12*
X174775003Y-152800003D02*
G75*
G03*
X174775003Y-152800003I-500000J0D01*
G01*
D11*
X82900003Y-119850003D02*
X82900003Y-130250003D01*
D12*
X204150003Y-64675003D02*
G75*
G03*
X204150003Y-64675003I-500000J0D01*
G01*
D11*
X82900003Y-144650003D02*
X82900003Y-155050003D01*
X82900003Y-70250003D02*
X82900003Y-80650003D01*
X83900003Y-32050003D02*
X94300003Y-32050003D01*
X96300003Y-32050003D02*
X106700003Y-32050003D01*
D12*
X145400003Y-35300003D02*
G75*
G03*
X145400003Y-35300003I-500000J0D01*
G01*
D11*
X195500003Y-156050003D02*
X205900003Y-156050003D01*
X83400003Y-119350003D02*
G75*
G03*
X82900003Y-119850003I1J-500001D01*
G01*
X206900003Y-132250003D02*
G75*
G03*
X206400003Y-131750003I-500001J-1D01*
G01*
X82900003Y-82650003D02*
X82900003Y-93050003D01*
X206900003Y-95050003D02*
G75*
G03*
X206400003Y-94550003I-500001J-1D01*
G01*
X121100003Y-32050003D02*
G75*
G03*
X120600003Y-32550003I1J-500001D01*
G01*
X206900003Y-132250003D02*
X206900003Y-142650003D01*
X131500003Y-156050003D02*
G75*
G03*
X132000003Y-155550003I-1J500001D01*
G01*
D10*
X86675003Y-152800003D02*
G75*
G03*
X86675003Y-152800003I-525000J0D01*
G01*
D11*
X83400003Y-106950003D02*
G75*
G03*
X82900003Y-107450003I1J-500001D01*
G01*
X121100003Y-32050003D02*
X131500003Y-32050003D01*
X108700003Y-32050003D02*
G75*
G03*
X108200003Y-32550003I1J-500001D01*
G01*
X82900003Y-105450003D02*
G75*
G03*
X83400003Y-105950003I500001J1D01*
G01*
X206400003Y-43950003D02*
G75*
G03*
X206900003Y-43450003I-1J500001D01*
G01*
X82900003Y-45450003D02*
X82900003Y-55850003D01*
X108700003Y-156050003D02*
X119100003Y-156050003D01*
X108200003Y-155550003D02*
G75*
G03*
X108700003Y-156050003I500001J1D01*
G01*
X82900003Y-107450003D02*
X82900003Y-117850003D01*
X82900003Y-43450003D02*
G75*
G03*
X83400003Y-43950003I500001J1D01*
G01*
X133000003Y-155550003D02*
G75*
G03*
X133500003Y-156050003I500001J1D01*
G01*
X82900003Y-57850003D02*
X82900003Y-68250003D01*
X82900003Y-155050003D02*
G75*
G03*
X83900003Y-156050003I999999J-1D01*
G01*
D12*
X116025003Y-152800003D02*
G75*
G03*
X116025003Y-152800003I-500000J0D01*
G01*
D11*
X96300003Y-32050003D02*
G75*
G03*
X95800003Y-32550003I1J-500001D01*
G01*
X145900003Y-32050003D02*
G75*
G03*
X145400003Y-32550003I1J-500001D01*
G01*
X82900003Y-142650003D02*
G75*
G03*
X83400003Y-143150003I500001J1D01*
G01*
X206900003Y-144650003D02*
X206900003Y-155050003D01*
X168700003Y-156050003D02*
G75*
G03*
X169200003Y-155550003I-1J500001D01*
G01*
X206400003Y-130750003D02*
G75*
G03*
X206900003Y-130250003I-1J500001D01*
G01*
X83400003Y-44950003D02*
G75*
G03*
X82900003Y-45450003I1J-500001D01*
G01*
X133500003Y-32050003D02*
X143900003Y-32050003D01*
X206400003Y-81150003D02*
G75*
G03*
X206900003Y-80650003I-1J500001D01*
G01*
D12*
X86650003Y-123425003D02*
G75*
G03*
X86650003Y-123425003I-500000J0D01*
G01*
D11*
X182600003Y-155550003D02*
G75*
G03*
X183100003Y-156050003I500001J1D01*
G01*
X206900003Y-70250003D02*
G75*
G03*
X206400003Y-69750003I-500001J-1D01*
G01*
X83900003Y-32050003D02*
G75*
G03*
X82900003Y-33050003I-1J-999999D01*
G01*
X206900003Y-33050003D02*
G75*
G03*
X205900003Y-32050003I-999999J1D01*
G01*
X83400003Y-144150003D02*
G75*
G03*
X82900003Y-144650003I1J-500001D01*
G01*
X82900003Y-95050003D02*
X82900003Y-105450003D01*
X195500003Y-32050003D02*
X205900003Y-32050003D01*
X133500003Y-156050003D02*
X143900003Y-156050003D01*
X83900003Y-156050003D02*
X94300003Y-156050003D01*
X156300003Y-156050003D02*
G75*
G03*
X156800003Y-155550003I-1J500001D01*
G01*
X181600003Y-32550003D02*
G75*
G03*
X181100003Y-32050003I-500001J-1D01*
G01*
X145400003Y-155550003D02*
G75*
G03*
X145900003Y-156050003I500001J1D01*
G01*
X206900003Y-107450003D02*
X206900003Y-117850003D01*
X133500003Y-32050003D02*
G75*
G03*
X133000003Y-32550003I1J-500001D01*
G01*
X183100003Y-32050003D02*
X193500003Y-32050003D01*
D10*
X204175003Y-152800003D02*
G75*
G03*
X204175003Y-152800003I-525000J0D01*
G01*
D11*
X170200003Y-155550003D02*
G75*
G03*
X170700003Y-156050003I500001J1D01*
G01*
X82900003Y-55850003D02*
G75*
G03*
X83400003Y-56350003I500001J1D01*
G01*
X156800003Y-32550003D02*
G75*
G03*
X156300003Y-32050003I-500001J-1D01*
G01*
D12*
X204150003Y-123425003D02*
G75*
G03*
X204150003Y-123425003I-500000J0D01*
G01*
D11*
X107200003Y-32550003D02*
G75*
G03*
X106700003Y-32050003I-500001J-1D01*
G01*
X157800003Y-155550003D02*
G75*
G03*
X158300003Y-156050003I500001J1D01*
G01*
X206900003Y-57850003D02*
G75*
G03*
X206400003Y-57350003I-500001J-1D01*
G01*
X206400003Y-68750003D02*
G75*
G03*
X206900003Y-68250003I-1J500001D01*
G01*
X206900003Y-82650003D02*
X206900003Y-93050003D01*
D13*
G04 #@! TO.C,U2*
X134900000Y-97700000D03*
X141900000Y-97700000D03*
X136700000Y-90200000D03*
G04 #@! TD*
G04 #@! TO.C,U1*
X155600000Y-90200000D03*
X148600000Y-90200000D03*
X153800000Y-97700000D03*
G04 #@! TD*
M02*
