G04 #@! TF.GenerationSoftware,KiCad,Pcbnew,(6.0.2)*
G04 #@! TF.CreationDate,2022-09-05T01:34:10-04:00*
G04 #@! TF.ProjectId,midi-trs-a-b-conveter,6d696469-2d74-4727-932d-612d622d636f,rev?*
G04 #@! TF.SameCoordinates,PX7c5bf00PY5fb3830*
G04 #@! TF.FileFunction,Legend,Top*
G04 #@! TF.FilePolarity,Positive*
%FSLAX46Y46*%
G04 Gerber Fmt 4.6, Leading zero omitted, Abs format (unit mm)*
G04 Created by KiCad (PCBNEW (6.0.2)) date 2022-09-05 01:34:10*
%MOMM*%
%LPD*%
G01*
G04 APERTURE LIST*
%ADD10C,0.152000*%
%ADD11C,0.150000*%
%ADD12C,0.254000*%
%ADD13C,1.300000*%
%ADD14R,1.500000X3.000000*%
%ADD15C,1.800000*%
G04 APERTURE END LIST*
D10*
G04 #@! TO.C,U1*
X30226071Y6920943D02*
X31151357Y6920943D01*
X31260214Y6975372D01*
X31314642Y7029800D01*
X31369071Y7138658D01*
X31369071Y7356372D01*
X31314642Y7465229D01*
X31260214Y7519658D01*
X31151357Y7574086D01*
X30226071Y7574086D01*
X31369071Y8717086D02*
X31369071Y8063943D01*
X31369071Y8390515D02*
X30226071Y8390515D01*
X30389357Y8281658D01*
X30498214Y8172800D01*
X30552642Y8063943D01*
G04 #@! TO.C,U2*
X-2477929Y6800943D02*
X-1552643Y6800943D01*
X-1443786Y6855372D01*
X-1389358Y6909800D01*
X-1334929Y7018658D01*
X-1334929Y7236372D01*
X-1389358Y7345229D01*
X-1443786Y7399658D01*
X-1552643Y7454086D01*
X-2477929Y7454086D01*
X-2369072Y7943943D02*
X-2423500Y7998372D01*
X-2477929Y8107229D01*
X-2477929Y8379372D01*
X-2423500Y8488229D01*
X-2369072Y8542658D01*
X-2260215Y8597086D01*
X-2151358Y8597086D01*
X-1988072Y8542658D01*
X-1334929Y7889515D01*
X-1334929Y8597086D01*
D11*
G04 #@! TO.C,*
G04 #@! TO.C,REF\u002A\u002A*
X766666Y17597620D02*
X433333Y18073810D01*
X195238Y17597620D02*
X195238Y18597620D01*
X576190Y18597620D01*
X671428Y18550000D01*
X719047Y18502381D01*
X766666Y18407143D01*
X766666Y18264286D01*
X719047Y18169048D01*
X671428Y18121429D01*
X576190Y18073810D01*
X195238Y18073810D01*
X1195238Y18121429D02*
X1528571Y18121429D01*
X1671428Y17597620D02*
X1195238Y17597620D01*
X1195238Y18597620D01*
X1671428Y18597620D01*
X2433333Y18121429D02*
X2100000Y18121429D01*
X2100000Y17597620D02*
X2100000Y18597620D01*
X2576190Y18597620D01*
X3100000Y18597620D02*
X3100000Y18359524D01*
X2861904Y18454762D02*
X3100000Y18359524D01*
X3338095Y18454762D01*
X2957142Y18169048D02*
X3100000Y18359524D01*
X3242857Y18169048D01*
X3861904Y18597620D02*
X3861904Y18359524D01*
X3623809Y18454762D02*
X3861904Y18359524D01*
X4100000Y18454762D01*
X3719047Y18169048D02*
X3861904Y18359524D01*
X4004761Y18169048D01*
D12*
G04 #@! TO.C,U1*
X27550000Y4050000D02*
X30550000Y4050000D01*
X17349000Y3550000D02*
X16549000Y3550000D01*
X22469000Y3550000D02*
X18551000Y3550000D01*
X18551000Y3550000D02*
X18551000Y4249000D01*
X16550000Y3550000D02*
X16550000Y9550000D01*
X24469000Y9550000D02*
X19431000Y9550000D01*
X27550000Y9050000D02*
X30550000Y9050000D01*
X27550000Y9550000D02*
X26431000Y9550000D01*
X17469000Y9550000D02*
X16550000Y9550000D01*
X27550000Y3550000D02*
X24431000Y3550000D01*
X27550000Y9550000D02*
X27550000Y3550000D01*
X18551000Y4249000D02*
X17349000Y4249000D01*
X30550000Y9050000D02*
X30550000Y4050000D01*
X17349000Y4249000D02*
X17349000Y3550000D01*
G04 #@! TO.C,U2*
X1450000Y8930000D02*
X-1550000Y8930000D01*
X11651000Y9430000D02*
X12451000Y9430000D01*
X6531000Y9430000D02*
X10449000Y9430000D01*
X10449000Y9430000D02*
X10449000Y8731000D01*
X12450000Y9430000D02*
X12450000Y3430000D01*
X4531000Y3430000D02*
X9569000Y3430000D01*
X1450000Y3930000D02*
X-1550000Y3930000D01*
X1450000Y3430000D02*
X2569000Y3430000D01*
X11531000Y3430000D02*
X12450000Y3430000D01*
X1450000Y9430000D02*
X4569000Y9430000D01*
X1450000Y3430000D02*
X1450000Y9430000D01*
X10449000Y8731000D02*
X11651000Y8731000D01*
X-1550000Y3930000D02*
X-1550000Y8930000D01*
X11651000Y8731000D02*
X11651000Y9430000D01*
G04 #@! TD*
%LPC*%
D13*
G04 #@! TO.C,U1*
X25550000Y6550000D03*
X19550000Y6550000D03*
D14*
X25450000Y10550000D03*
X18450000Y10550000D03*
X23450000Y2550000D03*
G04 #@! TD*
D13*
G04 #@! TO.C,U2*
X3450000Y6430000D03*
X9450000Y6430000D03*
D14*
X3550000Y2430000D03*
X10550000Y2430000D03*
X5550000Y10430000D03*
G04 #@! TD*
D15*
G04 #@! TO.C,*
X6950000Y1900000D03*
G04 #@! TD*
G04 #@! TO.C,*
X26450000Y1900000D03*
G04 #@! TD*
G04 #@! TO.C,REF\u002A\u002A*
X2550000Y11000000D03*
G04 #@! TD*
M02*
