G04 #@! TF.GenerationSoftware,KiCad,Pcbnew,(6.0.2)*
G04 #@! TF.CreationDate,2022-09-05T01:34:10-04:00*
G04 #@! TF.ProjectId,midi-trs-a-b-conveter,6d696469-2d74-4727-932d-612d622d636f,rev?*
G04 #@! TF.SameCoordinates,PX7c5bf00PY5fb3830*
G04 #@! TF.FileFunction,Copper,L1,Top*
G04 #@! TF.FilePolarity,Positive*
%FSLAX46Y46*%
G04 Gerber Fmt 4.6, Leading zero omitted, Abs format (unit mm)*
G04 Created by KiCad (PCBNEW (6.0.2)) date 2022-09-05 01:34:10*
%MOMM*%
%LPD*%
G01*
G04 APERTURE LIST*
G04 #@! TA.AperFunction,SMDPad,CuDef*
%ADD10R,1.500000X3.000000*%
G04 #@! TD*
G04 #@! TA.AperFunction,ComponentPad*
%ADD11C,1.300000*%
G04 #@! TD*
G04 #@! TA.AperFunction,Conductor*
%ADD12C,0.500000*%
G04 #@! TD*
G04 APERTURE END LIST*
D10*
G04 #@! TO.P,U1,1*
G04 #@! TO.N,GND*
X25450000Y10550000D03*
G04 #@! TO.P,U1,2*
G04 #@! TO.N,Net-(U1-Pad2)*
X18450000Y10550000D03*
G04 #@! TO.P,U1,3*
G04 #@! TO.N,Net-(U1-Pad3)*
X23450000Y2550000D03*
G04 #@! TD*
G04 #@! TO.P,U2,1*
G04 #@! TO.N,GND*
X3550000Y2430000D03*
G04 #@! TO.P,U2,2*
G04 #@! TO.N,Net-(U1-Pad3)*
X10550000Y2430000D03*
G04 #@! TO.P,U2,3*
G04 #@! TO.N,Net-(U1-Pad2)*
X5550000Y10430000D03*
G04 #@! TD*
D11*
G04 #@! TO.P,,1*
G04 #@! TO.N,N/C*
X6950000Y1900000D03*
G04 #@! TD*
G04 #@! TO.P,,1*
G04 #@! TO.N,N/C*
X26450000Y1900000D03*
G04 #@! TD*
G04 #@! TO.P,REF\u002A\u002A,1*
G04 #@! TO.N,N/C*
X2550000Y11000000D03*
G04 #@! TD*
D12*
G04 #@! TO.N,Net-(U1-Pad3)*
X10770000Y2650000D02*
X10550000Y2430000D01*
X23400000Y2650000D02*
X10770000Y2650000D01*
G04 #@! TO.N,Net-(U1-Pad2)*
X6300000Y10150000D02*
X18200000Y10150000D01*
G04 #@! TD*
G04 #@! TA.AperFunction,Conductor*
G04 #@! TO.N,GND*
G36*
X2063683Y11971998D02*
G01*
X2110176Y11918342D01*
X2120280Y11848068D01*
X2090786Y11783488D01*
X2069625Y11764066D01*
X1944129Y11672888D01*
X1939716Y11667986D01*
X1939714Y11667985D01*
X1914527Y11640012D01*
X1817467Y11532216D01*
X1722821Y11368284D01*
X1664326Y11188256D01*
X1663636Y11181695D01*
X1663636Y11181693D01*
X1661401Y11160423D01*
X1644540Y11000000D01*
X1645230Y10993435D01*
X1652055Y10928502D01*
X1664326Y10811744D01*
X1722821Y10631716D01*
X1817467Y10467784D01*
X1944129Y10327112D01*
X1949468Y10323233D01*
X1993111Y10291525D01*
X2097270Y10215849D01*
X2270197Y10138856D01*
X2368212Y10118022D01*
X2448897Y10100872D01*
X2448901Y10100872D01*
X2455354Y10099500D01*
X2644646Y10099500D01*
X2651099Y10100872D01*
X2651103Y10100872D01*
X2731788Y10118022D01*
X2829803Y10138856D01*
X3002730Y10215849D01*
X3106890Y10291525D01*
X3150532Y10323233D01*
X3155871Y10327112D01*
X3282533Y10467784D01*
X3377179Y10631716D01*
X3435674Y10811744D01*
X3447946Y10928502D01*
X3454770Y10993435D01*
X3455460Y11000000D01*
X3438599Y11160423D01*
X3436364Y11181693D01*
X3436364Y11181695D01*
X3435674Y11188256D01*
X3377179Y11368284D01*
X3282533Y11532216D01*
X3185473Y11640012D01*
X3160286Y11667985D01*
X3160284Y11667986D01*
X3155871Y11672888D01*
X3030376Y11764065D01*
X2987023Y11820286D01*
X2980948Y11891022D01*
X3014079Y11953814D01*
X3075899Y11988725D01*
X3104438Y11992000D01*
X4165500Y11992000D01*
X4233621Y11971998D01*
X4280114Y11918342D01*
X4291500Y11866000D01*
X4291500Y8881866D01*
X4298255Y8819684D01*
X4349385Y8683295D01*
X4436739Y8566739D01*
X4553295Y8479385D01*
X4689684Y8428255D01*
X4751866Y8421500D01*
X6348134Y8421500D01*
X6410316Y8428255D01*
X6546705Y8479385D01*
X6663261Y8566739D01*
X6750615Y8683295D01*
X6801745Y8819684D01*
X6808500Y8881866D01*
X6808500Y9265500D01*
X6828502Y9333621D01*
X6882158Y9380114D01*
X6934500Y9391500D01*
X17065500Y9391500D01*
X17133621Y9371498D01*
X17180114Y9317842D01*
X17191500Y9265500D01*
X17191500Y9001866D01*
X17198255Y8939684D01*
X17249385Y8803295D01*
X17336739Y8686739D01*
X17453295Y8599385D01*
X17589684Y8548255D01*
X17651866Y8541500D01*
X19248134Y8541500D01*
X19310316Y8548255D01*
X19446705Y8599385D01*
X19563261Y8686739D01*
X19650615Y8803295D01*
X19701745Y8939684D01*
X19708500Y9001866D01*
X19708500Y9005331D01*
X24192001Y9005331D01*
X24192371Y8998510D01*
X24197895Y8947648D01*
X24201521Y8932396D01*
X24246676Y8811946D01*
X24255214Y8796351D01*
X24331715Y8694276D01*
X24344276Y8681715D01*
X24446351Y8605214D01*
X24461946Y8596676D01*
X24582394Y8551522D01*
X24597649Y8547895D01*
X24648514Y8542369D01*
X24655328Y8542000D01*
X25177885Y8542000D01*
X25193124Y8546475D01*
X25194329Y8547865D01*
X25196000Y8555548D01*
X25196000Y8560116D01*
X25704000Y8560116D01*
X25708475Y8544877D01*
X25709865Y8543672D01*
X25717548Y8542001D01*
X26244669Y8542001D01*
X26251490Y8542371D01*
X26302352Y8547895D01*
X26317604Y8551521D01*
X26438054Y8596676D01*
X26453649Y8605214D01*
X26555724Y8681715D01*
X26568285Y8694276D01*
X26644786Y8796351D01*
X26653324Y8811946D01*
X26698478Y8932394D01*
X26702105Y8947649D01*
X26707631Y8998514D01*
X26708000Y9005328D01*
X26708000Y10277885D01*
X26703525Y10293124D01*
X26702135Y10294329D01*
X26694452Y10296000D01*
X25722115Y10296000D01*
X25706876Y10291525D01*
X25705671Y10290135D01*
X25704000Y10282452D01*
X25704000Y8560116D01*
X25196000Y8560116D01*
X25196000Y10277885D01*
X25191525Y10293124D01*
X25190135Y10294329D01*
X25182452Y10296000D01*
X24210116Y10296000D01*
X24194877Y10291525D01*
X24193672Y10290135D01*
X24192001Y10282452D01*
X24192001Y9005331D01*
X19708500Y9005331D01*
X19708500Y11866000D01*
X19728502Y11934121D01*
X19782158Y11980614D01*
X19834500Y11992000D01*
X24066000Y11992000D01*
X24134121Y11971998D01*
X24180614Y11918342D01*
X24192000Y11866000D01*
X24192000Y10822115D01*
X24196475Y10806876D01*
X24197865Y10805671D01*
X24205548Y10804000D01*
X26689884Y10804000D01*
X26705123Y10808475D01*
X26706328Y10809865D01*
X26707999Y10817548D01*
X26707999Y11866000D01*
X26728001Y11934121D01*
X26781657Y11980614D01*
X26833999Y11992000D01*
X27400672Y11992000D01*
X27420057Y11990500D01*
X27434858Y11988195D01*
X27434861Y11988195D01*
X27443730Y11986814D01*
X27454728Y11988252D01*
X27483411Y11988709D01*
X27592161Y11977998D01*
X27616383Y11973181D01*
X27741212Y11935315D01*
X27764030Y11925863D01*
X27879073Y11864371D01*
X27899605Y11850652D01*
X27980636Y11784151D01*
X28000436Y11767902D01*
X28017901Y11750437D01*
X28085568Y11667985D01*
X28100650Y11649607D01*
X28114371Y11629073D01*
X28166143Y11532216D01*
X28175862Y11514033D01*
X28185315Y11491212D01*
X28223181Y11366383D01*
X28227999Y11342158D01*
X28238044Y11240166D01*
X28237592Y11224123D01*
X28238305Y11224114D01*
X28238196Y11215145D01*
X28236814Y11206270D01*
X28238349Y11194534D01*
X28240936Y11174749D01*
X28242000Y11158411D01*
X28242000Y1449328D01*
X28240500Y1429944D01*
X28236814Y1406270D01*
X28238252Y1395272D01*
X28238709Y1366588D01*
X28227999Y1257842D01*
X28223181Y1233617D01*
X28185315Y1108788D01*
X28175863Y1085970D01*
X28130909Y1001866D01*
X28114373Y970930D01*
X28100652Y950395D01*
X28017902Y849564D01*
X28000437Y832099D01*
X27954634Y794509D01*
X27899607Y749350D01*
X27879073Y735629D01*
X27764030Y674137D01*
X27741212Y664685D01*
X27616383Y626819D01*
X27592161Y622002D01*
X27490164Y611956D01*
X27474123Y612408D01*
X27474114Y611695D01*
X27465145Y611804D01*
X27456270Y613186D01*
X27424749Y609064D01*
X27408411Y608000D01*
X24754874Y608000D01*
X24686753Y628002D01*
X24640260Y681658D01*
X24630156Y751932D01*
X24644354Y794509D01*
X24645232Y796112D01*
X24650615Y803295D01*
X24664365Y839971D01*
X24684024Y892414D01*
X24701745Y939684D01*
X24708500Y1001866D01*
X24708500Y1900000D01*
X25544540Y1900000D01*
X25545230Y1893435D01*
X25551517Y1833621D01*
X25564326Y1711744D01*
X25622821Y1531716D01*
X25626124Y1525994D01*
X25626125Y1525993D01*
X25707232Y1385512D01*
X25717467Y1367784D01*
X25721885Y1362877D01*
X25721886Y1362876D01*
X25816460Y1257842D01*
X25844129Y1227112D01*
X25849468Y1223233D01*
X25931680Y1163503D01*
X25997270Y1115849D01*
X26170197Y1038856D01*
X26268212Y1018022D01*
X26348897Y1000872D01*
X26348901Y1000872D01*
X26355354Y999500D01*
X26544646Y999500D01*
X26551099Y1000872D01*
X26551103Y1000872D01*
X26631788Y1018022D01*
X26729803Y1038856D01*
X26902730Y1115849D01*
X26968321Y1163503D01*
X27050532Y1223233D01*
X27055871Y1227112D01*
X27083541Y1257842D01*
X27178114Y1362876D01*
X27178115Y1362877D01*
X27182533Y1367784D01*
X27192768Y1385512D01*
X27273875Y1525993D01*
X27273876Y1525994D01*
X27277179Y1531716D01*
X27335674Y1711744D01*
X27348484Y1833621D01*
X27354770Y1893435D01*
X27355460Y1900000D01*
X27335674Y2088256D01*
X27277179Y2268284D01*
X27182533Y2432216D01*
X27055871Y2572888D01*
X26902730Y2684151D01*
X26729803Y2761144D01*
X26631788Y2781978D01*
X26551103Y2799128D01*
X26551099Y2799128D01*
X26544646Y2800500D01*
X26355354Y2800500D01*
X26348901Y2799128D01*
X26348897Y2799128D01*
X26268212Y2781978D01*
X26170197Y2761144D01*
X25997270Y2684151D01*
X25844129Y2572888D01*
X25717467Y2432216D01*
X25622821Y2268284D01*
X25564326Y2088256D01*
X25544540Y1900000D01*
X24708500Y1900000D01*
X24708500Y4098134D01*
X24701745Y4160316D01*
X24650615Y4296705D01*
X24563261Y4413261D01*
X24446705Y4500615D01*
X24310316Y4551745D01*
X24248134Y4558500D01*
X22651866Y4558500D01*
X22589684Y4551745D01*
X22453295Y4500615D01*
X22336739Y4413261D01*
X22249385Y4296705D01*
X22198255Y4160316D01*
X22191500Y4098134D01*
X22191500Y3534500D01*
X22171498Y3466379D01*
X22117842Y3419886D01*
X22065500Y3408500D01*
X11934500Y3408500D01*
X11866379Y3428502D01*
X11819886Y3482158D01*
X11808500Y3534500D01*
X11808500Y3978134D01*
X11801745Y4040316D01*
X11750615Y4176705D01*
X11663261Y4293261D01*
X11546705Y4380615D01*
X11410316Y4431745D01*
X11348134Y4438500D01*
X9751866Y4438500D01*
X9689684Y4431745D01*
X9553295Y4380615D01*
X9436739Y4293261D01*
X9349385Y4176705D01*
X9298255Y4040316D01*
X9291500Y3978134D01*
X9291500Y881866D01*
X9298255Y819684D01*
X9301028Y812286D01*
X9301030Y812279D01*
X9313795Y778228D01*
X9318978Y707421D01*
X9285056Y645053D01*
X9222801Y610924D01*
X9195813Y608000D01*
X4903653Y608000D01*
X4835532Y628002D01*
X4789039Y681658D01*
X4778935Y751932D01*
X4785671Y778229D01*
X4798478Y812391D01*
X4802105Y827649D01*
X4807631Y878514D01*
X4808000Y885328D01*
X4808000Y1900000D01*
X6044540Y1900000D01*
X6045230Y1893435D01*
X6051517Y1833621D01*
X6064326Y1711744D01*
X6122821Y1531716D01*
X6126124Y1525994D01*
X6126125Y1525993D01*
X6207232Y1385512D01*
X6217467Y1367784D01*
X6221885Y1362877D01*
X6221886Y1362876D01*
X6316460Y1257842D01*
X6344129Y1227112D01*
X6349468Y1223233D01*
X6431680Y1163503D01*
X6497270Y1115849D01*
X6670197Y1038856D01*
X6768212Y1018022D01*
X6848897Y1000872D01*
X6848901Y1000872D01*
X6855354Y999500D01*
X7044646Y999500D01*
X7051099Y1000872D01*
X7051103Y1000872D01*
X7131788Y1018022D01*
X7229803Y1038856D01*
X7402730Y1115849D01*
X7468321Y1163503D01*
X7550532Y1223233D01*
X7555871Y1227112D01*
X7583541Y1257842D01*
X7678114Y1362876D01*
X7678115Y1362877D01*
X7682533Y1367784D01*
X7692768Y1385512D01*
X7773875Y1525993D01*
X7773876Y1525994D01*
X7777179Y1531716D01*
X7835674Y1711744D01*
X7848484Y1833621D01*
X7854770Y1893435D01*
X7855460Y1900000D01*
X7835674Y2088256D01*
X7777179Y2268284D01*
X7682533Y2432216D01*
X7555871Y2572888D01*
X7402730Y2684151D01*
X7229803Y2761144D01*
X7131788Y2781978D01*
X7051103Y2799128D01*
X7051099Y2799128D01*
X7044646Y2800500D01*
X6855354Y2800500D01*
X6848901Y2799128D01*
X6848897Y2799128D01*
X6768212Y2781978D01*
X6670197Y2761144D01*
X6497270Y2684151D01*
X6344129Y2572888D01*
X6217467Y2432216D01*
X6122821Y2268284D01*
X6064326Y2088256D01*
X6044540Y1900000D01*
X4808000Y1900000D01*
X4808000Y2157885D01*
X4803525Y2173124D01*
X4802135Y2174329D01*
X4794452Y2176000D01*
X2310116Y2176000D01*
X2294877Y2171525D01*
X2293672Y2170135D01*
X2292001Y2162452D01*
X2292001Y885331D01*
X2292371Y878510D01*
X2297895Y827648D01*
X2301522Y812393D01*
X2314329Y778229D01*
X2319512Y707422D01*
X2285591Y645053D01*
X2223335Y610924D01*
X2196347Y608000D01*
X1599328Y608000D01*
X1579943Y609500D01*
X1565142Y611805D01*
X1565139Y611805D01*
X1556270Y613186D01*
X1545272Y611748D01*
X1516589Y611291D01*
X1407839Y622002D01*
X1383617Y626819D01*
X1258788Y664685D01*
X1235970Y674137D01*
X1120927Y735629D01*
X1100393Y749350D01*
X1045367Y794509D01*
X999563Y832099D01*
X982098Y849564D01*
X899348Y950395D01*
X885627Y970930D01*
X869092Y1001866D01*
X824137Y1085970D01*
X814685Y1108788D01*
X776819Y1233617D01*
X772001Y1257842D01*
X761956Y1359834D01*
X762408Y1375877D01*
X761695Y1375886D01*
X761804Y1384855D01*
X763186Y1393730D01*
X759064Y1425252D01*
X758000Y1441589D01*
X758000Y2702115D01*
X2292000Y2702115D01*
X2296475Y2686876D01*
X2297865Y2685671D01*
X2305548Y2684000D01*
X3277885Y2684000D01*
X3293124Y2688475D01*
X3294329Y2689865D01*
X3296000Y2697548D01*
X3296000Y2702115D01*
X3804000Y2702115D01*
X3808475Y2686876D01*
X3809865Y2685671D01*
X3817548Y2684000D01*
X4789884Y2684000D01*
X4805123Y2688475D01*
X4806328Y2689865D01*
X4807999Y2697548D01*
X4807999Y3974669D01*
X4807629Y3981490D01*
X4802105Y4032352D01*
X4798479Y4047604D01*
X4753324Y4168054D01*
X4744786Y4183649D01*
X4668285Y4285724D01*
X4655724Y4298285D01*
X4553649Y4374786D01*
X4538054Y4383324D01*
X4417606Y4428478D01*
X4402351Y4432105D01*
X4351486Y4437631D01*
X4344672Y4438000D01*
X3822115Y4438000D01*
X3806876Y4433525D01*
X3805671Y4432135D01*
X3804000Y4424452D01*
X3804000Y2702115D01*
X3296000Y2702115D01*
X3296000Y4419884D01*
X3291525Y4435123D01*
X3290135Y4436328D01*
X3282452Y4437999D01*
X2755331Y4437999D01*
X2748510Y4437629D01*
X2697648Y4432105D01*
X2682396Y4428479D01*
X2561946Y4383324D01*
X2546351Y4374786D01*
X2444276Y4298285D01*
X2431715Y4285724D01*
X2355214Y4183649D01*
X2346676Y4168054D01*
X2301522Y4047606D01*
X2297895Y4032351D01*
X2292369Y3981486D01*
X2292000Y3974672D01*
X2292000Y2702115D01*
X758000Y2702115D01*
X758000Y6338716D01*
X2290124Y6338716D01*
X2291103Y6333019D01*
X2291103Y6333018D01*
X2310599Y6219559D01*
X2326181Y6128874D01*
X2399875Y5929116D01*
X2508739Y5746134D01*
X2649125Y5586054D01*
X2816333Y5454238D01*
X2821444Y5451549D01*
X2821447Y5451547D01*
X2908987Y5405490D01*
X3004762Y5355100D01*
X3010283Y5353386D01*
X3010287Y5353384D01*
X3180623Y5300494D01*
X3208102Y5291961D01*
X3380982Y5271500D01*
X3504013Y5271500D01*
X3589645Y5279368D01*
X3656270Y5285490D01*
X3656273Y5285491D01*
X3662024Y5286019D01*
X3683093Y5291961D01*
X3861389Y5342246D01*
X3861391Y5342247D01*
X3866948Y5343814D01*
X3872123Y5346366D01*
X3872128Y5346368D01*
X4052727Y5435430D01*
X4057908Y5437985D01*
X4092498Y5463814D01*
X4215187Y5555430D01*
X4228509Y5565378D01*
X4373037Y5721729D01*
X4486653Y5901799D01*
X4565551Y6099559D01*
X4570305Y6123456D01*
X4605962Y6302718D01*
X4605962Y6302720D01*
X4607089Y6308385D01*
X4607412Y6333018D01*
X4607487Y6338716D01*
X8290124Y6338716D01*
X8291103Y6333019D01*
X8291103Y6333018D01*
X8310599Y6219559D01*
X8326181Y6128874D01*
X8399875Y5929116D01*
X8508739Y5746134D01*
X8649125Y5586054D01*
X8816333Y5454238D01*
X8821444Y5451549D01*
X8821447Y5451547D01*
X8908987Y5405490D01*
X9004762Y5355100D01*
X9010283Y5353386D01*
X9010287Y5353384D01*
X9180623Y5300494D01*
X9208102Y5291961D01*
X9380982Y5271500D01*
X9504013Y5271500D01*
X9589645Y5279368D01*
X9656270Y5285490D01*
X9656273Y5285491D01*
X9662024Y5286019D01*
X9683093Y5291961D01*
X9861389Y5342246D01*
X9861391Y5342247D01*
X9866948Y5343814D01*
X9872123Y5346366D01*
X9872128Y5346368D01*
X10052727Y5435430D01*
X10057908Y5437985D01*
X10092498Y5463814D01*
X10215187Y5555430D01*
X10228509Y5565378D01*
X10373037Y5721729D01*
X10486653Y5901799D01*
X10565551Y6099559D01*
X10570305Y6123456D01*
X10605962Y6302718D01*
X10605962Y6302720D01*
X10607089Y6308385D01*
X10607412Y6333018D01*
X10608660Y6428385D01*
X10609057Y6458716D01*
X18390124Y6458716D01*
X18391103Y6453019D01*
X18391103Y6453018D01*
X18411723Y6333018D01*
X18426181Y6248874D01*
X18499875Y6049116D01*
X18608739Y5866134D01*
X18749125Y5706054D01*
X18916333Y5574238D01*
X18921444Y5571549D01*
X18921447Y5571547D01*
X19024961Y5517085D01*
X19104762Y5475100D01*
X19110283Y5473386D01*
X19110287Y5473384D01*
X19280623Y5420494D01*
X19308102Y5411961D01*
X19480982Y5391500D01*
X19604013Y5391500D01*
X19689645Y5399368D01*
X19756270Y5405490D01*
X19756273Y5405491D01*
X19762024Y5406019D01*
X19783093Y5411961D01*
X19961389Y5462246D01*
X19961391Y5462247D01*
X19966948Y5463814D01*
X19972123Y5466366D01*
X19972128Y5466368D01*
X20152727Y5555430D01*
X20157908Y5557985D01*
X20167809Y5565378D01*
X20323886Y5681926D01*
X20328509Y5685378D01*
X20473037Y5841729D01*
X20586653Y6021799D01*
X20665551Y6219559D01*
X20670305Y6243456D01*
X20705962Y6422718D01*
X20705962Y6422720D01*
X20707089Y6428385D01*
X20707412Y6453018D01*
X20707487Y6458716D01*
X24390124Y6458716D01*
X24391103Y6453019D01*
X24391103Y6453018D01*
X24411723Y6333018D01*
X24426181Y6248874D01*
X24499875Y6049116D01*
X24608739Y5866134D01*
X24749125Y5706054D01*
X24916333Y5574238D01*
X24921444Y5571549D01*
X24921447Y5571547D01*
X25024961Y5517085D01*
X25104762Y5475100D01*
X25110283Y5473386D01*
X25110287Y5473384D01*
X25280623Y5420494D01*
X25308102Y5411961D01*
X25480982Y5391500D01*
X25604013Y5391500D01*
X25689645Y5399368D01*
X25756270Y5405490D01*
X25756273Y5405491D01*
X25762024Y5406019D01*
X25783093Y5411961D01*
X25961389Y5462246D01*
X25961391Y5462247D01*
X25966948Y5463814D01*
X25972123Y5466366D01*
X25972128Y5466368D01*
X26152727Y5555430D01*
X26157908Y5557985D01*
X26167809Y5565378D01*
X26323886Y5681926D01*
X26328509Y5685378D01*
X26473037Y5841729D01*
X26586653Y6021799D01*
X26665551Y6219559D01*
X26670305Y6243456D01*
X26705962Y6422718D01*
X26705962Y6422720D01*
X26707089Y6428385D01*
X26707412Y6453018D01*
X26709800Y6635502D01*
X26709876Y6641284D01*
X26704664Y6671615D01*
X26674797Y6845436D01*
X26674796Y6845439D01*
X26673819Y6851126D01*
X26600125Y7050884D01*
X26491261Y7233866D01*
X26350875Y7393946D01*
X26183667Y7525762D01*
X26178556Y7528451D01*
X26178553Y7528453D01*
X26064928Y7588234D01*
X25995238Y7624900D01*
X25989717Y7626614D01*
X25989713Y7626616D01*
X25797421Y7686324D01*
X25797422Y7686324D01*
X25791898Y7688039D01*
X25619018Y7708500D01*
X25495987Y7708500D01*
X25410355Y7700632D01*
X25343730Y7694510D01*
X25343727Y7694509D01*
X25337976Y7693981D01*
X25332417Y7692413D01*
X25332416Y7692413D01*
X25138611Y7637754D01*
X25138609Y7637753D01*
X25133052Y7636186D01*
X25127877Y7633634D01*
X25127872Y7633632D01*
X25003733Y7572413D01*
X24942092Y7542015D01*
X24937466Y7538561D01*
X24937465Y7538560D01*
X24904082Y7513632D01*
X24771491Y7414622D01*
X24626963Y7258271D01*
X24513347Y7078201D01*
X24434449Y6880441D01*
X24433323Y6874781D01*
X24433322Y6874777D01*
X24394038Y6677282D01*
X24392911Y6671615D01*
X24392835Y6665840D01*
X24392835Y6665836D01*
X24392514Y6641284D01*
X24390124Y6458716D01*
X20707487Y6458716D01*
X20709800Y6635502D01*
X20709876Y6641284D01*
X20704664Y6671615D01*
X20674797Y6845436D01*
X20674796Y6845439D01*
X20673819Y6851126D01*
X20600125Y7050884D01*
X20491261Y7233866D01*
X20350875Y7393946D01*
X20183667Y7525762D01*
X20178556Y7528451D01*
X20178553Y7528453D01*
X20064928Y7588234D01*
X19995238Y7624900D01*
X19989717Y7626614D01*
X19989713Y7626616D01*
X19797421Y7686324D01*
X19797422Y7686324D01*
X19791898Y7688039D01*
X19619018Y7708500D01*
X19495987Y7708500D01*
X19410355Y7700632D01*
X19343730Y7694510D01*
X19343727Y7694509D01*
X19337976Y7693981D01*
X19332417Y7692413D01*
X19332416Y7692413D01*
X19138611Y7637754D01*
X19138609Y7637753D01*
X19133052Y7636186D01*
X19127877Y7633634D01*
X19127872Y7633632D01*
X19003733Y7572413D01*
X18942092Y7542015D01*
X18937466Y7538561D01*
X18937465Y7538560D01*
X18904082Y7513632D01*
X18771491Y7414622D01*
X18626963Y7258271D01*
X18513347Y7078201D01*
X18434449Y6880441D01*
X18433323Y6874781D01*
X18433322Y6874777D01*
X18394038Y6677282D01*
X18392911Y6671615D01*
X18392835Y6665840D01*
X18392835Y6665836D01*
X18392514Y6641284D01*
X18390124Y6458716D01*
X10609057Y6458716D01*
X10609876Y6521284D01*
X10604664Y6551615D01*
X10574797Y6725436D01*
X10574796Y6725439D01*
X10573819Y6731126D01*
X10500125Y6930884D01*
X10391261Y7113866D01*
X10250875Y7273946D01*
X10083667Y7405762D01*
X10078556Y7408451D01*
X10078553Y7408453D01*
X9975039Y7462915D01*
X9895238Y7504900D01*
X9889717Y7506614D01*
X9889713Y7506616D01*
X9697421Y7566324D01*
X9697422Y7566324D01*
X9691898Y7568039D01*
X9519018Y7588500D01*
X9395987Y7588500D01*
X9310355Y7580632D01*
X9243730Y7574510D01*
X9243727Y7574509D01*
X9237976Y7573981D01*
X9232417Y7572413D01*
X9232416Y7572413D01*
X9038611Y7517754D01*
X9038609Y7517753D01*
X9033052Y7516186D01*
X9027877Y7513634D01*
X9027872Y7513632D01*
X9004705Y7502207D01*
X8842092Y7422015D01*
X8837466Y7418561D01*
X8837465Y7418560D01*
X8826515Y7410383D01*
X8671491Y7294622D01*
X8526963Y7138271D01*
X8413347Y6958201D01*
X8334449Y6760441D01*
X8333323Y6754781D01*
X8333322Y6754777D01*
X8310747Y6641284D01*
X8292911Y6551615D01*
X8292835Y6545840D01*
X8292835Y6545836D01*
X8291695Y6458716D01*
X8290124Y6338716D01*
X4607487Y6338716D01*
X4608660Y6428385D01*
X4609876Y6521284D01*
X4604664Y6551615D01*
X4574797Y6725436D01*
X4574796Y6725439D01*
X4573819Y6731126D01*
X4500125Y6930884D01*
X4391261Y7113866D01*
X4250875Y7273946D01*
X4083667Y7405762D01*
X4078556Y7408451D01*
X4078553Y7408453D01*
X3975039Y7462915D01*
X3895238Y7504900D01*
X3889717Y7506614D01*
X3889713Y7506616D01*
X3697421Y7566324D01*
X3697422Y7566324D01*
X3691898Y7568039D01*
X3519018Y7588500D01*
X3395987Y7588500D01*
X3310355Y7580632D01*
X3243730Y7574510D01*
X3243727Y7574509D01*
X3237976Y7573981D01*
X3232417Y7572413D01*
X3232416Y7572413D01*
X3038611Y7517754D01*
X3038609Y7517753D01*
X3033052Y7516186D01*
X3027877Y7513634D01*
X3027872Y7513632D01*
X3004705Y7502207D01*
X2842092Y7422015D01*
X2837466Y7418561D01*
X2837465Y7418560D01*
X2826515Y7410383D01*
X2671491Y7294622D01*
X2526963Y7138271D01*
X2413347Y6958201D01*
X2334449Y6760441D01*
X2333323Y6754781D01*
X2333322Y6754777D01*
X2310747Y6641284D01*
X2292911Y6551615D01*
X2292835Y6545840D01*
X2292835Y6545836D01*
X2291695Y6458716D01*
X2290124Y6338716D01*
X758000Y6338716D01*
X758000Y11150672D01*
X759500Y11170057D01*
X761805Y11184858D01*
X761805Y11184861D01*
X763186Y11193730D01*
X761748Y11204728D01*
X761291Y11233412D01*
X772001Y11342158D01*
X776819Y11366383D01*
X814685Y11491212D01*
X824138Y11514033D01*
X833857Y11532216D01*
X885629Y11629073D01*
X899350Y11649607D01*
X914433Y11667985D01*
X982099Y11750437D01*
X999564Y11767902D01*
X1019364Y11784151D01*
X1100395Y11850652D01*
X1120927Y11864371D01*
X1235970Y11925863D01*
X1258788Y11935315D01*
X1383617Y11973181D01*
X1407839Y11977998D01*
X1509836Y11988044D01*
X1525877Y11987592D01*
X1525886Y11988305D01*
X1534855Y11988196D01*
X1543730Y11986814D01*
X1575252Y11990936D01*
X1591589Y11992000D01*
X1995562Y11992000D01*
X2063683Y11971998D01*
G37*
G04 #@! TD.AperFunction*
G04 #@! TD*
M02*
