%TF.GenerationSoftware,KiCad,Pcbnew,(6.0.1)*%
%TF.CreationDate,2022-01-21T14:23:51-05:00*%
%TF.ProjectId,midi-trs-a-b-conveter,6d696469-2d74-4727-932d-612d622d636f,rev?*%
%TF.SameCoordinates,Original*%
%TF.FileFunction,Legend,Top*%
%TF.FilePolarity,Positive*%
%FSLAX46Y46*%
G04 Gerber Fmt 4.6, Leading zero omitted, Abs format (unit mm)*
G04 Created by KiCad (PCBNEW (6.0.1)) date 2022-01-21 14:23:51*
%MOMM*%
%LPD*%
G01*
G04 APERTURE LIST*
%ADD10C,0.050800*%
%ADD11C,0.150000*%
%ADD12C,1.200000*%
G04 APERTURE END LIST*
D10*
%TO.C,U2*%
X86781620Y-49403832D02*
X87104442Y-49403832D01*
X87142421Y-49384842D01*
X87161410Y-49365853D01*
X87180400Y-49327874D01*
X87180400Y-49251916D01*
X87161410Y-49213937D01*
X87142421Y-49194947D01*
X87104442Y-49175958D01*
X86781620Y-49175958D01*
X86819599Y-49005052D02*
X86800610Y-48986062D01*
X86781620Y-48948083D01*
X86781620Y-48853136D01*
X86800610Y-48815157D01*
X86819599Y-48796167D01*
X86857578Y-48777178D01*
X86895557Y-48777178D01*
X86952526Y-48796167D01*
X87180400Y-49024041D01*
X87180400Y-48777178D01*
%TO.C,U1*%
X103581620Y-49303832D02*
X103904442Y-49303832D01*
X103942421Y-49284842D01*
X103961410Y-49265853D01*
X103980400Y-49227874D01*
X103980400Y-49151916D01*
X103961410Y-49113937D01*
X103942421Y-49094947D01*
X103904442Y-49075958D01*
X103581620Y-49075958D01*
X103980400Y-48677178D02*
X103980400Y-48905052D01*
X103980400Y-48791115D02*
X103581620Y-48791115D01*
X103638589Y-48829094D01*
X103676568Y-48867073D01*
X103695557Y-48905052D01*
D11*
%TO.C,U2*%
X83850000Y-46000000D02*
X85850000Y-46000000D01*
X86100000Y-52000000D02*
X91050000Y-52000000D01*
X93950000Y-52000000D02*
X93100000Y-52000000D01*
X93950000Y-46000000D02*
X93950000Y-52000000D01*
X87850000Y-46000000D02*
X93950000Y-46000000D01*
%TO.C,U1*%
X106950000Y-52000000D02*
X104950000Y-52000000D01*
X104700000Y-46000000D02*
X99750000Y-46000000D01*
X96850000Y-46000000D02*
X97700000Y-46000000D01*
X96850000Y-52000000D02*
X96850000Y-46000000D01*
X102950000Y-52000000D02*
X96850000Y-52000000D01*
%TD*%
D12*
%TO.C,U2*%
X84850000Y-49000000D03*
X90850000Y-49000000D03*
%TD*%
%TO.C,U1*%
X105950000Y-49000000D03*
X99950000Y-49000000D03*
%TD*%
M02*
