%FSLAX45Y45*%
G04 Gerber Fmt 4.5, Leading zero omitted, Abs format (unit mm)*
G04 Created by KiCad (PCBNEW (6.0.2)) date 2022-09-05 01:34:12*
%MOMM*%
%LPD*%
G01*
G04 APERTURE LIST*
%TA.AperFunction,Profile*%
%ADD10C,0.200000*%
%TD*%
%ADD11C,0.200000*%
%ADD12C,0.130000*%
G04 APERTURE END LIST*
D10*
X2875000Y1120000D02*
G75*
G03*
X2745000Y1250000I-130000J0D01*
G01*
X2745000Y10000D02*
G75*
G03*
X2875000Y140000I0J130000D01*
G01*
X2745000Y10000D02*
X155000Y10000D01*
X25000Y140000D02*
X25000Y1120000D01*
X2875000Y1120000D02*
X2875000Y140000D01*
X155000Y1250000D02*
X2745000Y1250000D01*
X25000Y140000D02*
G75*
G03*
X155000Y10000I130000J0D01*
G01*
X155000Y1250000D02*
G75*
G03*
X25000Y1120000I0J-130000D01*
G01*
D11*
D12*
X280000Y708000D02*
X410000Y578000D01*
X410000Y708000D02*
X280000Y578000D01*
X880000Y708000D02*
X1010000Y578000D01*
X1010000Y708000D02*
X880000Y578000D01*
X1890000Y720000D02*
X2020000Y590000D01*
X2020000Y720000D02*
X1890000Y590000D01*
X2490000Y720000D02*
X2620000Y590000D01*
X2620000Y720000D02*
X2490000Y590000D01*
D11*
X272619Y-310476D02*
X272619Y-110476D01*
X320238Y-110476D01*
X348810Y-120000D01*
X367857Y-139048D01*
X377381Y-158095D01*
X386905Y-196190D01*
X386905Y-224762D01*
X377381Y-262857D01*
X367857Y-281905D01*
X348810Y-300952D01*
X320238Y-310476D01*
X272619Y-310476D01*
X472619Y-310476D02*
X472619Y-177143D01*
X472619Y-215238D02*
X482143Y-196190D01*
X491667Y-186667D01*
X510714Y-177143D01*
X529762Y-177143D01*
X596429Y-310476D02*
X596429Y-177143D01*
X596429Y-110476D02*
X586905Y-120000D01*
X596429Y-129524D01*
X605952Y-120000D01*
X596429Y-110476D01*
X596429Y-129524D01*
X720238Y-310476D02*
X701190Y-300952D01*
X691667Y-281905D01*
X691667Y-110476D01*
X825000Y-310476D02*
X805952Y-300952D01*
X796428Y-281905D01*
X796428Y-110476D01*
X1053571Y-310476D02*
X1053571Y-110476D01*
X1120238Y-253333D01*
X1186905Y-110476D01*
X1186905Y-310476D01*
X1367857Y-310476D02*
X1367857Y-205714D01*
X1358333Y-186667D01*
X1339286Y-177143D01*
X1301190Y-177143D01*
X1282143Y-186667D01*
X1367857Y-300952D02*
X1348810Y-310476D01*
X1301190Y-310476D01*
X1282143Y-300952D01*
X1272619Y-281905D01*
X1272619Y-262857D01*
X1282143Y-243809D01*
X1301190Y-234286D01*
X1348810Y-234286D01*
X1367857Y-224762D01*
X1463095Y-177143D02*
X1463095Y-377143D01*
X1463095Y-186667D02*
X1482143Y-177143D01*
X1520238Y-177143D01*
X1539286Y-186667D01*
X1548809Y-196190D01*
X1558333Y-215238D01*
X1558333Y-272381D01*
X1548809Y-291429D01*
X1539286Y-300952D01*
X1520238Y-310476D01*
X1482143Y-310476D01*
X1463095Y-300952D01*
X1644048Y-291429D02*
X1653571Y-300952D01*
X1644048Y-310476D01*
X1634524Y-300952D01*
X1644048Y-291429D01*
X1644048Y-310476D01*
X1644048Y-186667D02*
X1653571Y-196190D01*
X1644048Y-205714D01*
X1634524Y-196190D01*
X1644048Y-186667D01*
X1644048Y-205714D01*
D12*
X-115000Y-575000D02*
X15000Y-705000D01*
X15000Y-575000D02*
X-115000Y-705000D01*
D11*
X377381Y-730476D02*
X263095Y-730476D01*
X320238Y-730476D02*
X320238Y-530476D01*
X301190Y-559048D01*
X282143Y-578095D01*
X263095Y-587619D01*
X463095Y-711428D02*
X472619Y-720952D01*
X463095Y-730476D01*
X453571Y-720952D01*
X463095Y-711428D01*
X463095Y-730476D01*
X539286Y-530476D02*
X663095Y-530476D01*
X596429Y-606667D01*
X625000Y-606667D01*
X644048Y-616190D01*
X653571Y-625714D01*
X663095Y-644762D01*
X663095Y-692381D01*
X653571Y-711428D01*
X644048Y-720952D01*
X625000Y-730476D01*
X567857Y-730476D01*
X548810Y-720952D01*
X539286Y-711428D01*
X786905Y-530476D02*
X805952Y-530476D01*
X825000Y-540000D01*
X834524Y-549524D01*
X844048Y-568571D01*
X853571Y-606667D01*
X853571Y-654286D01*
X844048Y-692381D01*
X834524Y-711428D01*
X825000Y-720952D01*
X805952Y-730476D01*
X786905Y-730476D01*
X767857Y-720952D01*
X758333Y-711428D01*
X748809Y-692381D01*
X739286Y-654286D01*
X739286Y-606667D01*
X748809Y-568571D01*
X758333Y-549524D01*
X767857Y-540000D01*
X786905Y-530476D01*
X977381Y-530476D02*
X996428Y-530476D01*
X1015476Y-540000D01*
X1025000Y-549524D01*
X1034524Y-568571D01*
X1044048Y-606667D01*
X1044048Y-654286D01*
X1034524Y-692381D01*
X1025000Y-711428D01*
X1015476Y-720952D01*
X996428Y-730476D01*
X977381Y-730476D01*
X958333Y-720952D01*
X948809Y-711428D01*
X939286Y-692381D01*
X929762Y-654286D01*
X929762Y-606667D01*
X939286Y-568571D01*
X948809Y-549524D01*
X958333Y-540000D01*
X977381Y-530476D01*
X1129762Y-730476D02*
X1129762Y-597143D01*
X1129762Y-616190D02*
X1139286Y-606667D01*
X1158333Y-597143D01*
X1186905Y-597143D01*
X1205952Y-606667D01*
X1215476Y-625714D01*
X1215476Y-730476D01*
X1215476Y-625714D02*
X1225000Y-606667D01*
X1244048Y-597143D01*
X1272619Y-597143D01*
X1291667Y-606667D01*
X1301190Y-625714D01*
X1301190Y-730476D01*
X1396429Y-730476D02*
X1396429Y-597143D01*
X1396429Y-616190D02*
X1405952Y-606667D01*
X1425000Y-597143D01*
X1453571Y-597143D01*
X1472619Y-606667D01*
X1482143Y-625714D01*
X1482143Y-730476D01*
X1482143Y-625714D02*
X1491667Y-606667D01*
X1510714Y-597143D01*
X1539286Y-597143D01*
X1558333Y-606667D01*
X1567857Y-625714D01*
X1567857Y-730476D01*
X1958333Y-520952D02*
X1786905Y-778095D01*
X2215476Y-530476D02*
X2234524Y-530476D01*
X2253571Y-540000D01*
X2263095Y-549524D01*
X2272619Y-568571D01*
X2282143Y-606667D01*
X2282143Y-654286D01*
X2272619Y-692381D01*
X2263095Y-711428D01*
X2253571Y-720952D01*
X2234524Y-730476D01*
X2215476Y-730476D01*
X2196429Y-720952D01*
X2186905Y-711428D01*
X2177381Y-692381D01*
X2167857Y-654286D01*
X2167857Y-606667D01*
X2177381Y-568571D01*
X2186905Y-549524D01*
X2196429Y-540000D01*
X2215476Y-530476D01*
X2367857Y-711428D02*
X2377381Y-720952D01*
X2367857Y-730476D01*
X2358333Y-720952D01*
X2367857Y-711428D01*
X2367857Y-730476D01*
X2501190Y-530476D02*
X2520238Y-530476D01*
X2539286Y-540000D01*
X2548810Y-549524D01*
X2558333Y-568571D01*
X2567857Y-606667D01*
X2567857Y-654286D01*
X2558333Y-692381D01*
X2548810Y-711428D01*
X2539286Y-720952D01*
X2520238Y-730476D01*
X2501190Y-730476D01*
X2482143Y-720952D01*
X2472619Y-711428D01*
X2463095Y-692381D01*
X2453571Y-654286D01*
X2453571Y-606667D01*
X2463095Y-568571D01*
X2472619Y-549524D01*
X2482143Y-540000D01*
X2501190Y-530476D01*
X2748810Y-530476D02*
X2653571Y-530476D01*
X2644048Y-625714D01*
X2653571Y-616190D01*
X2672619Y-606667D01*
X2720238Y-606667D01*
X2739286Y-616190D01*
X2748810Y-625714D01*
X2758333Y-644762D01*
X2758333Y-692381D01*
X2748810Y-711428D01*
X2739286Y-720952D01*
X2720238Y-730476D01*
X2672619Y-730476D01*
X2653571Y-720952D01*
X2644048Y-711428D01*
X2948809Y-730476D02*
X2834524Y-730476D01*
X2891667Y-730476D02*
X2891667Y-530476D01*
X2872619Y-559048D01*
X2853571Y-578095D01*
X2834524Y-587619D01*
X3025000Y-549524D02*
X3034524Y-540000D01*
X3053571Y-530476D01*
X3101190Y-530476D01*
X3120238Y-540000D01*
X3129762Y-549524D01*
X3139286Y-568571D01*
X3139286Y-587619D01*
X3129762Y-616190D01*
X3015476Y-730476D01*
X3139286Y-730476D01*
X3215476Y-530476D02*
X3215476Y-568571D01*
X3291667Y-530476D02*
X3291667Y-568571D01*
X3586905Y-806667D02*
X3577381Y-797143D01*
X3558333Y-768571D01*
X3548809Y-749524D01*
X3539286Y-720952D01*
X3529762Y-673333D01*
X3529762Y-635238D01*
X3539286Y-587619D01*
X3548809Y-559048D01*
X3558333Y-540000D01*
X3577381Y-511428D01*
X3586905Y-501905D01*
X3748809Y-597143D02*
X3748809Y-730476D01*
X3701190Y-520952D02*
X3653571Y-663810D01*
X3777381Y-663810D01*
X4005952Y-730476D02*
X4005952Y-530476D01*
X4091667Y-730476D02*
X4091667Y-625714D01*
X4082143Y-606667D01*
X4063095Y-597143D01*
X4034524Y-597143D01*
X4015476Y-606667D01*
X4005952Y-616190D01*
X4215476Y-730476D02*
X4196429Y-720952D01*
X4186905Y-711428D01*
X4177381Y-692381D01*
X4177381Y-635238D01*
X4186905Y-616190D01*
X4196429Y-606667D01*
X4215476Y-597143D01*
X4244048Y-597143D01*
X4263095Y-606667D01*
X4272619Y-616190D01*
X4282143Y-635238D01*
X4282143Y-692381D01*
X4272619Y-711428D01*
X4263095Y-720952D01*
X4244048Y-730476D01*
X4215476Y-730476D01*
X4396429Y-730476D02*
X4377381Y-720952D01*
X4367857Y-701905D01*
X4367857Y-530476D01*
X4548810Y-720952D02*
X4529762Y-730476D01*
X4491667Y-730476D01*
X4472619Y-720952D01*
X4463095Y-701905D01*
X4463095Y-625714D01*
X4472619Y-606667D01*
X4491667Y-597143D01*
X4529762Y-597143D01*
X4548810Y-606667D01*
X4558333Y-625714D01*
X4558333Y-644762D01*
X4463095Y-663810D01*
X4634524Y-720952D02*
X4653571Y-730476D01*
X4691667Y-730476D01*
X4710714Y-720952D01*
X4720238Y-701905D01*
X4720238Y-692381D01*
X4710714Y-673333D01*
X4691667Y-663810D01*
X4663095Y-663810D01*
X4644048Y-654286D01*
X4634524Y-635238D01*
X4634524Y-625714D01*
X4644048Y-606667D01*
X4663095Y-597143D01*
X4691667Y-597143D01*
X4710714Y-606667D01*
X4786905Y-806667D02*
X4796429Y-797143D01*
X4815476Y-768571D01*
X4825000Y-749524D01*
X4834524Y-720952D01*
X4844048Y-673333D01*
X4844048Y-635238D01*
X4834524Y-587619D01*
X4825000Y-559048D01*
X4815476Y-540000D01*
X4796429Y-511428D01*
X4786905Y-501905D01*
X5148810Y-806667D02*
X5139286Y-797143D01*
X5120238Y-768571D01*
X5110714Y-749524D01*
X5101190Y-720952D01*
X5091667Y-673333D01*
X5091667Y-635238D01*
X5101190Y-587619D01*
X5110714Y-559048D01*
X5120238Y-540000D01*
X5139286Y-511428D01*
X5148810Y-501905D01*
X5225000Y-597143D02*
X5225000Y-730476D01*
X5225000Y-616190D02*
X5234524Y-606667D01*
X5253571Y-597143D01*
X5282143Y-597143D01*
X5301190Y-606667D01*
X5310714Y-625714D01*
X5310714Y-730476D01*
X5434524Y-730476D02*
X5415476Y-720952D01*
X5405952Y-711428D01*
X5396429Y-692381D01*
X5396429Y-635238D01*
X5405952Y-616190D01*
X5415476Y-606667D01*
X5434524Y-597143D01*
X5463095Y-597143D01*
X5482143Y-606667D01*
X5491667Y-616190D01*
X5501190Y-635238D01*
X5501190Y-692381D01*
X5491667Y-711428D01*
X5482143Y-720952D01*
X5463095Y-730476D01*
X5434524Y-730476D01*
X5558333Y-597143D02*
X5634524Y-597143D01*
X5586905Y-530476D02*
X5586905Y-701905D01*
X5596428Y-720952D01*
X5615476Y-730476D01*
X5634524Y-730476D01*
X5853571Y-597143D02*
X5853571Y-797143D01*
X5853571Y-606667D02*
X5872619Y-597143D01*
X5910714Y-597143D01*
X5929762Y-606667D01*
X5939286Y-616190D01*
X5948809Y-635238D01*
X5948809Y-692381D01*
X5939286Y-711428D01*
X5929762Y-720952D01*
X5910714Y-730476D01*
X5872619Y-730476D01*
X5853571Y-720952D01*
X6063095Y-730476D02*
X6044048Y-720952D01*
X6034524Y-701905D01*
X6034524Y-530476D01*
X6225000Y-730476D02*
X6225000Y-625714D01*
X6215476Y-606667D01*
X6196428Y-597143D01*
X6158333Y-597143D01*
X6139286Y-606667D01*
X6225000Y-720952D02*
X6205952Y-730476D01*
X6158333Y-730476D01*
X6139286Y-720952D01*
X6129762Y-701905D01*
X6129762Y-682857D01*
X6139286Y-663810D01*
X6158333Y-654286D01*
X6205952Y-654286D01*
X6225000Y-644762D01*
X6291667Y-597143D02*
X6367857Y-597143D01*
X6320238Y-530476D02*
X6320238Y-701905D01*
X6329762Y-720952D01*
X6348809Y-730476D01*
X6367857Y-730476D01*
X6510714Y-720952D02*
X6491667Y-730476D01*
X6453571Y-730476D01*
X6434524Y-720952D01*
X6425000Y-701905D01*
X6425000Y-625714D01*
X6434524Y-606667D01*
X6453571Y-597143D01*
X6491667Y-597143D01*
X6510714Y-606667D01*
X6520238Y-625714D01*
X6520238Y-644762D01*
X6425000Y-663810D01*
X6691667Y-730476D02*
X6691667Y-530476D01*
X6691667Y-720952D02*
X6672619Y-730476D01*
X6634524Y-730476D01*
X6615476Y-720952D01*
X6605952Y-711428D01*
X6596428Y-692381D01*
X6596428Y-635238D01*
X6605952Y-616190D01*
X6615476Y-606667D01*
X6634524Y-597143D01*
X6672619Y-597143D01*
X6691667Y-606667D01*
X6767857Y-806667D02*
X6777381Y-797143D01*
X6796428Y-768571D01*
X6805952Y-749524D01*
X6815476Y-720952D01*
X6825000Y-673333D01*
X6825000Y-635238D01*
X6815476Y-587619D01*
X6805952Y-559048D01*
X6796428Y-540000D01*
X6777381Y-511428D01*
X6767857Y-501905D01*
M02*
