%TF.GenerationSoftware,KiCad,Pcbnew,(6.0.1)*%
%TF.CreationDate,2022-01-21T14:23:51-05:00*%
%TF.ProjectId,midi-trs-a-b-conveter,6d696469-2d74-4727-932d-612d622d636f,rev?*%
%TF.SameCoordinates,Original*%
%TF.FileFunction,Legend,Bot*%
%TF.FilePolarity,Positive*%
%FSLAX46Y46*%
G04 Gerber Fmt 4.6, Leading zero omitted, Abs format (unit mm)*
G04 Created by KiCad (PCBNEW (6.0.1)) date 2022-01-21 14:23:51*
%MOMM*%
%LPD*%
G01*
G04 APERTURE LIST*
%ADD10C,0.250000*%
%ADD11C,0.300000*%
%ADD12C,0.010000*%
G04 APERTURE END LIST*
D10*
X89928571Y-53485714D02*
X89690476Y-54152380D01*
X89452380Y-53485714D01*
X88547619Y-54152380D02*
X89119047Y-54152380D01*
X88833333Y-54152380D02*
X88833333Y-53152380D01*
X88928571Y-53295238D01*
X89023809Y-53390476D01*
X89119047Y-53438095D01*
X88119047Y-54057142D02*
X88071428Y-54104761D01*
X88119047Y-54152380D01*
X88166666Y-54104761D01*
X88119047Y-54057142D01*
X88119047Y-54152380D01*
X87452380Y-53152380D02*
X87357142Y-53152380D01*
X87261904Y-53200000D01*
X87214285Y-53247619D01*
X87166666Y-53342857D01*
X87119047Y-53533333D01*
X87119047Y-53771428D01*
X87166666Y-53961904D01*
X87214285Y-54057142D01*
X87261904Y-54104761D01*
X87357142Y-54152380D01*
X87452380Y-54152380D01*
X87547619Y-54104761D01*
X87595238Y-54057142D01*
X87642857Y-53961904D01*
X87690476Y-53771428D01*
X87690476Y-53533333D01*
X87642857Y-53342857D01*
X87595238Y-53247619D01*
X87547619Y-53200000D01*
X87452380Y-53152380D01*
D11*
X103292857Y-45371071D02*
X103292857Y-43871071D01*
X102792857Y-44942500D01*
X102292857Y-43871071D01*
X102292857Y-45371071D01*
X101578571Y-45371071D02*
X101578571Y-43871071D01*
X100864285Y-45371071D02*
X100864285Y-43871071D01*
X100507142Y-43871071D01*
X100292857Y-43942500D01*
X100150000Y-44085357D01*
X100078571Y-44228214D01*
X100007142Y-44513928D01*
X100007142Y-44728214D01*
X100078571Y-45013928D01*
X100150000Y-45156785D01*
X100292857Y-45299642D01*
X100507142Y-45371071D01*
X100864285Y-45371071D01*
X99364285Y-45371071D02*
X99364285Y-43871071D01*
X97721428Y-43871071D02*
X96864285Y-43871071D01*
X97292857Y-45371071D02*
X97292857Y-43871071D01*
X95507142Y-45371071D02*
X96007142Y-44656785D01*
X96364285Y-45371071D02*
X96364285Y-43871071D01*
X95792857Y-43871071D01*
X95650000Y-43942500D01*
X95578571Y-44013928D01*
X95507142Y-44156785D01*
X95507142Y-44371071D01*
X95578571Y-44513928D01*
X95650000Y-44585357D01*
X95792857Y-44656785D01*
X96364285Y-44656785D01*
X94935714Y-45299642D02*
X94721428Y-45371071D01*
X94364285Y-45371071D01*
X94221428Y-45299642D01*
X94150000Y-45228214D01*
X94078571Y-45085357D01*
X94078571Y-44942500D01*
X94150000Y-44799642D01*
X94221428Y-44728214D01*
X94364285Y-44656785D01*
X94650000Y-44585357D01*
X94792857Y-44513928D01*
X94864285Y-44442500D01*
X94935714Y-44299642D01*
X94935714Y-44156785D01*
X94864285Y-44013928D01*
X94792857Y-43942500D01*
X94650000Y-43871071D01*
X94292857Y-43871071D01*
X94078571Y-43942500D01*
X92364285Y-44942500D02*
X91650000Y-44942500D01*
X92507142Y-45371071D02*
X92007142Y-43871071D01*
X91507142Y-45371071D01*
X89935714Y-43799642D02*
X91221428Y-45728214D01*
X88935714Y-44585357D02*
X88721428Y-44656785D01*
X88650000Y-44728214D01*
X88578571Y-44871071D01*
X88578571Y-45085357D01*
X88650000Y-45228214D01*
X88721428Y-45299642D01*
X88864285Y-45371071D01*
X89435714Y-45371071D01*
X89435714Y-43871071D01*
X88935714Y-43871071D01*
X88792857Y-43942500D01*
X88721428Y-44013928D01*
X88650000Y-44156785D01*
X88650000Y-44299642D01*
X88721428Y-44442500D01*
X88792857Y-44513928D01*
X88935714Y-44585357D01*
X89435714Y-44585357D01*
X99507142Y-47643214D02*
X99578571Y-47714642D01*
X99792857Y-47786071D01*
X99935714Y-47786071D01*
X100150000Y-47714642D01*
X100292857Y-47571785D01*
X100364285Y-47428928D01*
X100435714Y-47143214D01*
X100435714Y-46928928D01*
X100364285Y-46643214D01*
X100292857Y-46500357D01*
X100150000Y-46357500D01*
X99935714Y-46286071D01*
X99792857Y-46286071D01*
X99578571Y-46357500D01*
X99507142Y-46428928D01*
X98650000Y-47786071D02*
X98792857Y-47714642D01*
X98864285Y-47643214D01*
X98935714Y-47500357D01*
X98935714Y-47071785D01*
X98864285Y-46928928D01*
X98792857Y-46857500D01*
X98650000Y-46786071D01*
X98435714Y-46786071D01*
X98292857Y-46857500D01*
X98221428Y-46928928D01*
X98150000Y-47071785D01*
X98150000Y-47500357D01*
X98221428Y-47643214D01*
X98292857Y-47714642D01*
X98435714Y-47786071D01*
X98650000Y-47786071D01*
X97507142Y-46786071D02*
X97507142Y-47786071D01*
X97507142Y-46928928D02*
X97435714Y-46857500D01*
X97292857Y-46786071D01*
X97078571Y-46786071D01*
X96935714Y-46857500D01*
X96864285Y-47000357D01*
X96864285Y-47786071D01*
X96292857Y-46786071D02*
X95935714Y-47786071D01*
X95578571Y-46786071D01*
X94435714Y-47714642D02*
X94578571Y-47786071D01*
X94864285Y-47786071D01*
X95007142Y-47714642D01*
X95078571Y-47571785D01*
X95078571Y-47000357D01*
X95007142Y-46857500D01*
X94864285Y-46786071D01*
X94578571Y-46786071D01*
X94435714Y-46857500D01*
X94364285Y-47000357D01*
X94364285Y-47143214D01*
X95078571Y-47286071D01*
X93721428Y-47786071D02*
X93721428Y-46786071D01*
X93721428Y-47071785D02*
X93650000Y-46928928D01*
X93578571Y-46857500D01*
X93435714Y-46786071D01*
X93292857Y-46786071D01*
X93007142Y-46786071D02*
X92435714Y-46786071D01*
X92792857Y-46286071D02*
X92792857Y-47571785D01*
X92721428Y-47714642D01*
X92578571Y-47786071D01*
X92435714Y-47786071D01*
X91364285Y-47714642D02*
X91507142Y-47786071D01*
X91792857Y-47786071D01*
X91935714Y-47714642D01*
X92007142Y-47571785D01*
X92007142Y-47000357D01*
X91935714Y-46857500D01*
X91792857Y-46786071D01*
X91507142Y-46786071D01*
X91364285Y-46857500D01*
X91292857Y-47000357D01*
X91292857Y-47143214D01*
X92007142Y-47286071D01*
X90650000Y-47786071D02*
X90650000Y-46786071D01*
X90650000Y-47071785D02*
X90578571Y-46928928D01*
X90507142Y-46857500D01*
X90364285Y-46786071D01*
X90221428Y-46786071D01*
D12*
%TO.C,G\u002A\u002A\u002A*%
X96838470Y-54385583D02*
X96803798Y-54438500D01*
X96803798Y-54438500D02*
X96067991Y-54438500D01*
X96067991Y-54438500D02*
X95869487Y-54438688D01*
X95869487Y-54438688D02*
X95709129Y-54439376D01*
X95709129Y-54439376D02*
X95582732Y-54440746D01*
X95582732Y-54440746D02*
X95486110Y-54442984D01*
X95486110Y-54442984D02*
X95415078Y-54446272D01*
X95415078Y-54446272D02*
X95365450Y-54450794D01*
X95365450Y-54450794D02*
X95333040Y-54456734D01*
X95333040Y-54456734D02*
X95313662Y-54464276D01*
X95313662Y-54464276D02*
X95304361Y-54472024D01*
X95304361Y-54472024D02*
X95287973Y-54512723D01*
X95287973Y-54512723D02*
X95298777Y-54540816D01*
X95298777Y-54540816D02*
X95308152Y-54550272D01*
X95308152Y-54550272D02*
X95325936Y-54557972D01*
X95325936Y-54557972D02*
X95356306Y-54564138D01*
X95356306Y-54564138D02*
X95403442Y-54568995D01*
X95403442Y-54568995D02*
X95471522Y-54572765D01*
X95471522Y-54572765D02*
X95564725Y-54575672D01*
X95564725Y-54575672D02*
X95687228Y-54577939D01*
X95687228Y-54577939D02*
X95843211Y-54579790D01*
X95843211Y-54579790D02*
X96036852Y-54581448D01*
X96036852Y-54581448D02*
X96062583Y-54581643D01*
X96062583Y-54581643D02*
X96804150Y-54587203D01*
X96804150Y-54587203D02*
X96838646Y-54639851D01*
X96838646Y-54639851D02*
X96873143Y-54692500D01*
X96873143Y-54692500D02*
X98247024Y-54692500D01*
X98247024Y-54692500D02*
X98281697Y-54639583D01*
X98281697Y-54639583D02*
X98316369Y-54586667D01*
X98316369Y-54586667D02*
X99053256Y-54586667D01*
X99053256Y-54586667D02*
X99252416Y-54586468D01*
X99252416Y-54586468D02*
X99413442Y-54585751D01*
X99413442Y-54585751D02*
X99540534Y-54584335D01*
X99540534Y-54584335D02*
X99637890Y-54582038D01*
X99637890Y-54582038D02*
X99709709Y-54578680D01*
X99709709Y-54578680D02*
X99760191Y-54574080D01*
X99760191Y-54574080D02*
X99793532Y-54568055D01*
X99793532Y-54568055D02*
X99813933Y-54560426D01*
X99813933Y-54560426D02*
X99823363Y-54553447D01*
X99823363Y-54553447D02*
X99845006Y-54515099D01*
X99845006Y-54515099D02*
X99834713Y-54479363D01*
X99834713Y-54479363D02*
X99827273Y-54468522D01*
X99827273Y-54468522D02*
X99814935Y-54459787D01*
X99814935Y-54459787D02*
X99793454Y-54452931D01*
X99793454Y-54452931D02*
X99758587Y-54447728D01*
X99758587Y-54447728D02*
X99706088Y-54443950D01*
X99706088Y-54443950D02*
X99631712Y-54441371D01*
X99631712Y-54441371D02*
X99531215Y-54439764D01*
X99531215Y-54439764D02*
X99400353Y-54438901D01*
X99400353Y-54438901D02*
X99234880Y-54438556D01*
X99234880Y-54438556D02*
X99070510Y-54438500D01*
X99070510Y-54438500D02*
X98328176Y-54438500D01*
X98328176Y-54438500D02*
X98286552Y-54385583D01*
X98286552Y-54385583D02*
X98244928Y-54332667D01*
X98244928Y-54332667D02*
X96873143Y-54332667D01*
X96873143Y-54332667D02*
X96838470Y-54385583D01*
X96838470Y-54385583D02*
X96838470Y-54385583D01*
G36*
X98286552Y-54385583D02*
G01*
X98328176Y-54438500D01*
X99070510Y-54438500D01*
X99234880Y-54438556D01*
X99400353Y-54438901D01*
X99531215Y-54439764D01*
X99631712Y-54441371D01*
X99706088Y-54443950D01*
X99758587Y-54447728D01*
X99793454Y-54452931D01*
X99814935Y-54459787D01*
X99827273Y-54468522D01*
X99834713Y-54479363D01*
X99845006Y-54515099D01*
X99823363Y-54553447D01*
X99813933Y-54560426D01*
X99793532Y-54568055D01*
X99760191Y-54574080D01*
X99709709Y-54578680D01*
X99637890Y-54582038D01*
X99540534Y-54584335D01*
X99413442Y-54585751D01*
X99252416Y-54586468D01*
X99053256Y-54586667D01*
X98316369Y-54586667D01*
X98281697Y-54639583D01*
X98247024Y-54692500D01*
X96873143Y-54692500D01*
X96838646Y-54639851D01*
X96804150Y-54587203D01*
X96062583Y-54581643D01*
X96036852Y-54581448D01*
X95843211Y-54579790D01*
X95687228Y-54577939D01*
X95564725Y-54575672D01*
X95471522Y-54572765D01*
X95403442Y-54568995D01*
X95356306Y-54564138D01*
X95325936Y-54557972D01*
X95308152Y-54550272D01*
X95298777Y-54540816D01*
X95287973Y-54512723D01*
X95304361Y-54472024D01*
X95313662Y-54464276D01*
X95333040Y-54456734D01*
X95365450Y-54450794D01*
X95415078Y-54446272D01*
X95486110Y-54442984D01*
X95582732Y-54440746D01*
X95709129Y-54439376D01*
X95869487Y-54438688D01*
X96067991Y-54438500D01*
X96803798Y-54438500D01*
X96838470Y-54385583D01*
X96873143Y-54332667D01*
X98244928Y-54332667D01*
X98286552Y-54385583D01*
G37*
X98286552Y-54385583D02*
X98328176Y-54438500D01*
X99070510Y-54438500D01*
X99234880Y-54438556D01*
X99400353Y-54438901D01*
X99531215Y-54439764D01*
X99631712Y-54441371D01*
X99706088Y-54443950D01*
X99758587Y-54447728D01*
X99793454Y-54452931D01*
X99814935Y-54459787D01*
X99827273Y-54468522D01*
X99834713Y-54479363D01*
X99845006Y-54515099D01*
X99823363Y-54553447D01*
X99813933Y-54560426D01*
X99793532Y-54568055D01*
X99760191Y-54574080D01*
X99709709Y-54578680D01*
X99637890Y-54582038D01*
X99540534Y-54584335D01*
X99413442Y-54585751D01*
X99252416Y-54586468D01*
X99053256Y-54586667D01*
X98316369Y-54586667D01*
X98281697Y-54639583D01*
X98247024Y-54692500D01*
X96873143Y-54692500D01*
X96838646Y-54639851D01*
X96804150Y-54587203D01*
X96062583Y-54581643D01*
X96036852Y-54581448D01*
X95843211Y-54579790D01*
X95687228Y-54577939D01*
X95564725Y-54575672D01*
X95471522Y-54572765D01*
X95403442Y-54568995D01*
X95356306Y-54564138D01*
X95325936Y-54557972D01*
X95308152Y-54550272D01*
X95298777Y-54540816D01*
X95287973Y-54512723D01*
X95304361Y-54472024D01*
X95313662Y-54464276D01*
X95333040Y-54456734D01*
X95365450Y-54450794D01*
X95415078Y-54446272D01*
X95486110Y-54442984D01*
X95582732Y-54440746D01*
X95709129Y-54439376D01*
X95869487Y-54438688D01*
X96067991Y-54438500D01*
X96803798Y-54438500D01*
X96838470Y-54385583D01*
X96873143Y-54332667D01*
X98244928Y-54332667D01*
X98286552Y-54385583D01*
X92449906Y-54383909D02*
X92408737Y-54454602D01*
X92408737Y-54454602D02*
X92401176Y-54533822D01*
X92401176Y-54533822D02*
X92426798Y-54607861D01*
X92426798Y-54607861D02*
X92457980Y-54644147D01*
X92457980Y-54644147D02*
X92474490Y-54657636D01*
X92474490Y-54657636D02*
X92492346Y-54668349D01*
X92492346Y-54668349D02*
X92516292Y-54676607D01*
X92516292Y-54676607D02*
X92551076Y-54682729D01*
X92551076Y-54682729D02*
X92601442Y-54687034D01*
X92601442Y-54687034D02*
X92672138Y-54689842D01*
X92672138Y-54689842D02*
X92767908Y-54691473D01*
X92767908Y-54691473D02*
X92893499Y-54692247D01*
X92893499Y-54692247D02*
X93053657Y-54692483D01*
X93053657Y-54692483D02*
X93175773Y-54692500D01*
X93175773Y-54692500D02*
X93360834Y-54692393D01*
X93360834Y-54692393D02*
X93508247Y-54691884D01*
X93508247Y-54691884D02*
X93622695Y-54690687D01*
X93622695Y-54690687D02*
X93708865Y-54688520D01*
X93708865Y-54688520D02*
X93771439Y-54685097D01*
X93771439Y-54685097D02*
X93815103Y-54680135D01*
X93815103Y-54680135D02*
X93844542Y-54673349D01*
X93844542Y-54673349D02*
X93864439Y-54664456D01*
X93864439Y-54664456D02*
X93879479Y-54653172D01*
X93879479Y-54653172D02*
X93883419Y-54649581D01*
X93883419Y-54649581D02*
X93922549Y-54599318D01*
X93922549Y-54599318D02*
X93942725Y-54553920D01*
X93942725Y-54553920D02*
X93943102Y-54488855D01*
X93943102Y-54488855D02*
X93920692Y-54419864D01*
X93920692Y-54419864D02*
X93882895Y-54366074D01*
X93882895Y-54366074D02*
X93864989Y-54353024D01*
X93864989Y-54353024D02*
X93833970Y-54347614D01*
X93833970Y-54347614D02*
X93765200Y-54342837D01*
X93765200Y-54342837D02*
X93663256Y-54338824D01*
X93663256Y-54338824D02*
X93532717Y-54335708D01*
X93532717Y-54335708D02*
X93378160Y-54333623D01*
X93378160Y-54333623D02*
X93204165Y-54332700D01*
X93204165Y-54332700D02*
X93162498Y-54332667D01*
X93162498Y-54332667D02*
X92498046Y-54332667D01*
X92498046Y-54332667D02*
X92449906Y-54383909D01*
X92449906Y-54383909D02*
X92449906Y-54383909D01*
G36*
X93204165Y-54332700D02*
G01*
X93378160Y-54333623D01*
X93532717Y-54335708D01*
X93663256Y-54338824D01*
X93765200Y-54342837D01*
X93833970Y-54347614D01*
X93864989Y-54353024D01*
X93882895Y-54366074D01*
X93920692Y-54419864D01*
X93943102Y-54488855D01*
X93942725Y-54553920D01*
X93922549Y-54599318D01*
X93883419Y-54649581D01*
X93879479Y-54653172D01*
X93864439Y-54664456D01*
X93844542Y-54673349D01*
X93815103Y-54680135D01*
X93771439Y-54685097D01*
X93708865Y-54688520D01*
X93622695Y-54690687D01*
X93508247Y-54691884D01*
X93360834Y-54692393D01*
X93175773Y-54692500D01*
X93053657Y-54692483D01*
X92893499Y-54692247D01*
X92767908Y-54691473D01*
X92672138Y-54689842D01*
X92601442Y-54687034D01*
X92551076Y-54682729D01*
X92516292Y-54676607D01*
X92492346Y-54668349D01*
X92474490Y-54657636D01*
X92457980Y-54644147D01*
X92426798Y-54607861D01*
X92401176Y-54533822D01*
X92408737Y-54454602D01*
X92449906Y-54383909D01*
X92498046Y-54332667D01*
X93162498Y-54332667D01*
X93204165Y-54332700D01*
G37*
X93204165Y-54332700D02*
X93378160Y-54333623D01*
X93532717Y-54335708D01*
X93663256Y-54338824D01*
X93765200Y-54342837D01*
X93833970Y-54347614D01*
X93864989Y-54353024D01*
X93882895Y-54366074D01*
X93920692Y-54419864D01*
X93943102Y-54488855D01*
X93942725Y-54553920D01*
X93922549Y-54599318D01*
X93883419Y-54649581D01*
X93879479Y-54653172D01*
X93864439Y-54664456D01*
X93844542Y-54673349D01*
X93815103Y-54680135D01*
X93771439Y-54685097D01*
X93708865Y-54688520D01*
X93622695Y-54690687D01*
X93508247Y-54691884D01*
X93360834Y-54692393D01*
X93175773Y-54692500D01*
X93053657Y-54692483D01*
X92893499Y-54692247D01*
X92767908Y-54691473D01*
X92672138Y-54689842D01*
X92601442Y-54687034D01*
X92551076Y-54682729D01*
X92516292Y-54676607D01*
X92492346Y-54668349D01*
X92474490Y-54657636D01*
X92457980Y-54644147D01*
X92426798Y-54607861D01*
X92401176Y-54533822D01*
X92408737Y-54454602D01*
X92449906Y-54383909D01*
X92498046Y-54332667D01*
X93162498Y-54332667D01*
X93204165Y-54332700D01*
X97408778Y-53888590D02*
X97257847Y-53889788D01*
X97257847Y-53889788D02*
X97125074Y-53891654D01*
X97125074Y-53891654D02*
X97015925Y-53894082D01*
X97015925Y-53894082D02*
X96935867Y-53896965D01*
X96935867Y-53896965D02*
X96890368Y-53900195D01*
X96890368Y-53900195D02*
X96882860Y-53901637D01*
X96882860Y-53901637D02*
X96848465Y-53930778D01*
X96848465Y-53930778D02*
X96828736Y-53965137D01*
X96828736Y-53965137D02*
X96809715Y-54015167D01*
X96809715Y-54015167D02*
X96059023Y-54015167D01*
X96059023Y-54015167D02*
X95839938Y-54015770D01*
X95839938Y-54015770D02*
X95655667Y-54017554D01*
X95655667Y-54017554D02*
X95507674Y-54020477D01*
X95507674Y-54020477D02*
X95397425Y-54024498D01*
X95397425Y-54024498D02*
X95326381Y-54029577D01*
X95326381Y-54029577D02*
X95296009Y-54035672D01*
X95296009Y-54035672D02*
X95295133Y-54036523D01*
X95295133Y-54036523D02*
X95290079Y-54072474D01*
X95290079Y-54072474D02*
X95295310Y-54100023D01*
X95295310Y-54100023D02*
X95300140Y-54111199D01*
X95300140Y-54111199D02*
X95309596Y-54120202D01*
X95309596Y-54120202D02*
X95327881Y-54127268D01*
X95327881Y-54127268D02*
X95359197Y-54132629D01*
X95359197Y-54132629D02*
X95407746Y-54136523D01*
X95407746Y-54136523D02*
X95477732Y-54139181D01*
X95477732Y-54139181D02*
X95573355Y-54140841D01*
X95573355Y-54140841D02*
X95698819Y-54141735D01*
X95698819Y-54141735D02*
X95858325Y-54142099D01*
X95858325Y-54142099D02*
X96050184Y-54142167D01*
X96050184Y-54142167D02*
X96791682Y-54142167D01*
X96791682Y-54142167D02*
X96910318Y-54269167D01*
X96910318Y-54269167D02*
X98209849Y-54269167D01*
X98209849Y-54269167D02*
X98328485Y-54142167D01*
X98328485Y-54142167D02*
X99070664Y-54142167D01*
X99070664Y-54142167D02*
X99268287Y-54142037D01*
X99268287Y-54142037D02*
X99427776Y-54141512D01*
X99427776Y-54141512D02*
X99553330Y-54140387D01*
X99553330Y-54140387D02*
X99649149Y-54138459D01*
X99649149Y-54138459D02*
X99719432Y-54135522D01*
X99719432Y-54135522D02*
X99768377Y-54131372D01*
X99768377Y-54131372D02*
X99800185Y-54125806D01*
X99800185Y-54125806D02*
X99819055Y-54118618D01*
X99819055Y-54118618D02*
X99829185Y-54109604D01*
X99829185Y-54109604D02*
X99831895Y-54105125D01*
X99831895Y-54105125D02*
X99842745Y-54082175D01*
X99842745Y-54082175D02*
X99846852Y-54063503D01*
X99846852Y-54063503D02*
X99840489Y-54048667D01*
X99840489Y-54048667D02*
X99819929Y-54037227D01*
X99819929Y-54037227D02*
X99781444Y-54028741D01*
X99781444Y-54028741D02*
X99721309Y-54022768D01*
X99721309Y-54022768D02*
X99635795Y-54018867D01*
X99635795Y-54018867D02*
X99521177Y-54016598D01*
X99521177Y-54016598D02*
X99373726Y-54015519D01*
X99373726Y-54015519D02*
X99189717Y-54015189D01*
X99189717Y-54015189D02*
X99071736Y-54015167D01*
X99071736Y-54015167D02*
X98849714Y-54014582D01*
X98849714Y-54014582D02*
X98664403Y-54012850D01*
X98664403Y-54012850D02*
X98516892Y-54010000D01*
X98516892Y-54010000D02*
X98408268Y-54006063D01*
X98408268Y-54006063D02*
X98339619Y-54001068D01*
X98339619Y-54001068D02*
X98312031Y-53995047D01*
X98312031Y-53995047D02*
X98311500Y-53994000D01*
X98311500Y-53994000D02*
X98297838Y-53964799D01*
X98297838Y-53964799D02*
X98269167Y-53930500D01*
X98269167Y-53930500D02*
X98255537Y-53918606D01*
X98255537Y-53918606D02*
X98237964Y-53909173D01*
X98237964Y-53909173D02*
X98211761Y-53901918D01*
X98211761Y-53901918D02*
X98172242Y-53896556D01*
X98172242Y-53896556D02*
X98114722Y-53892802D01*
X98114722Y-53892802D02*
X98034514Y-53890371D01*
X98034514Y-53890371D02*
X97926931Y-53888978D01*
X97926931Y-53888978D02*
X97787289Y-53888339D01*
X97787289Y-53888339D02*
X97610900Y-53888169D01*
X97610900Y-53888169D02*
X97572398Y-53888167D01*
X97572398Y-53888167D02*
X97408778Y-53888590D01*
X97408778Y-53888590D02*
X97408778Y-53888590D01*
G36*
X97610900Y-53888169D02*
G01*
X97787289Y-53888339D01*
X97926931Y-53888978D01*
X98034514Y-53890371D01*
X98114722Y-53892802D01*
X98172242Y-53896556D01*
X98211761Y-53901918D01*
X98237964Y-53909173D01*
X98255537Y-53918606D01*
X98269167Y-53930500D01*
X98297838Y-53964799D01*
X98311500Y-53994000D01*
X98312031Y-53995047D01*
X98339619Y-54001068D01*
X98408268Y-54006063D01*
X98516892Y-54010000D01*
X98664403Y-54012850D01*
X98849714Y-54014582D01*
X99071736Y-54015167D01*
X99189717Y-54015189D01*
X99373726Y-54015519D01*
X99521177Y-54016598D01*
X99635795Y-54018867D01*
X99721309Y-54022768D01*
X99781444Y-54028741D01*
X99819929Y-54037227D01*
X99840489Y-54048667D01*
X99846852Y-54063503D01*
X99842745Y-54082175D01*
X99831895Y-54105125D01*
X99829185Y-54109604D01*
X99819055Y-54118618D01*
X99800185Y-54125806D01*
X99768377Y-54131372D01*
X99719432Y-54135522D01*
X99649149Y-54138459D01*
X99553330Y-54140387D01*
X99427776Y-54141512D01*
X99268287Y-54142037D01*
X99070664Y-54142167D01*
X98328485Y-54142167D01*
X98209849Y-54269167D01*
X96910318Y-54269167D01*
X96791682Y-54142167D01*
X96050184Y-54142167D01*
X95858325Y-54142099D01*
X95698819Y-54141735D01*
X95573355Y-54140841D01*
X95477732Y-54139181D01*
X95407746Y-54136523D01*
X95359197Y-54132629D01*
X95327881Y-54127268D01*
X95309596Y-54120202D01*
X95300140Y-54111199D01*
X95295310Y-54100023D01*
X95290079Y-54072474D01*
X95295133Y-54036523D01*
X95296009Y-54035672D01*
X95326381Y-54029577D01*
X95397425Y-54024498D01*
X95507674Y-54020477D01*
X95655667Y-54017554D01*
X95839938Y-54015770D01*
X96059023Y-54015167D01*
X96809715Y-54015167D01*
X96828736Y-53965137D01*
X96848465Y-53930778D01*
X96882860Y-53901637D01*
X96890368Y-53900195D01*
X96935867Y-53896965D01*
X97015925Y-53894082D01*
X97125074Y-53891654D01*
X97257847Y-53889788D01*
X97408778Y-53888590D01*
X97572398Y-53888167D01*
X97610900Y-53888169D01*
G37*
X97610900Y-53888169D02*
X97787289Y-53888339D01*
X97926931Y-53888978D01*
X98034514Y-53890371D01*
X98114722Y-53892802D01*
X98172242Y-53896556D01*
X98211761Y-53901918D01*
X98237964Y-53909173D01*
X98255537Y-53918606D01*
X98269167Y-53930500D01*
X98297838Y-53964799D01*
X98311500Y-53994000D01*
X98312031Y-53995047D01*
X98339619Y-54001068D01*
X98408268Y-54006063D01*
X98516892Y-54010000D01*
X98664403Y-54012850D01*
X98849714Y-54014582D01*
X99071736Y-54015167D01*
X99189717Y-54015189D01*
X99373726Y-54015519D01*
X99521177Y-54016598D01*
X99635795Y-54018867D01*
X99721309Y-54022768D01*
X99781444Y-54028741D01*
X99819929Y-54037227D01*
X99840489Y-54048667D01*
X99846852Y-54063503D01*
X99842745Y-54082175D01*
X99831895Y-54105125D01*
X99829185Y-54109604D01*
X99819055Y-54118618D01*
X99800185Y-54125806D01*
X99768377Y-54131372D01*
X99719432Y-54135522D01*
X99649149Y-54138459D01*
X99553330Y-54140387D01*
X99427776Y-54141512D01*
X99268287Y-54142037D01*
X99070664Y-54142167D01*
X98328485Y-54142167D01*
X98209849Y-54269167D01*
X96910318Y-54269167D01*
X96791682Y-54142167D01*
X96050184Y-54142167D01*
X95858325Y-54142099D01*
X95698819Y-54141735D01*
X95573355Y-54140841D01*
X95477732Y-54139181D01*
X95407746Y-54136523D01*
X95359197Y-54132629D01*
X95327881Y-54127268D01*
X95309596Y-54120202D01*
X95300140Y-54111199D01*
X95295310Y-54100023D01*
X95290079Y-54072474D01*
X95295133Y-54036523D01*
X95296009Y-54035672D01*
X95326381Y-54029577D01*
X95397425Y-54024498D01*
X95507674Y-54020477D01*
X95655667Y-54017554D01*
X95839938Y-54015770D01*
X96059023Y-54015167D01*
X96809715Y-54015167D01*
X96828736Y-53965137D01*
X96848465Y-53930778D01*
X96882860Y-53901637D01*
X96890368Y-53900195D01*
X96935867Y-53896965D01*
X97015925Y-53894082D01*
X97125074Y-53891654D01*
X97257847Y-53889788D01*
X97408778Y-53888590D01*
X97572398Y-53888167D01*
X97610900Y-53888169D01*
X92984996Y-53888462D02*
X92833561Y-53889483D01*
X92833561Y-53889483D02*
X92715609Y-53891428D01*
X92715609Y-53891428D02*
X92626716Y-53894495D01*
X92626716Y-53894495D02*
X92562459Y-53898884D01*
X92562459Y-53898884D02*
X92518414Y-53904795D01*
X92518414Y-53904795D02*
X92490157Y-53912426D01*
X92490157Y-53912426D02*
X92476396Y-53919586D01*
X92476396Y-53919586D02*
X92425485Y-53977675D01*
X92425485Y-53977675D02*
X92403128Y-54051825D01*
X92403128Y-54051825D02*
X92408770Y-54129228D01*
X92408770Y-54129228D02*
X92441854Y-54197072D01*
X92441854Y-54197072D02*
X92490152Y-54237150D01*
X92490152Y-54237150D02*
X92530057Y-54246685D01*
X92530057Y-54246685D02*
X92605512Y-54254716D01*
X92605512Y-54254716D02*
X92709762Y-54261219D01*
X92709762Y-54261219D02*
X92836050Y-54266169D01*
X92836050Y-54266169D02*
X92977620Y-54269544D01*
X92977620Y-54269544D02*
X93127715Y-54271318D01*
X93127715Y-54271318D02*
X93279578Y-54271468D01*
X93279578Y-54271468D02*
X93426454Y-54269969D01*
X93426454Y-54269969D02*
X93561585Y-54266798D01*
X93561585Y-54266798D02*
X93678215Y-54261930D01*
X93678215Y-54261930D02*
X93769589Y-54255341D01*
X93769589Y-54255341D02*
X93828948Y-54247008D01*
X93828948Y-54247008D02*
X93844916Y-54241979D01*
X93844916Y-54241979D02*
X93910896Y-54188182D01*
X93910896Y-54188182D02*
X93943541Y-54116931D01*
X93943541Y-54116931D02*
X93941246Y-54038801D01*
X93941246Y-54038801D02*
X93902402Y-53964366D01*
X93902402Y-53964366D02*
X93889295Y-53950038D01*
X93889295Y-53950038D02*
X93827423Y-53888167D01*
X93827423Y-53888167D02*
X93174338Y-53888167D01*
X93174338Y-53888167D02*
X92984996Y-53888462D01*
X92984996Y-53888462D02*
X92984996Y-53888462D01*
G36*
X93889295Y-53950038D02*
G01*
X93902402Y-53964366D01*
X93941246Y-54038801D01*
X93943541Y-54116931D01*
X93910896Y-54188182D01*
X93844916Y-54241979D01*
X93828948Y-54247008D01*
X93769589Y-54255341D01*
X93678215Y-54261930D01*
X93561585Y-54266798D01*
X93426454Y-54269969D01*
X93279578Y-54271468D01*
X93127715Y-54271318D01*
X92977620Y-54269544D01*
X92836050Y-54266169D01*
X92709762Y-54261219D01*
X92605512Y-54254716D01*
X92530057Y-54246685D01*
X92490152Y-54237150D01*
X92441854Y-54197072D01*
X92408770Y-54129228D01*
X92403128Y-54051825D01*
X92425485Y-53977675D01*
X92476396Y-53919586D01*
X92490157Y-53912426D01*
X92518414Y-53904795D01*
X92562459Y-53898884D01*
X92626716Y-53894495D01*
X92715609Y-53891428D01*
X92833561Y-53889483D01*
X92984996Y-53888462D01*
X93174338Y-53888167D01*
X93827423Y-53888167D01*
X93889295Y-53950038D01*
G37*
X93889295Y-53950038D02*
X93902402Y-53964366D01*
X93941246Y-54038801D01*
X93943541Y-54116931D01*
X93910896Y-54188182D01*
X93844916Y-54241979D01*
X93828948Y-54247008D01*
X93769589Y-54255341D01*
X93678215Y-54261930D01*
X93561585Y-54266798D01*
X93426454Y-54269969D01*
X93279578Y-54271468D01*
X93127715Y-54271318D01*
X92977620Y-54269544D01*
X92836050Y-54266169D01*
X92709762Y-54261219D01*
X92605512Y-54254716D01*
X92530057Y-54246685D01*
X92490152Y-54237150D01*
X92441854Y-54197072D01*
X92408770Y-54129228D01*
X92403128Y-54051825D01*
X92425485Y-53977675D01*
X92476396Y-53919586D01*
X92490157Y-53912426D01*
X92518414Y-53904795D01*
X92562459Y-53898884D01*
X92626716Y-53894495D01*
X92715609Y-53891428D01*
X92833561Y-53889483D01*
X92984996Y-53888462D01*
X93174338Y-53888167D01*
X93827423Y-53888167D01*
X93889295Y-53950038D01*
X96791682Y-53570667D02*
X96050184Y-53570667D01*
X96050184Y-53570667D02*
X95853524Y-53570739D01*
X95853524Y-53570739D02*
X95694994Y-53571114D01*
X95694994Y-53571114D02*
X95570394Y-53572026D01*
X95570394Y-53572026D02*
X95475519Y-53573709D01*
X95475519Y-53573709D02*
X95406169Y-53576399D01*
X95406169Y-53576399D02*
X95358141Y-53580328D01*
X95358141Y-53580328D02*
X95327233Y-53585733D01*
X95327233Y-53585733D02*
X95309243Y-53592848D01*
X95309243Y-53592848D02*
X95299967Y-53601907D01*
X95299967Y-53601907D02*
X95295310Y-53612810D01*
X95295310Y-53612810D02*
X95290033Y-53656844D01*
X95290033Y-53656844D02*
X95295133Y-53676310D01*
X95295133Y-53676310D02*
X95320201Y-53682534D01*
X95320201Y-53682534D02*
X95386124Y-53687746D01*
X95386124Y-53687746D02*
X95491439Y-53691905D01*
X95491439Y-53691905D02*
X95634678Y-53694971D01*
X95634678Y-53694971D02*
X95814376Y-53696902D01*
X95814376Y-53696902D02*
X96029067Y-53697657D01*
X96029067Y-53697657D02*
X96058499Y-53697667D01*
X96058499Y-53697667D02*
X96278790Y-53698258D01*
X96278790Y-53698258D02*
X96462433Y-53700013D01*
X96462433Y-53700013D02*
X96608320Y-53702899D01*
X96608320Y-53702899D02*
X96715343Y-53706886D01*
X96715343Y-53706886D02*
X96782393Y-53711942D01*
X96782393Y-53711942D02*
X96808364Y-53718035D01*
X96808364Y-53718035D02*
X96808667Y-53718833D01*
X96808667Y-53718833D02*
X96822329Y-53748034D01*
X96822329Y-53748034D02*
X96851000Y-53782333D01*
X96851000Y-53782333D02*
X96864503Y-53794128D01*
X96864503Y-53794128D02*
X96881911Y-53803504D01*
X96881911Y-53803504D02*
X96907861Y-53810737D01*
X96907861Y-53810737D02*
X96946990Y-53816106D01*
X96946990Y-53816106D02*
X97003936Y-53819886D01*
X97003936Y-53819886D02*
X97083336Y-53822355D01*
X97083336Y-53822355D02*
X97189827Y-53823789D01*
X97189827Y-53823789D02*
X97328046Y-53824465D01*
X97328046Y-53824465D02*
X97502631Y-53824660D01*
X97502631Y-53824660D02*
X97560083Y-53824667D01*
X97560083Y-53824667D02*
X97745957Y-53824558D01*
X97745957Y-53824558D02*
X97894135Y-53824048D01*
X97894135Y-53824048D02*
X98009254Y-53822860D01*
X98009254Y-53822860D02*
X98095952Y-53820716D01*
X98095952Y-53820716D02*
X98158865Y-53817341D01*
X98158865Y-53817341D02*
X98202632Y-53812456D01*
X98202632Y-53812456D02*
X98231888Y-53805786D01*
X98231888Y-53805786D02*
X98251272Y-53797053D01*
X98251272Y-53797053D02*
X98265421Y-53785981D01*
X98265421Y-53785981D02*
X98269167Y-53782333D01*
X98269167Y-53782333D02*
X98300244Y-53744425D01*
X98300244Y-53744425D02*
X98311500Y-53718833D01*
X98311500Y-53718833D02*
X98332480Y-53712650D01*
X98332480Y-53712650D02*
X98394692Y-53707489D01*
X98394692Y-53707489D02*
X98497050Y-53703382D01*
X98497050Y-53703382D02*
X98638463Y-53700358D01*
X98638463Y-53700358D02*
X98817845Y-53698447D01*
X98817845Y-53698447D02*
X99034106Y-53697681D01*
X99034106Y-53697681D02*
X99071236Y-53697667D01*
X99071236Y-53697667D02*
X99272073Y-53697513D01*
X99272073Y-53697513D02*
X99434646Y-53696931D01*
X99434646Y-53696931D02*
X99563026Y-53695739D01*
X99563026Y-53695739D02*
X99661279Y-53693757D01*
X99661279Y-53693757D02*
X99733477Y-53690803D01*
X99733477Y-53690803D02*
X99783687Y-53686696D01*
X99783687Y-53686696D02*
X99815980Y-53681254D01*
X99815980Y-53681254D02*
X99834423Y-53674296D01*
X99834423Y-53674296D02*
X99843086Y-53665641D01*
X99843086Y-53665641D02*
X99844184Y-53663234D01*
X99844184Y-53663234D02*
X99851604Y-53639761D01*
X99851604Y-53639761D02*
X99851578Y-53620627D01*
X99851578Y-53620627D02*
X99840367Y-53605390D01*
X99840367Y-53605390D02*
X99814231Y-53593608D01*
X99814231Y-53593608D02*
X99769431Y-53584837D01*
X99769431Y-53584837D02*
X99702227Y-53578636D01*
X99702227Y-53578636D02*
X99608881Y-53574562D01*
X99608881Y-53574562D02*
X99485653Y-53572174D01*
X99485653Y-53572174D02*
X99328803Y-53571027D01*
X99328803Y-53571027D02*
X99134593Y-53570681D01*
X99134593Y-53570681D02*
X99061751Y-53570667D01*
X99061751Y-53570667D02*
X98864307Y-53570607D01*
X98864307Y-53570607D02*
X98705007Y-53570268D01*
X98705007Y-53570268D02*
X98579662Y-53569409D01*
X98579662Y-53569409D02*
X98484081Y-53567793D01*
X98484081Y-53567793D02*
X98414076Y-53565177D01*
X98414076Y-53565177D02*
X98365457Y-53561324D01*
X98365457Y-53561324D02*
X98334034Y-53555993D01*
X98334034Y-53555993D02*
X98315619Y-53548945D01*
X98315619Y-53548945D02*
X98306022Y-53539940D01*
X98306022Y-53539940D02*
X98301053Y-53528738D01*
X98301053Y-53528738D02*
X98300532Y-53527121D01*
X98300532Y-53527121D02*
X98271117Y-53486611D01*
X98271117Y-53486611D02*
X98234228Y-53463621D01*
X98234228Y-53463621D02*
X98200295Y-53458580D01*
X98200295Y-53458580D02*
X98129784Y-53454007D01*
X98129784Y-53454007D02*
X98028453Y-53450069D01*
X98028453Y-53450069D02*
X97902054Y-53446932D01*
X97902054Y-53446932D02*
X97756344Y-53444764D01*
X97756344Y-53444764D02*
X97597079Y-53443730D01*
X97597079Y-53443730D02*
X97546031Y-53443667D01*
X97546031Y-53443667D02*
X96910318Y-53443667D01*
X96910318Y-53443667D02*
X96791682Y-53570667D01*
X96791682Y-53570667D02*
X96791682Y-53570667D01*
G36*
X97597079Y-53443730D02*
G01*
X97756344Y-53444764D01*
X97902054Y-53446932D01*
X98028453Y-53450069D01*
X98129784Y-53454007D01*
X98200295Y-53458580D01*
X98234228Y-53463621D01*
X98271117Y-53486611D01*
X98300532Y-53527121D01*
X98301053Y-53528738D01*
X98306022Y-53539940D01*
X98315619Y-53548945D01*
X98334034Y-53555993D01*
X98365457Y-53561324D01*
X98414076Y-53565177D01*
X98484081Y-53567793D01*
X98579662Y-53569409D01*
X98705007Y-53570268D01*
X98864307Y-53570607D01*
X99061751Y-53570667D01*
X99134593Y-53570681D01*
X99328803Y-53571027D01*
X99485653Y-53572174D01*
X99608881Y-53574562D01*
X99702227Y-53578636D01*
X99769431Y-53584837D01*
X99814231Y-53593608D01*
X99840367Y-53605390D01*
X99851578Y-53620627D01*
X99851604Y-53639761D01*
X99844184Y-53663234D01*
X99843086Y-53665641D01*
X99834423Y-53674296D01*
X99815980Y-53681254D01*
X99783687Y-53686696D01*
X99733477Y-53690803D01*
X99661279Y-53693757D01*
X99563026Y-53695739D01*
X99434646Y-53696931D01*
X99272073Y-53697513D01*
X99071236Y-53697667D01*
X99034106Y-53697681D01*
X98817845Y-53698447D01*
X98638463Y-53700358D01*
X98497050Y-53703382D01*
X98394692Y-53707489D01*
X98332480Y-53712650D01*
X98311500Y-53718833D01*
X98300244Y-53744425D01*
X98269167Y-53782333D01*
X98265421Y-53785981D01*
X98251272Y-53797053D01*
X98231888Y-53805786D01*
X98202632Y-53812456D01*
X98158865Y-53817341D01*
X98095952Y-53820716D01*
X98009254Y-53822860D01*
X97894135Y-53824048D01*
X97745957Y-53824558D01*
X97560083Y-53824667D01*
X97502631Y-53824660D01*
X97328046Y-53824465D01*
X97189827Y-53823789D01*
X97083336Y-53822355D01*
X97003936Y-53819886D01*
X96946990Y-53816106D01*
X96907861Y-53810737D01*
X96881911Y-53803504D01*
X96864503Y-53794128D01*
X96851000Y-53782333D01*
X96822329Y-53748034D01*
X96808667Y-53718833D01*
X96808364Y-53718035D01*
X96782393Y-53711942D01*
X96715343Y-53706886D01*
X96608320Y-53702899D01*
X96462433Y-53700013D01*
X96278790Y-53698258D01*
X96058499Y-53697667D01*
X96029067Y-53697657D01*
X95814376Y-53696902D01*
X95634678Y-53694971D01*
X95491439Y-53691905D01*
X95386124Y-53687746D01*
X95320201Y-53682534D01*
X95295133Y-53676310D01*
X95290033Y-53656844D01*
X95295310Y-53612810D01*
X95299967Y-53601907D01*
X95309243Y-53592848D01*
X95327233Y-53585733D01*
X95358141Y-53580328D01*
X95406169Y-53576399D01*
X95475519Y-53573709D01*
X95570394Y-53572026D01*
X95694994Y-53571114D01*
X95853524Y-53570739D01*
X96050184Y-53570667D01*
X96791682Y-53570667D01*
X96910318Y-53443667D01*
X97546031Y-53443667D01*
X97597079Y-53443730D01*
G37*
X97597079Y-53443730D02*
X97756344Y-53444764D01*
X97902054Y-53446932D01*
X98028453Y-53450069D01*
X98129784Y-53454007D01*
X98200295Y-53458580D01*
X98234228Y-53463621D01*
X98271117Y-53486611D01*
X98300532Y-53527121D01*
X98301053Y-53528738D01*
X98306022Y-53539940D01*
X98315619Y-53548945D01*
X98334034Y-53555993D01*
X98365457Y-53561324D01*
X98414076Y-53565177D01*
X98484081Y-53567793D01*
X98579662Y-53569409D01*
X98705007Y-53570268D01*
X98864307Y-53570607D01*
X99061751Y-53570667D01*
X99134593Y-53570681D01*
X99328803Y-53571027D01*
X99485653Y-53572174D01*
X99608881Y-53574562D01*
X99702227Y-53578636D01*
X99769431Y-53584837D01*
X99814231Y-53593608D01*
X99840367Y-53605390D01*
X99851578Y-53620627D01*
X99851604Y-53639761D01*
X99844184Y-53663234D01*
X99843086Y-53665641D01*
X99834423Y-53674296D01*
X99815980Y-53681254D01*
X99783687Y-53686696D01*
X99733477Y-53690803D01*
X99661279Y-53693757D01*
X99563026Y-53695739D01*
X99434646Y-53696931D01*
X99272073Y-53697513D01*
X99071236Y-53697667D01*
X99034106Y-53697681D01*
X98817845Y-53698447D01*
X98638463Y-53700358D01*
X98497050Y-53703382D01*
X98394692Y-53707489D01*
X98332480Y-53712650D01*
X98311500Y-53718833D01*
X98300244Y-53744425D01*
X98269167Y-53782333D01*
X98265421Y-53785981D01*
X98251272Y-53797053D01*
X98231888Y-53805786D01*
X98202632Y-53812456D01*
X98158865Y-53817341D01*
X98095952Y-53820716D01*
X98009254Y-53822860D01*
X97894135Y-53824048D01*
X97745957Y-53824558D01*
X97560083Y-53824667D01*
X97502631Y-53824660D01*
X97328046Y-53824465D01*
X97189827Y-53823789D01*
X97083336Y-53822355D01*
X97003936Y-53819886D01*
X96946990Y-53816106D01*
X96907861Y-53810737D01*
X96881911Y-53803504D01*
X96864503Y-53794128D01*
X96851000Y-53782333D01*
X96822329Y-53748034D01*
X96808667Y-53718833D01*
X96808364Y-53718035D01*
X96782393Y-53711942D01*
X96715343Y-53706886D01*
X96608320Y-53702899D01*
X96462433Y-53700013D01*
X96278790Y-53698258D01*
X96058499Y-53697667D01*
X96029067Y-53697657D01*
X95814376Y-53696902D01*
X95634678Y-53694971D01*
X95491439Y-53691905D01*
X95386124Y-53687746D01*
X95320201Y-53682534D01*
X95295133Y-53676310D01*
X95290033Y-53656844D01*
X95295310Y-53612810D01*
X95299967Y-53601907D01*
X95309243Y-53592848D01*
X95327233Y-53585733D01*
X95358141Y-53580328D01*
X95406169Y-53576399D01*
X95475519Y-53573709D01*
X95570394Y-53572026D01*
X95694994Y-53571114D01*
X95853524Y-53570739D01*
X96050184Y-53570667D01*
X96791682Y-53570667D01*
X96910318Y-53443667D01*
X97546031Y-53443667D01*
X97597079Y-53443730D01*
X92746592Y-53446856D02*
X92658086Y-53449025D01*
X92658086Y-53449025D02*
X92592984Y-53452781D01*
X92592984Y-53452781D02*
X92546555Y-53458302D01*
X92546555Y-53458302D02*
X92514070Y-53465767D01*
X92514070Y-53465767D02*
X92491845Y-53474807D01*
X92491845Y-53474807D02*
X92434409Y-53526441D01*
X92434409Y-53526441D02*
X92404298Y-53600590D01*
X92404298Y-53600590D02*
X92406156Y-53684025D01*
X92406156Y-53684025D02*
X92411645Y-53703289D01*
X92411645Y-53703289D02*
X92423703Y-53735870D01*
X92423703Y-53735870D02*
X92438343Y-53762028D01*
X92438343Y-53762028D02*
X92459994Y-53782468D01*
X92459994Y-53782468D02*
X92493087Y-53797895D01*
X92493087Y-53797895D02*
X92542052Y-53809015D01*
X92542052Y-53809015D02*
X92611317Y-53816531D01*
X92611317Y-53816531D02*
X92705313Y-53821149D01*
X92705313Y-53821149D02*
X92828470Y-53823575D01*
X92828470Y-53823575D02*
X92985216Y-53824512D01*
X92985216Y-53824512D02*
X93174338Y-53824667D01*
X93174338Y-53824667D02*
X93827423Y-53824667D01*
X93827423Y-53824667D02*
X93891905Y-53760185D01*
X93891905Y-53760185D02*
X93933177Y-53712416D01*
X93933177Y-53712416D02*
X93947749Y-53669954D01*
X93947749Y-53669954D02*
X93943871Y-53618575D01*
X93943871Y-53618575D02*
X93923325Y-53553673D01*
X93923325Y-53553673D02*
X93890383Y-53500560D01*
X93890383Y-53500560D02*
X93887785Y-53497849D01*
X93887785Y-53497849D02*
X93873779Y-53485500D01*
X93873779Y-53485500D02*
X93856020Y-53475663D01*
X93856020Y-53475663D02*
X93829774Y-53467995D01*
X93829774Y-53467995D02*
X93790302Y-53462155D01*
X93790302Y-53462155D02*
X93732869Y-53457798D01*
X93732869Y-53457798D02*
X93652737Y-53454584D01*
X93652737Y-53454584D02*
X93545170Y-53452167D01*
X93545170Y-53452167D02*
X93405431Y-53450208D01*
X93405431Y-53450208D02*
X93228782Y-53448361D01*
X93228782Y-53448361D02*
X93199833Y-53448083D01*
X93199833Y-53448083D02*
X93012735Y-53446563D01*
X93012735Y-53446563D02*
X92863232Y-53446094D01*
X92863232Y-53446094D02*
X92746592Y-53446856D01*
X92746592Y-53446856D02*
X92746592Y-53446856D01*
G36*
X93012735Y-53446563D02*
G01*
X93199833Y-53448083D01*
X93228782Y-53448361D01*
X93405431Y-53450208D01*
X93545170Y-53452167D01*
X93652737Y-53454584D01*
X93732869Y-53457798D01*
X93790302Y-53462155D01*
X93829774Y-53467995D01*
X93856020Y-53475663D01*
X93873779Y-53485500D01*
X93887785Y-53497849D01*
X93890383Y-53500560D01*
X93923325Y-53553673D01*
X93943871Y-53618575D01*
X93947749Y-53669954D01*
X93933177Y-53712416D01*
X93891905Y-53760185D01*
X93827423Y-53824667D01*
X93174338Y-53824667D01*
X92985216Y-53824512D01*
X92828470Y-53823575D01*
X92705313Y-53821149D01*
X92611317Y-53816531D01*
X92542052Y-53809015D01*
X92493087Y-53797895D01*
X92459994Y-53782468D01*
X92438343Y-53762028D01*
X92423703Y-53735870D01*
X92411645Y-53703289D01*
X92406156Y-53684025D01*
X92404298Y-53600590D01*
X92434409Y-53526441D01*
X92491845Y-53474807D01*
X92514070Y-53465767D01*
X92546555Y-53458302D01*
X92592984Y-53452781D01*
X92658086Y-53449025D01*
X92746592Y-53446856D01*
X92863232Y-53446094D01*
X93012735Y-53446563D01*
G37*
X93012735Y-53446563D02*
X93199833Y-53448083D01*
X93228782Y-53448361D01*
X93405431Y-53450208D01*
X93545170Y-53452167D01*
X93652737Y-53454584D01*
X93732869Y-53457798D01*
X93790302Y-53462155D01*
X93829774Y-53467995D01*
X93856020Y-53475663D01*
X93873779Y-53485500D01*
X93887785Y-53497849D01*
X93890383Y-53500560D01*
X93923325Y-53553673D01*
X93943871Y-53618575D01*
X93947749Y-53669954D01*
X93933177Y-53712416D01*
X93891905Y-53760185D01*
X93827423Y-53824667D01*
X93174338Y-53824667D01*
X92985216Y-53824512D01*
X92828470Y-53823575D01*
X92705313Y-53821149D01*
X92611317Y-53816531D01*
X92542052Y-53809015D01*
X92493087Y-53797895D01*
X92459994Y-53782468D01*
X92438343Y-53762028D01*
X92423703Y-53735870D01*
X92411645Y-53703289D01*
X92406156Y-53684025D01*
X92404298Y-53600590D01*
X92434409Y-53526441D01*
X92491845Y-53474807D01*
X92514070Y-53465767D01*
X92546555Y-53458302D01*
X92592984Y-53452781D01*
X92658086Y-53449025D01*
X92746592Y-53446856D01*
X92863232Y-53446094D01*
X93012735Y-53446563D01*
X96838470Y-53073250D02*
X96803798Y-53126167D01*
X96803798Y-53126167D02*
X96067991Y-53126167D01*
X96067991Y-53126167D02*
X95869487Y-53126355D01*
X95869487Y-53126355D02*
X95709129Y-53127042D01*
X95709129Y-53127042D02*
X95582732Y-53128413D01*
X95582732Y-53128413D02*
X95486110Y-53130651D01*
X95486110Y-53130651D02*
X95415078Y-53133938D01*
X95415078Y-53133938D02*
X95365450Y-53138461D01*
X95365450Y-53138461D02*
X95333040Y-53144401D01*
X95333040Y-53144401D02*
X95313662Y-53151943D01*
X95313662Y-53151943D02*
X95304361Y-53159691D01*
X95304361Y-53159691D02*
X95287973Y-53200390D01*
X95287973Y-53200390D02*
X95298777Y-53228482D01*
X95298777Y-53228482D02*
X95308152Y-53237939D01*
X95308152Y-53237939D02*
X95325936Y-53245638D01*
X95325936Y-53245638D02*
X95356306Y-53251805D01*
X95356306Y-53251805D02*
X95403442Y-53256661D01*
X95403442Y-53256661D02*
X95471522Y-53260432D01*
X95471522Y-53260432D02*
X95564725Y-53263339D01*
X95564725Y-53263339D02*
X95687228Y-53265606D01*
X95687228Y-53265606D02*
X95843211Y-53267457D01*
X95843211Y-53267457D02*
X96036852Y-53269115D01*
X96036852Y-53269115D02*
X96062583Y-53269310D01*
X96062583Y-53269310D02*
X96804150Y-53274870D01*
X96804150Y-53274870D02*
X96838646Y-53327518D01*
X96838646Y-53327518D02*
X96873143Y-53380167D01*
X96873143Y-53380167D02*
X98247024Y-53380167D01*
X98247024Y-53380167D02*
X98281697Y-53327250D01*
X98281697Y-53327250D02*
X98316369Y-53274333D01*
X98316369Y-53274333D02*
X99064606Y-53274333D01*
X99064606Y-53274333D02*
X99262460Y-53274244D01*
X99262460Y-53274244D02*
X99422208Y-53273828D01*
X99422208Y-53273828D02*
X99548076Y-53272859D01*
X99548076Y-53272859D02*
X99644292Y-53271115D01*
X99644292Y-53271115D02*
X99715082Y-53268370D01*
X99715082Y-53268370D02*
X99764674Y-53264400D01*
X99764674Y-53264400D02*
X99797295Y-53258982D01*
X99797295Y-53258982D02*
X99817170Y-53251890D01*
X99817170Y-53251890D02*
X99828529Y-53242901D01*
X99828529Y-53242901D02*
X99834713Y-53233470D01*
X99834713Y-53233470D02*
X99843949Y-53190838D01*
X99843949Y-53190838D02*
X99823363Y-53159386D01*
X99823363Y-53159386D02*
X99809986Y-53150417D01*
X99809986Y-53150417D02*
X99786858Y-53143190D01*
X99786858Y-53143190D02*
X99749780Y-53137524D01*
X99749780Y-53137524D02*
X99694553Y-53133239D01*
X99694553Y-53133239D02*
X99616978Y-53130153D01*
X99616978Y-53130153D02*
X99512858Y-53128084D01*
X99512858Y-53128084D02*
X99377992Y-53126853D01*
X99377992Y-53126853D02*
X99208183Y-53126277D01*
X99208183Y-53126277D02*
X99053256Y-53126167D01*
X99053256Y-53126167D02*
X98316369Y-53126167D01*
X98316369Y-53126167D02*
X98281697Y-53073250D01*
X98281697Y-53073250D02*
X98247024Y-53020333D01*
X98247024Y-53020333D02*
X96873143Y-53020333D01*
X96873143Y-53020333D02*
X96838470Y-53073250D01*
X96838470Y-53073250D02*
X96838470Y-53073250D01*
G36*
X98281697Y-53073250D02*
G01*
X98316369Y-53126167D01*
X99053256Y-53126167D01*
X99208183Y-53126277D01*
X99377992Y-53126853D01*
X99512858Y-53128084D01*
X99616978Y-53130153D01*
X99694553Y-53133239D01*
X99749780Y-53137524D01*
X99786858Y-53143190D01*
X99809986Y-53150417D01*
X99823363Y-53159386D01*
X99843949Y-53190838D01*
X99834713Y-53233470D01*
X99828529Y-53242901D01*
X99817170Y-53251890D01*
X99797295Y-53258982D01*
X99764674Y-53264400D01*
X99715082Y-53268370D01*
X99644292Y-53271115D01*
X99548076Y-53272859D01*
X99422208Y-53273828D01*
X99262460Y-53274244D01*
X99064606Y-53274333D01*
X98316369Y-53274333D01*
X98281697Y-53327250D01*
X98247024Y-53380167D01*
X96873143Y-53380167D01*
X96838646Y-53327518D01*
X96804150Y-53274870D01*
X96062583Y-53269310D01*
X96036852Y-53269115D01*
X95843211Y-53267457D01*
X95687228Y-53265606D01*
X95564725Y-53263339D01*
X95471522Y-53260432D01*
X95403442Y-53256661D01*
X95356306Y-53251805D01*
X95325936Y-53245638D01*
X95308152Y-53237939D01*
X95298777Y-53228482D01*
X95287973Y-53200390D01*
X95304361Y-53159691D01*
X95313662Y-53151943D01*
X95333040Y-53144401D01*
X95365450Y-53138461D01*
X95415078Y-53133938D01*
X95486110Y-53130651D01*
X95582732Y-53128413D01*
X95709129Y-53127042D01*
X95869487Y-53126355D01*
X96067991Y-53126167D01*
X96803798Y-53126167D01*
X96838470Y-53073250D01*
X96873143Y-53020333D01*
X98247024Y-53020333D01*
X98281697Y-53073250D01*
G37*
X98281697Y-53073250D02*
X98316369Y-53126167D01*
X99053256Y-53126167D01*
X99208183Y-53126277D01*
X99377992Y-53126853D01*
X99512858Y-53128084D01*
X99616978Y-53130153D01*
X99694553Y-53133239D01*
X99749780Y-53137524D01*
X99786858Y-53143190D01*
X99809986Y-53150417D01*
X99823363Y-53159386D01*
X99843949Y-53190838D01*
X99834713Y-53233470D01*
X99828529Y-53242901D01*
X99817170Y-53251890D01*
X99797295Y-53258982D01*
X99764674Y-53264400D01*
X99715082Y-53268370D01*
X99644292Y-53271115D01*
X99548076Y-53272859D01*
X99422208Y-53273828D01*
X99262460Y-53274244D01*
X99064606Y-53274333D01*
X98316369Y-53274333D01*
X98281697Y-53327250D01*
X98247024Y-53380167D01*
X96873143Y-53380167D01*
X96838646Y-53327518D01*
X96804150Y-53274870D01*
X96062583Y-53269310D01*
X96036852Y-53269115D01*
X95843211Y-53267457D01*
X95687228Y-53265606D01*
X95564725Y-53263339D01*
X95471522Y-53260432D01*
X95403442Y-53256661D01*
X95356306Y-53251805D01*
X95325936Y-53245638D01*
X95308152Y-53237939D01*
X95298777Y-53228482D01*
X95287973Y-53200390D01*
X95304361Y-53159691D01*
X95313662Y-53151943D01*
X95333040Y-53144401D01*
X95365450Y-53138461D01*
X95415078Y-53133938D01*
X95486110Y-53130651D01*
X95582732Y-53128413D01*
X95709129Y-53127042D01*
X95869487Y-53126355D01*
X96067991Y-53126167D01*
X96803798Y-53126167D01*
X96838470Y-53073250D01*
X96873143Y-53020333D01*
X98247024Y-53020333D01*
X98281697Y-53073250D01*
X92991141Y-53020394D02*
X92844098Y-53020788D01*
X92844098Y-53020788D02*
X92729895Y-53021837D01*
X92729895Y-53021837D02*
X92643789Y-53023859D01*
X92643789Y-53023859D02*
X92581032Y-53027174D01*
X92581032Y-53027174D02*
X92536879Y-53032103D01*
X92536879Y-53032103D02*
X92506583Y-53038964D01*
X92506583Y-53038964D02*
X92485400Y-53048077D01*
X92485400Y-53048077D02*
X92468583Y-53059762D01*
X92468583Y-53059762D02*
X92457980Y-53068686D01*
X92457980Y-53068686D02*
X92412622Y-53133019D01*
X92412622Y-53133019D02*
X92400191Y-53210769D01*
X92400191Y-53210769D02*
X92421112Y-53288230D01*
X92421112Y-53288230D02*
X92449906Y-53328924D01*
X92449906Y-53328924D02*
X92498046Y-53380167D01*
X92498046Y-53380167D02*
X93166398Y-53379523D01*
X93166398Y-53379523D02*
X93339986Y-53378735D01*
X93339986Y-53378735D02*
X93497076Y-53376814D01*
X93497076Y-53376814D02*
X93632824Y-53373901D01*
X93632824Y-53373901D02*
X93742389Y-53370140D01*
X93742389Y-53370140D02*
X93820926Y-53365672D01*
X93820926Y-53365672D02*
X93863594Y-53360640D01*
X93863594Y-53360640D02*
X93869016Y-53358858D01*
X93869016Y-53358858D02*
X93908797Y-53315837D01*
X93908797Y-53315837D02*
X93936862Y-53250405D01*
X93936862Y-53250405D02*
X93945955Y-53182247D01*
X93945955Y-53182247D02*
X93942725Y-53158913D01*
X93942725Y-53158913D02*
X93917040Y-53104629D01*
X93917040Y-53104629D02*
X93883419Y-53063252D01*
X93883419Y-53063252D02*
X93868896Y-53051254D01*
X93868896Y-53051254D02*
X93850815Y-53041726D01*
X93850815Y-53041726D02*
X93824492Y-53034385D01*
X93824492Y-53034385D02*
X93785242Y-53028946D01*
X93785242Y-53028946D02*
X93728380Y-53025125D01*
X93728380Y-53025125D02*
X93649223Y-53022637D01*
X93649223Y-53022637D02*
X93543085Y-53021200D01*
X93543085Y-53021200D02*
X93405282Y-53020529D01*
X93405282Y-53020529D02*
X93231130Y-53020339D01*
X93231130Y-53020339D02*
X93175773Y-53020333D01*
X93175773Y-53020333D02*
X92991141Y-53020394D01*
X92991141Y-53020394D02*
X92991141Y-53020394D01*
G36*
X93231130Y-53020339D02*
G01*
X93405282Y-53020529D01*
X93543085Y-53021200D01*
X93649223Y-53022637D01*
X93728380Y-53025125D01*
X93785242Y-53028946D01*
X93824492Y-53034385D01*
X93850815Y-53041726D01*
X93868896Y-53051254D01*
X93883419Y-53063252D01*
X93917040Y-53104629D01*
X93942725Y-53158913D01*
X93945955Y-53182247D01*
X93936862Y-53250405D01*
X93908797Y-53315837D01*
X93869016Y-53358858D01*
X93863594Y-53360640D01*
X93820926Y-53365672D01*
X93742389Y-53370140D01*
X93632824Y-53373901D01*
X93497076Y-53376814D01*
X93339986Y-53378735D01*
X93166398Y-53379523D01*
X92498046Y-53380167D01*
X92449906Y-53328924D01*
X92421112Y-53288230D01*
X92400191Y-53210769D01*
X92412622Y-53133019D01*
X92457980Y-53068686D01*
X92468583Y-53059762D01*
X92485400Y-53048077D01*
X92506583Y-53038964D01*
X92536879Y-53032103D01*
X92581032Y-53027174D01*
X92643789Y-53023859D01*
X92729895Y-53021837D01*
X92844098Y-53020788D01*
X92991141Y-53020394D01*
X93175773Y-53020333D01*
X93231130Y-53020339D01*
G37*
X93231130Y-53020339D02*
X93405282Y-53020529D01*
X93543085Y-53021200D01*
X93649223Y-53022637D01*
X93728380Y-53025125D01*
X93785242Y-53028946D01*
X93824492Y-53034385D01*
X93850815Y-53041726D01*
X93868896Y-53051254D01*
X93883419Y-53063252D01*
X93917040Y-53104629D01*
X93942725Y-53158913D01*
X93945955Y-53182247D01*
X93936862Y-53250405D01*
X93908797Y-53315837D01*
X93869016Y-53358858D01*
X93863594Y-53360640D01*
X93820926Y-53365672D01*
X93742389Y-53370140D01*
X93632824Y-53373901D01*
X93497076Y-53376814D01*
X93339986Y-53378735D01*
X93166398Y-53379523D01*
X92498046Y-53380167D01*
X92449906Y-53328924D01*
X92421112Y-53288230D01*
X92400191Y-53210769D01*
X92412622Y-53133019D01*
X92457980Y-53068686D01*
X92468583Y-53059762D01*
X92485400Y-53048077D01*
X92506583Y-53038964D01*
X92536879Y-53032103D01*
X92581032Y-53027174D01*
X92643789Y-53023859D01*
X92729895Y-53021837D01*
X92844098Y-53020788D01*
X92991141Y-53020394D01*
X93175773Y-53020333D01*
X93231130Y-53020339D01*
X93015813Y-52576534D02*
X92857581Y-52578540D01*
X92857581Y-52578540D02*
X92722286Y-52581703D01*
X92722286Y-52581703D02*
X92614738Y-52585877D01*
X92614738Y-52585877D02*
X92539749Y-52590917D01*
X92539749Y-52590917D02*
X92502128Y-52596674D01*
X92502128Y-52596674D02*
X92501604Y-52596865D01*
X92501604Y-52596865D02*
X92451690Y-52634211D01*
X92451690Y-52634211D02*
X92415276Y-52692115D01*
X92415276Y-52692115D02*
X92396449Y-52748599D01*
X92396449Y-52748599D02*
X92398808Y-52794826D01*
X92398808Y-52794826D02*
X92415276Y-52840551D01*
X92415276Y-52840551D02*
X92454418Y-52901465D01*
X92454418Y-52901465D02*
X92501604Y-52935801D01*
X92501604Y-52935801D02*
X92537975Y-52941579D01*
X92537975Y-52941579D02*
X92611864Y-52946643D01*
X92611864Y-52946643D02*
X92718463Y-52950847D01*
X92718463Y-52950847D02*
X92852960Y-52954044D01*
X92852960Y-52954044D02*
X93010545Y-52956088D01*
X93010545Y-52956088D02*
X93186409Y-52956832D01*
X93186409Y-52956832D02*
X93192173Y-52956833D01*
X93192173Y-52956833D02*
X93827423Y-52956833D01*
X93827423Y-52956833D02*
X93889295Y-52894961D01*
X93889295Y-52894961D02*
X93939423Y-52824453D01*
X93939423Y-52824453D02*
X93951167Y-52766333D01*
X93951167Y-52766333D02*
X93932277Y-52693359D01*
X93932277Y-52693359D02*
X93889295Y-52637705D01*
X93889295Y-52637705D02*
X93827423Y-52575833D01*
X93827423Y-52575833D02*
X93192173Y-52575833D01*
X93192173Y-52575833D02*
X93015813Y-52576534D01*
X93015813Y-52576534D02*
X93015813Y-52576534D01*
G36*
X93889295Y-52637705D02*
G01*
X93932277Y-52693359D01*
X93951167Y-52766333D01*
X93939423Y-52824453D01*
X93889295Y-52894961D01*
X93827423Y-52956833D01*
X93192173Y-52956833D01*
X93186409Y-52956832D01*
X93010545Y-52956088D01*
X92852960Y-52954044D01*
X92718463Y-52950847D01*
X92611864Y-52946643D01*
X92537975Y-52941579D01*
X92501604Y-52935801D01*
X92454418Y-52901465D01*
X92415276Y-52840551D01*
X92398808Y-52794826D01*
X92396449Y-52748599D01*
X92415276Y-52692115D01*
X92451690Y-52634211D01*
X92501604Y-52596865D01*
X92502128Y-52596674D01*
X92539749Y-52590917D01*
X92614738Y-52585877D01*
X92722286Y-52581703D01*
X92857581Y-52578540D01*
X93015813Y-52576534D01*
X93192173Y-52575833D01*
X93827423Y-52575833D01*
X93889295Y-52637705D01*
G37*
X93889295Y-52637705D02*
X93932277Y-52693359D01*
X93951167Y-52766333D01*
X93939423Y-52824453D01*
X93889295Y-52894961D01*
X93827423Y-52956833D01*
X93192173Y-52956833D01*
X93186409Y-52956832D01*
X93010545Y-52956088D01*
X92852960Y-52954044D01*
X92718463Y-52950847D01*
X92611864Y-52946643D01*
X92537975Y-52941579D01*
X92501604Y-52935801D01*
X92454418Y-52901465D01*
X92415276Y-52840551D01*
X92398808Y-52794826D01*
X92396449Y-52748599D01*
X92415276Y-52692115D01*
X92451690Y-52634211D01*
X92501604Y-52596865D01*
X92502128Y-52596674D01*
X92539749Y-52590917D01*
X92614738Y-52585877D01*
X92722286Y-52581703D01*
X92857581Y-52578540D01*
X93015813Y-52576534D01*
X93192173Y-52575833D01*
X93827423Y-52575833D01*
X93889295Y-52637705D01*
X98623505Y-52706103D02*
X98354311Y-52706410D01*
X98354311Y-52706410D02*
X98048353Y-52706953D01*
X98048353Y-52706953D02*
X97703287Y-52707702D01*
X97703287Y-52707702D02*
X97563074Y-52708030D01*
X97563074Y-52708030D02*
X95295250Y-52713417D01*
X95295250Y-52713417D02*
X95295250Y-52819250D01*
X95295250Y-52819250D02*
X97552121Y-52824637D01*
X97552121Y-52824637D02*
X97917419Y-52825440D01*
X97917419Y-52825440D02*
X98242611Y-52825989D01*
X98242611Y-52825989D02*
X98529926Y-52826261D01*
X98529926Y-52826261D02*
X98781590Y-52826234D01*
X98781590Y-52826234D02*
X98999830Y-52825884D01*
X98999830Y-52825884D02*
X99186875Y-52825188D01*
X99186875Y-52825188D02*
X99344950Y-52824122D01*
X99344950Y-52824122D02*
X99476285Y-52822663D01*
X99476285Y-52822663D02*
X99583106Y-52820789D01*
X99583106Y-52820789D02*
X99667640Y-52818475D01*
X99667640Y-52818475D02*
X99732114Y-52815700D01*
X99732114Y-52815700D02*
X99778757Y-52812438D01*
X99778757Y-52812438D02*
X99809796Y-52808668D01*
X99809796Y-52808668D02*
X99827457Y-52804366D01*
X99827457Y-52804366D02*
X99833194Y-52800861D01*
X99833194Y-52800861D02*
X99847512Y-52758127D01*
X99847512Y-52758127D02*
X99844148Y-52737171D01*
X99844148Y-52737171D02*
X99839558Y-52731691D01*
X99839558Y-52731691D02*
X99828679Y-52726835D01*
X99828679Y-52726835D02*
X99809168Y-52722574D01*
X99809168Y-52722574D02*
X99778679Y-52718879D01*
X99778679Y-52718879D02*
X99734869Y-52715718D01*
X99734869Y-52715718D02*
X99675393Y-52713063D01*
X99675393Y-52713063D02*
X99597907Y-52710883D01*
X99597907Y-52710883D02*
X99500067Y-52709148D01*
X99500067Y-52709148D02*
X99379529Y-52707828D01*
X99379529Y-52707828D02*
X99233948Y-52706893D01*
X99233948Y-52706893D02*
X99060979Y-52706314D01*
X99060979Y-52706314D02*
X98858280Y-52706061D01*
X98858280Y-52706061D02*
X98623505Y-52706103D01*
X98623505Y-52706103D02*
X98623505Y-52706103D01*
G36*
X99060979Y-52706314D02*
G01*
X99233948Y-52706893D01*
X99379529Y-52707828D01*
X99500067Y-52709148D01*
X99597907Y-52710883D01*
X99675393Y-52713063D01*
X99734869Y-52715718D01*
X99778679Y-52718879D01*
X99809168Y-52722574D01*
X99828679Y-52726835D01*
X99839558Y-52731691D01*
X99844148Y-52737171D01*
X99847512Y-52758127D01*
X99833194Y-52800861D01*
X99827457Y-52804366D01*
X99809796Y-52808668D01*
X99778757Y-52812438D01*
X99732114Y-52815700D01*
X99667640Y-52818475D01*
X99583106Y-52820789D01*
X99476285Y-52822663D01*
X99344950Y-52824122D01*
X99186875Y-52825188D01*
X98999830Y-52825884D01*
X98781590Y-52826234D01*
X98529926Y-52826261D01*
X98242611Y-52825989D01*
X97917419Y-52825440D01*
X97552121Y-52824637D01*
X95295250Y-52819250D01*
X95295250Y-52713417D01*
X97563074Y-52708030D01*
X97703287Y-52707702D01*
X98048353Y-52706953D01*
X98354311Y-52706410D01*
X98623505Y-52706103D01*
X98858280Y-52706061D01*
X99060979Y-52706314D01*
G37*
X99060979Y-52706314D02*
X99233948Y-52706893D01*
X99379529Y-52707828D01*
X99500067Y-52709148D01*
X99597907Y-52710883D01*
X99675393Y-52713063D01*
X99734869Y-52715718D01*
X99778679Y-52718879D01*
X99809168Y-52722574D01*
X99828679Y-52726835D01*
X99839558Y-52731691D01*
X99844148Y-52737171D01*
X99847512Y-52758127D01*
X99833194Y-52800861D01*
X99827457Y-52804366D01*
X99809796Y-52808668D01*
X99778757Y-52812438D01*
X99732114Y-52815700D01*
X99667640Y-52818475D01*
X99583106Y-52820789D01*
X99476285Y-52822663D01*
X99344950Y-52824122D01*
X99186875Y-52825188D01*
X98999830Y-52825884D01*
X98781590Y-52826234D01*
X98529926Y-52826261D01*
X98242611Y-52825989D01*
X97917419Y-52825440D01*
X97552121Y-52824637D01*
X95295250Y-52819250D01*
X95295250Y-52713417D01*
X97563074Y-52708030D01*
X97703287Y-52707702D01*
X98048353Y-52706953D01*
X98354311Y-52706410D01*
X98623505Y-52706103D01*
X98858280Y-52706061D01*
X99060979Y-52706314D01*
X92449906Y-52203742D02*
X92408737Y-52274435D01*
X92408737Y-52274435D02*
X92401176Y-52353655D01*
X92401176Y-52353655D02*
X92426798Y-52427695D01*
X92426798Y-52427695D02*
X92457980Y-52463980D01*
X92457980Y-52463980D02*
X92474490Y-52477469D01*
X92474490Y-52477469D02*
X92492346Y-52488183D01*
X92492346Y-52488183D02*
X92516292Y-52496440D01*
X92516292Y-52496440D02*
X92551076Y-52502562D01*
X92551076Y-52502562D02*
X92601442Y-52506867D01*
X92601442Y-52506867D02*
X92672138Y-52509675D01*
X92672138Y-52509675D02*
X92767908Y-52511306D01*
X92767908Y-52511306D02*
X92893499Y-52512080D01*
X92893499Y-52512080D02*
X93053657Y-52512316D01*
X93053657Y-52512316D02*
X93175773Y-52512333D01*
X93175773Y-52512333D02*
X93360834Y-52512226D01*
X93360834Y-52512226D02*
X93508247Y-52511717D01*
X93508247Y-52511717D02*
X93622695Y-52510520D01*
X93622695Y-52510520D02*
X93708865Y-52508353D01*
X93708865Y-52508353D02*
X93771439Y-52504930D01*
X93771439Y-52504930D02*
X93815103Y-52499968D01*
X93815103Y-52499968D02*
X93844542Y-52493183D01*
X93844542Y-52493183D02*
X93864439Y-52484290D01*
X93864439Y-52484290D02*
X93879479Y-52473005D01*
X93879479Y-52473005D02*
X93883419Y-52469414D01*
X93883419Y-52469414D02*
X93922549Y-52419152D01*
X93922549Y-52419152D02*
X93942725Y-52373753D01*
X93942725Y-52373753D02*
X93943102Y-52308688D01*
X93943102Y-52308688D02*
X93920692Y-52239697D01*
X93920692Y-52239697D02*
X93882895Y-52185907D01*
X93882895Y-52185907D02*
X93864989Y-52172858D01*
X93864989Y-52172858D02*
X93833970Y-52167448D01*
X93833970Y-52167448D02*
X93765200Y-52162670D01*
X93765200Y-52162670D02*
X93663256Y-52158657D01*
X93663256Y-52158657D02*
X93532717Y-52155542D01*
X93532717Y-52155542D02*
X93378160Y-52153456D01*
X93378160Y-52153456D02*
X93204165Y-52152534D01*
X93204165Y-52152534D02*
X93162498Y-52152500D01*
X93162498Y-52152500D02*
X92498046Y-52152500D01*
X92498046Y-52152500D02*
X92449906Y-52203742D01*
X92449906Y-52203742D02*
X92449906Y-52203742D01*
G36*
X93204165Y-52152534D02*
G01*
X93378160Y-52153456D01*
X93532717Y-52155542D01*
X93663256Y-52158657D01*
X93765200Y-52162670D01*
X93833970Y-52167448D01*
X93864989Y-52172858D01*
X93882895Y-52185907D01*
X93920692Y-52239697D01*
X93943102Y-52308688D01*
X93942725Y-52373753D01*
X93922549Y-52419152D01*
X93883419Y-52469414D01*
X93879479Y-52473005D01*
X93864439Y-52484290D01*
X93844542Y-52493183D01*
X93815103Y-52499968D01*
X93771439Y-52504930D01*
X93708865Y-52508353D01*
X93622695Y-52510520D01*
X93508247Y-52511717D01*
X93360834Y-52512226D01*
X93175773Y-52512333D01*
X93053657Y-52512316D01*
X92893499Y-52512080D01*
X92767908Y-52511306D01*
X92672138Y-52509675D01*
X92601442Y-52506867D01*
X92551076Y-52502562D01*
X92516292Y-52496440D01*
X92492346Y-52488183D01*
X92474490Y-52477469D01*
X92457980Y-52463980D01*
X92426798Y-52427695D01*
X92401176Y-52353655D01*
X92408737Y-52274435D01*
X92449906Y-52203742D01*
X92498046Y-52152500D01*
X93162498Y-52152500D01*
X93204165Y-52152534D01*
G37*
X93204165Y-52152534D02*
X93378160Y-52153456D01*
X93532717Y-52155542D01*
X93663256Y-52158657D01*
X93765200Y-52162670D01*
X93833970Y-52167448D01*
X93864989Y-52172858D01*
X93882895Y-52185907D01*
X93920692Y-52239697D01*
X93943102Y-52308688D01*
X93942725Y-52373753D01*
X93922549Y-52419152D01*
X93883419Y-52469414D01*
X93879479Y-52473005D01*
X93864439Y-52484290D01*
X93844542Y-52493183D01*
X93815103Y-52499968D01*
X93771439Y-52504930D01*
X93708865Y-52508353D01*
X93622695Y-52510520D01*
X93508247Y-52511717D01*
X93360834Y-52512226D01*
X93175773Y-52512333D01*
X93053657Y-52512316D01*
X92893499Y-52512080D01*
X92767908Y-52511306D01*
X92672138Y-52509675D01*
X92601442Y-52506867D01*
X92551076Y-52502562D01*
X92516292Y-52496440D01*
X92492346Y-52488183D01*
X92474490Y-52477469D01*
X92457980Y-52463980D01*
X92426798Y-52427695D01*
X92401176Y-52353655D01*
X92408737Y-52274435D01*
X92449906Y-52203742D01*
X92498046Y-52152500D01*
X93162498Y-52152500D01*
X93204165Y-52152534D01*
X98643744Y-52261347D02*
X98381668Y-52261734D01*
X98381668Y-52261734D02*
X98083217Y-52262331D01*
X98083217Y-52262331D02*
X97745995Y-52263102D01*
X97745995Y-52263102D02*
X97566885Y-52263529D01*
X97566885Y-52263529D02*
X97209454Y-52264412D01*
X97209454Y-52264412D02*
X96891966Y-52265276D01*
X96891966Y-52265276D02*
X96612031Y-52266168D01*
X96612031Y-52266168D02*
X96367259Y-52267134D01*
X96367259Y-52267134D02*
X96155259Y-52268220D01*
X96155259Y-52268220D02*
X95973642Y-52269471D01*
X95973642Y-52269471D02*
X95820016Y-52270934D01*
X95820016Y-52270934D02*
X95691993Y-52272655D01*
X95691993Y-52272655D02*
X95587181Y-52274679D01*
X95587181Y-52274679D02*
X95503190Y-52277054D01*
X95503190Y-52277054D02*
X95437631Y-52279823D01*
X95437631Y-52279823D02*
X95388112Y-52283035D01*
X95388112Y-52283035D02*
X95352245Y-52286734D01*
X95352245Y-52286734D02*
X95327637Y-52290967D01*
X95327637Y-52290967D02*
X95311901Y-52295779D01*
X95311901Y-52295779D02*
X95302644Y-52301217D01*
X95302644Y-52301217D02*
X95297556Y-52307198D01*
X95297556Y-52307198D02*
X95286631Y-52342370D01*
X95286631Y-52342370D02*
X95310445Y-52372394D01*
X95310445Y-52372394D02*
X95315171Y-52375990D01*
X95315171Y-52375990D02*
X95326532Y-52380951D01*
X95326532Y-52380951D02*
X95348020Y-52385358D01*
X95348020Y-52385358D02*
X95381949Y-52389243D01*
X95381949Y-52389243D02*
X95430631Y-52392638D01*
X95430631Y-52392638D02*
X95496378Y-52395572D01*
X95496378Y-52395572D02*
X95581503Y-52398078D01*
X95581503Y-52398078D02*
X95688318Y-52400186D01*
X95688318Y-52400186D02*
X95819135Y-52401928D01*
X95819135Y-52401928D02*
X95976267Y-52403336D01*
X95976267Y-52403336D02*
X96162027Y-52404440D01*
X96162027Y-52404440D02*
X96378727Y-52405272D01*
X96378727Y-52405272D02*
X96628679Y-52405862D01*
X96628679Y-52405862D02*
X96914195Y-52406243D01*
X96914195Y-52406243D02*
X97237589Y-52406445D01*
X97237589Y-52406445D02*
X97573201Y-52406500D01*
X97573201Y-52406500D02*
X97930566Y-52406452D01*
X97930566Y-52406452D02*
X98247971Y-52406286D01*
X98247971Y-52406286D02*
X98527789Y-52405966D01*
X98527789Y-52405966D02*
X98772392Y-52405457D01*
X98772392Y-52405457D02*
X98984153Y-52404725D01*
X98984153Y-52404725D02*
X99165445Y-52403733D01*
X99165445Y-52403733D02*
X99318641Y-52402448D01*
X99318641Y-52402448D02*
X99446114Y-52400834D01*
X99446114Y-52400834D02*
X99550237Y-52398856D01*
X99550237Y-52398856D02*
X99633382Y-52396479D01*
X99633382Y-52396479D02*
X99697922Y-52393668D01*
X99697922Y-52393668D02*
X99746230Y-52390389D01*
X99746230Y-52390389D02*
X99780680Y-52386605D01*
X99780680Y-52386605D02*
X99803643Y-52382282D01*
X99803643Y-52382282D02*
X99817494Y-52377385D01*
X99817494Y-52377385D02*
X99823363Y-52373280D01*
X99823363Y-52373280D02*
X99845009Y-52334981D01*
X99845009Y-52334981D02*
X99834662Y-52299100D01*
X99834662Y-52299100D02*
X99830352Y-52292592D01*
X99830352Y-52292592D02*
X99823198Y-52286820D01*
X99823198Y-52286820D02*
X99810806Y-52281748D01*
X99810806Y-52281748D02*
X99790781Y-52277337D01*
X99790781Y-52277337D02*
X99760727Y-52273550D01*
X99760727Y-52273550D02*
X99718249Y-52270349D01*
X99718249Y-52270349D02*
X99660952Y-52267697D01*
X99660952Y-52267697D02*
X99586440Y-52265557D01*
X99586440Y-52265557D02*
X99492320Y-52263890D01*
X99492320Y-52263890D02*
X99376194Y-52262659D01*
X99376194Y-52262659D02*
X99235669Y-52261827D01*
X99235669Y-52261827D02*
X99068349Y-52261356D01*
X99068349Y-52261356D02*
X98871839Y-52261209D01*
X98871839Y-52261209D02*
X98643744Y-52261347D01*
X98643744Y-52261347D02*
X98643744Y-52261347D01*
G36*
X99068349Y-52261356D02*
G01*
X99235669Y-52261827D01*
X99376194Y-52262659D01*
X99492320Y-52263890D01*
X99586440Y-52265557D01*
X99660952Y-52267697D01*
X99718249Y-52270349D01*
X99760727Y-52273550D01*
X99790781Y-52277337D01*
X99810806Y-52281748D01*
X99823198Y-52286820D01*
X99830352Y-52292592D01*
X99834662Y-52299100D01*
X99845009Y-52334981D01*
X99823363Y-52373280D01*
X99817494Y-52377385D01*
X99803643Y-52382282D01*
X99780680Y-52386605D01*
X99746230Y-52390389D01*
X99697922Y-52393668D01*
X99633382Y-52396479D01*
X99550237Y-52398856D01*
X99446114Y-52400834D01*
X99318641Y-52402448D01*
X99165445Y-52403733D01*
X98984153Y-52404725D01*
X98772392Y-52405457D01*
X98527789Y-52405966D01*
X98247971Y-52406286D01*
X97930566Y-52406452D01*
X97573201Y-52406500D01*
X97237589Y-52406445D01*
X96914195Y-52406243D01*
X96628679Y-52405862D01*
X96378727Y-52405272D01*
X96162027Y-52404440D01*
X95976267Y-52403336D01*
X95819135Y-52401928D01*
X95688318Y-52400186D01*
X95581503Y-52398078D01*
X95496378Y-52395572D01*
X95430631Y-52392638D01*
X95381949Y-52389243D01*
X95348020Y-52385358D01*
X95326532Y-52380951D01*
X95315171Y-52375990D01*
X95310445Y-52372394D01*
X95286631Y-52342370D01*
X95297556Y-52307198D01*
X95302644Y-52301217D01*
X95311901Y-52295779D01*
X95327637Y-52290967D01*
X95352245Y-52286734D01*
X95388112Y-52283035D01*
X95437631Y-52279823D01*
X95503190Y-52277054D01*
X95587181Y-52274679D01*
X95691993Y-52272655D01*
X95820016Y-52270934D01*
X95973642Y-52269471D01*
X96155259Y-52268220D01*
X96367259Y-52267134D01*
X96612031Y-52266168D01*
X96891966Y-52265276D01*
X97209454Y-52264412D01*
X97566885Y-52263529D01*
X97745995Y-52263102D01*
X98083217Y-52262331D01*
X98381668Y-52261734D01*
X98643744Y-52261347D01*
X98871839Y-52261209D01*
X99068349Y-52261356D01*
G37*
X99068349Y-52261356D02*
X99235669Y-52261827D01*
X99376194Y-52262659D01*
X99492320Y-52263890D01*
X99586440Y-52265557D01*
X99660952Y-52267697D01*
X99718249Y-52270349D01*
X99760727Y-52273550D01*
X99790781Y-52277337D01*
X99810806Y-52281748D01*
X99823198Y-52286820D01*
X99830352Y-52292592D01*
X99834662Y-52299100D01*
X99845009Y-52334981D01*
X99823363Y-52373280D01*
X99817494Y-52377385D01*
X99803643Y-52382282D01*
X99780680Y-52386605D01*
X99746230Y-52390389D01*
X99697922Y-52393668D01*
X99633382Y-52396479D01*
X99550237Y-52398856D01*
X99446114Y-52400834D01*
X99318641Y-52402448D01*
X99165445Y-52403733D01*
X98984153Y-52404725D01*
X98772392Y-52405457D01*
X98527789Y-52405966D01*
X98247971Y-52406286D01*
X97930566Y-52406452D01*
X97573201Y-52406500D01*
X97237589Y-52406445D01*
X96914195Y-52406243D01*
X96628679Y-52405862D01*
X96378727Y-52405272D01*
X96162027Y-52404440D01*
X95976267Y-52403336D01*
X95819135Y-52401928D01*
X95688318Y-52400186D01*
X95581503Y-52398078D01*
X95496378Y-52395572D01*
X95430631Y-52392638D01*
X95381949Y-52389243D01*
X95348020Y-52385358D01*
X95326532Y-52380951D01*
X95315171Y-52375990D01*
X95310445Y-52372394D01*
X95286631Y-52342370D01*
X95297556Y-52307198D01*
X95302644Y-52301217D01*
X95311901Y-52295779D01*
X95327637Y-52290967D01*
X95352245Y-52286734D01*
X95388112Y-52283035D01*
X95437631Y-52279823D01*
X95503190Y-52277054D01*
X95587181Y-52274679D01*
X95691993Y-52272655D01*
X95820016Y-52270934D01*
X95973642Y-52269471D01*
X96155259Y-52268220D01*
X96367259Y-52267134D01*
X96612031Y-52266168D01*
X96891966Y-52265276D01*
X97209454Y-52264412D01*
X97566885Y-52263529D01*
X97745995Y-52263102D01*
X98083217Y-52262331D01*
X98381668Y-52261734D01*
X98643744Y-52261347D01*
X98871839Y-52261209D01*
X99068349Y-52261356D01*
X92986896Y-51708068D02*
X92840553Y-51708484D01*
X92840553Y-51708484D02*
X92727016Y-51709567D01*
X92727016Y-51709567D02*
X92641523Y-51711635D01*
X92641523Y-51711635D02*
X92579309Y-51715007D01*
X92579309Y-51715007D02*
X92535612Y-51720002D01*
X92535612Y-51720002D02*
X92505667Y-51726939D01*
X92505667Y-51726939D02*
X92484712Y-51736135D01*
X92484712Y-51736135D02*
X92467983Y-51747910D01*
X92467983Y-51747910D02*
X92458830Y-51755625D01*
X92458830Y-51755625D02*
X92412561Y-51819681D01*
X92412561Y-51819681D02*
X92398340Y-51895366D01*
X92398340Y-51895366D02*
X92414375Y-51970252D01*
X92414375Y-51970252D02*
X92458874Y-52031914D01*
X92458874Y-52031914D02*
X92502610Y-52059182D01*
X92502610Y-52059182D02*
X92548414Y-52069198D01*
X92548414Y-52069198D02*
X92628800Y-52077321D01*
X92628800Y-52077321D02*
X92736985Y-52083571D01*
X92736985Y-52083571D02*
X92866186Y-52087968D01*
X92866186Y-52087968D02*
X93009621Y-52090533D01*
X93009621Y-52090533D02*
X93160506Y-52091284D01*
X93160506Y-52091284D02*
X93312058Y-52090243D01*
X93312058Y-52090243D02*
X93457494Y-52087428D01*
X93457494Y-52087428D02*
X93590031Y-52082860D01*
X93590031Y-52082860D02*
X93702887Y-52076560D01*
X93702887Y-52076560D02*
X93789277Y-52068546D01*
X93789277Y-52068546D02*
X93842420Y-52058838D01*
X93842420Y-52058838D02*
X93851600Y-52055215D01*
X93851600Y-52055215D02*
X93916519Y-51999592D01*
X93916519Y-51999592D02*
X93946419Y-51928149D01*
X93946419Y-51928149D02*
X93940011Y-51850651D01*
X93940011Y-51850651D02*
X93896005Y-51776863D01*
X93896005Y-51776863D02*
X93889295Y-51769872D01*
X93889295Y-51769872D02*
X93827423Y-51708000D01*
X93827423Y-51708000D02*
X93170809Y-51708000D01*
X93170809Y-51708000D02*
X92986896Y-51708068D01*
X92986896Y-51708068D02*
X92986896Y-51708068D01*
G36*
X93889295Y-51769872D02*
G01*
X93896005Y-51776863D01*
X93940011Y-51850651D01*
X93946419Y-51928149D01*
X93916519Y-51999592D01*
X93851600Y-52055215D01*
X93842420Y-52058838D01*
X93789277Y-52068546D01*
X93702887Y-52076560D01*
X93590031Y-52082860D01*
X93457494Y-52087428D01*
X93312058Y-52090243D01*
X93160506Y-52091284D01*
X93009621Y-52090533D01*
X92866186Y-52087968D01*
X92736985Y-52083571D01*
X92628800Y-52077321D01*
X92548414Y-52069198D01*
X92502610Y-52059182D01*
X92458874Y-52031914D01*
X92414375Y-51970252D01*
X92398340Y-51895366D01*
X92412561Y-51819681D01*
X92458830Y-51755625D01*
X92467983Y-51747910D01*
X92484712Y-51736135D01*
X92505667Y-51726939D01*
X92535612Y-51720002D01*
X92579309Y-51715007D01*
X92641523Y-51711635D01*
X92727016Y-51709567D01*
X92840553Y-51708484D01*
X92986896Y-51708068D01*
X93170809Y-51708000D01*
X93827423Y-51708000D01*
X93889295Y-51769872D01*
G37*
X93889295Y-51769872D02*
X93896005Y-51776863D01*
X93940011Y-51850651D01*
X93946419Y-51928149D01*
X93916519Y-51999592D01*
X93851600Y-52055215D01*
X93842420Y-52058838D01*
X93789277Y-52068546D01*
X93702887Y-52076560D01*
X93590031Y-52082860D01*
X93457494Y-52087428D01*
X93312058Y-52090243D01*
X93160506Y-52091284D01*
X93009621Y-52090533D01*
X92866186Y-52087968D01*
X92736985Y-52083571D01*
X92628800Y-52077321D01*
X92548414Y-52069198D01*
X92502610Y-52059182D01*
X92458874Y-52031914D01*
X92414375Y-51970252D01*
X92398340Y-51895366D01*
X92412561Y-51819681D01*
X92458830Y-51755625D01*
X92467983Y-51747910D01*
X92484712Y-51736135D01*
X92505667Y-51726939D01*
X92535612Y-51720002D01*
X92579309Y-51715007D01*
X92641523Y-51711635D01*
X92727016Y-51709567D01*
X92840553Y-51708484D01*
X92986896Y-51708068D01*
X93170809Y-51708000D01*
X93827423Y-51708000D01*
X93889295Y-51769872D01*
X97212631Y-51813898D02*
X96892083Y-51814112D01*
X96892083Y-51814112D02*
X96609242Y-51814507D01*
X96609242Y-51814507D02*
X96361798Y-51815114D01*
X96361798Y-51815114D02*
X96147437Y-51815964D01*
X96147437Y-51815964D02*
X95963847Y-51817089D01*
X95963847Y-51817089D02*
X95808715Y-51818520D01*
X95808715Y-51818520D02*
X95679730Y-51820288D01*
X95679730Y-51820288D02*
X95574578Y-51822425D01*
X95574578Y-51822425D02*
X95490947Y-51824961D01*
X95490947Y-51824961D02*
X95426525Y-51827927D01*
X95426525Y-51827927D02*
X95378999Y-51831356D01*
X95378999Y-51831356D02*
X95346057Y-51835279D01*
X95346057Y-51835279D02*
X95325387Y-51839726D01*
X95325387Y-51839726D02*
X95315171Y-51844343D01*
X95315171Y-51844343D02*
X95287425Y-51874861D01*
X95287425Y-51874861D02*
X95294899Y-51908651D01*
X95294899Y-51908651D02*
X95297556Y-51913135D01*
X95297556Y-51913135D02*
X95302781Y-51919231D01*
X95302781Y-51919231D02*
X95312143Y-51924656D01*
X95312143Y-51924656D02*
X95328034Y-51929456D01*
X95328034Y-51929456D02*
X95352842Y-51933678D01*
X95352842Y-51933678D02*
X95388959Y-51937367D01*
X95388959Y-51937367D02*
X95438774Y-51940569D01*
X95438774Y-51940569D02*
X95504678Y-51943331D01*
X95504678Y-51943331D02*
X95589061Y-51945697D01*
X95589061Y-51945697D02*
X95694313Y-51947715D01*
X95694313Y-51947715D02*
X95822824Y-51949430D01*
X95822824Y-51949430D02*
X95976985Y-51950889D01*
X95976985Y-51950889D02*
X96159186Y-51952136D01*
X96159186Y-51952136D02*
X96371816Y-51953219D01*
X96371816Y-51953219D02*
X96617267Y-51954183D01*
X96617267Y-51954183D02*
X96897928Y-51955074D01*
X96897928Y-51955074D02*
X97216190Y-51955939D01*
X97216190Y-51955939D02*
X97566885Y-51956804D01*
X97566885Y-51956804D02*
X97923869Y-51957646D01*
X97923869Y-51957646D02*
X98240916Y-51958332D01*
X98240916Y-51958332D02*
X98520419Y-51958826D01*
X98520419Y-51958826D02*
X98764775Y-51959090D01*
X98764775Y-51959090D02*
X98976378Y-51959087D01*
X98976378Y-51959087D02*
X99157624Y-51958778D01*
X99157624Y-51958778D02*
X99310908Y-51958127D01*
X99310908Y-51958127D02*
X99438625Y-51957095D01*
X99438625Y-51957095D02*
X99543170Y-51955645D01*
X99543170Y-51955645D02*
X99626939Y-51953741D01*
X99626939Y-51953741D02*
X99692326Y-51951343D01*
X99692326Y-51951343D02*
X99741726Y-51948414D01*
X99741726Y-51948414D02*
X99777536Y-51944918D01*
X99777536Y-51944918D02*
X99802149Y-51940815D01*
X99802149Y-51940815D02*
X99817962Y-51936070D01*
X99817962Y-51936070D02*
X99827369Y-51930643D01*
X99827369Y-51930643D02*
X99832766Y-51924499D01*
X99832766Y-51924499D02*
X99834662Y-51921233D01*
X99834662Y-51921233D02*
X99843979Y-51878588D01*
X99843979Y-51878588D02*
X99823363Y-51847053D01*
X99823363Y-51847053D02*
X99814828Y-51841699D01*
X99814828Y-51841699D02*
X99798974Y-51836945D01*
X99798974Y-51836945D02*
X99773429Y-51832757D01*
X99773429Y-51832757D02*
X99735818Y-51829099D01*
X99735818Y-51829099D02*
X99683770Y-51825937D01*
X99683770Y-51825937D02*
X99614912Y-51823235D01*
X99614912Y-51823235D02*
X99526870Y-51820959D01*
X99526870Y-51820959D02*
X99417272Y-51819073D01*
X99417272Y-51819073D02*
X99283746Y-51817543D01*
X99283746Y-51817543D02*
X99123917Y-51816332D01*
X99123917Y-51816332D02*
X98935413Y-51815407D01*
X98935413Y-51815407D02*
X98715862Y-51814733D01*
X98715862Y-51814733D02*
X98462891Y-51814273D01*
X98462891Y-51814273D02*
X98174126Y-51813994D01*
X98174126Y-51813994D02*
X97847195Y-51813860D01*
X97847195Y-51813860D02*
X97573201Y-51813833D01*
X97573201Y-51813833D02*
X97212631Y-51813898D01*
X97212631Y-51813898D02*
X97212631Y-51813898D01*
G36*
X97847195Y-51813860D02*
G01*
X98174126Y-51813994D01*
X98462891Y-51814273D01*
X98715862Y-51814733D01*
X98935413Y-51815407D01*
X99123917Y-51816332D01*
X99283746Y-51817543D01*
X99417272Y-51819073D01*
X99526870Y-51820959D01*
X99614912Y-51823235D01*
X99683770Y-51825937D01*
X99735818Y-51829099D01*
X99773429Y-51832757D01*
X99798974Y-51836945D01*
X99814828Y-51841699D01*
X99823363Y-51847053D01*
X99843979Y-51878588D01*
X99834662Y-51921233D01*
X99832766Y-51924499D01*
X99827369Y-51930643D01*
X99817962Y-51936070D01*
X99802149Y-51940815D01*
X99777536Y-51944918D01*
X99741726Y-51948414D01*
X99692326Y-51951343D01*
X99626939Y-51953741D01*
X99543170Y-51955645D01*
X99438625Y-51957095D01*
X99310908Y-51958127D01*
X99157624Y-51958778D01*
X98976378Y-51959087D01*
X98764775Y-51959090D01*
X98520419Y-51958826D01*
X98240916Y-51958332D01*
X97923869Y-51957646D01*
X97566885Y-51956804D01*
X97216190Y-51955939D01*
X96897928Y-51955074D01*
X96617267Y-51954183D01*
X96371816Y-51953219D01*
X96159186Y-51952136D01*
X95976985Y-51950889D01*
X95822824Y-51949430D01*
X95694313Y-51947715D01*
X95589061Y-51945697D01*
X95504678Y-51943331D01*
X95438774Y-51940569D01*
X95388959Y-51937367D01*
X95352842Y-51933678D01*
X95328034Y-51929456D01*
X95312143Y-51924656D01*
X95302781Y-51919231D01*
X95297556Y-51913135D01*
X95294899Y-51908651D01*
X95287425Y-51874861D01*
X95315171Y-51844343D01*
X95325387Y-51839726D01*
X95346057Y-51835279D01*
X95378999Y-51831356D01*
X95426525Y-51827927D01*
X95490947Y-51824961D01*
X95574578Y-51822425D01*
X95679730Y-51820288D01*
X95808715Y-51818520D01*
X95963847Y-51817089D01*
X96147437Y-51815964D01*
X96361798Y-51815114D01*
X96609242Y-51814507D01*
X96892083Y-51814112D01*
X97212631Y-51813898D01*
X97573201Y-51813833D01*
X97847195Y-51813860D01*
G37*
X97847195Y-51813860D02*
X98174126Y-51813994D01*
X98462891Y-51814273D01*
X98715862Y-51814733D01*
X98935413Y-51815407D01*
X99123917Y-51816332D01*
X99283746Y-51817543D01*
X99417272Y-51819073D01*
X99526870Y-51820959D01*
X99614912Y-51823235D01*
X99683770Y-51825937D01*
X99735818Y-51829099D01*
X99773429Y-51832757D01*
X99798974Y-51836945D01*
X99814828Y-51841699D01*
X99823363Y-51847053D01*
X99843979Y-51878588D01*
X99834662Y-51921233D01*
X99832766Y-51924499D01*
X99827369Y-51930643D01*
X99817962Y-51936070D01*
X99802149Y-51940815D01*
X99777536Y-51944918D01*
X99741726Y-51948414D01*
X99692326Y-51951343D01*
X99626939Y-51953741D01*
X99543170Y-51955645D01*
X99438625Y-51957095D01*
X99310908Y-51958127D01*
X99157624Y-51958778D01*
X98976378Y-51959087D01*
X98764775Y-51959090D01*
X98520419Y-51958826D01*
X98240916Y-51958332D01*
X97923869Y-51957646D01*
X97566885Y-51956804D01*
X97216190Y-51955939D01*
X96897928Y-51955074D01*
X96617267Y-51954183D01*
X96371816Y-51953219D01*
X96159186Y-51952136D01*
X95976985Y-51950889D01*
X95822824Y-51949430D01*
X95694313Y-51947715D01*
X95589061Y-51945697D01*
X95504678Y-51943331D01*
X95438774Y-51940569D01*
X95388959Y-51937367D01*
X95352842Y-51933678D01*
X95328034Y-51929456D01*
X95312143Y-51924656D01*
X95302781Y-51919231D01*
X95297556Y-51913135D01*
X95294899Y-51908651D01*
X95287425Y-51874861D01*
X95315171Y-51844343D01*
X95325387Y-51839726D01*
X95346057Y-51835279D01*
X95378999Y-51831356D01*
X95426525Y-51827927D01*
X95490947Y-51824961D01*
X95574578Y-51822425D01*
X95679730Y-51820288D01*
X95808715Y-51818520D01*
X95963847Y-51817089D01*
X96147437Y-51815964D01*
X96361798Y-51815114D01*
X96609242Y-51814507D01*
X96892083Y-51814112D01*
X97212631Y-51813898D01*
X97573201Y-51813833D01*
X97847195Y-51813860D01*
X92746592Y-51266689D02*
X92658086Y-51268858D01*
X92658086Y-51268858D02*
X92592984Y-51272614D01*
X92592984Y-51272614D02*
X92546555Y-51278136D01*
X92546555Y-51278136D02*
X92514070Y-51285601D01*
X92514070Y-51285601D02*
X92491845Y-51294641D01*
X92491845Y-51294641D02*
X92434409Y-51346274D01*
X92434409Y-51346274D02*
X92404298Y-51420423D01*
X92404298Y-51420423D02*
X92406156Y-51503858D01*
X92406156Y-51503858D02*
X92411645Y-51523122D01*
X92411645Y-51523122D02*
X92423703Y-51555703D01*
X92423703Y-51555703D02*
X92438343Y-51581861D01*
X92438343Y-51581861D02*
X92459994Y-51602301D01*
X92459994Y-51602301D02*
X92493087Y-51617729D01*
X92493087Y-51617729D02*
X92542052Y-51628848D01*
X92542052Y-51628848D02*
X92611317Y-51636364D01*
X92611317Y-51636364D02*
X92705313Y-51640983D01*
X92705313Y-51640983D02*
X92828470Y-51643408D01*
X92828470Y-51643408D02*
X92985216Y-51644346D01*
X92985216Y-51644346D02*
X93174338Y-51644500D01*
X93174338Y-51644500D02*
X93827423Y-51644500D01*
X93827423Y-51644500D02*
X93891905Y-51580018D01*
X93891905Y-51580018D02*
X93933177Y-51532249D01*
X93933177Y-51532249D02*
X93947749Y-51489787D01*
X93947749Y-51489787D02*
X93943871Y-51438408D01*
X93943871Y-51438408D02*
X93923325Y-51373507D01*
X93923325Y-51373507D02*
X93890383Y-51320394D01*
X93890383Y-51320394D02*
X93887785Y-51317682D01*
X93887785Y-51317682D02*
X93873779Y-51305333D01*
X93873779Y-51305333D02*
X93856020Y-51295496D01*
X93856020Y-51295496D02*
X93829774Y-51287829D01*
X93829774Y-51287829D02*
X93790302Y-51281988D01*
X93790302Y-51281988D02*
X93732869Y-51277632D01*
X93732869Y-51277632D02*
X93652737Y-51274417D01*
X93652737Y-51274417D02*
X93545170Y-51272001D01*
X93545170Y-51272001D02*
X93405431Y-51270041D01*
X93405431Y-51270041D02*
X93228782Y-51268194D01*
X93228782Y-51268194D02*
X93199833Y-51267916D01*
X93199833Y-51267916D02*
X93012735Y-51266396D01*
X93012735Y-51266396D02*
X92863232Y-51265928D01*
X92863232Y-51265928D02*
X92746592Y-51266689D01*
X92746592Y-51266689D02*
X92746592Y-51266689D01*
G36*
X93012735Y-51266396D02*
G01*
X93199833Y-51267916D01*
X93228782Y-51268194D01*
X93405431Y-51270041D01*
X93545170Y-51272001D01*
X93652737Y-51274417D01*
X93732869Y-51277632D01*
X93790302Y-51281988D01*
X93829774Y-51287829D01*
X93856020Y-51295496D01*
X93873779Y-51305333D01*
X93887785Y-51317682D01*
X93890383Y-51320394D01*
X93923325Y-51373507D01*
X93943871Y-51438408D01*
X93947749Y-51489787D01*
X93933177Y-51532249D01*
X93891905Y-51580018D01*
X93827423Y-51644500D01*
X93174338Y-51644500D01*
X92985216Y-51644346D01*
X92828470Y-51643408D01*
X92705313Y-51640983D01*
X92611317Y-51636364D01*
X92542052Y-51628848D01*
X92493087Y-51617729D01*
X92459994Y-51602301D01*
X92438343Y-51581861D01*
X92423703Y-51555703D01*
X92411645Y-51523122D01*
X92406156Y-51503858D01*
X92404298Y-51420423D01*
X92434409Y-51346274D01*
X92491845Y-51294641D01*
X92514070Y-51285601D01*
X92546555Y-51278136D01*
X92592984Y-51272614D01*
X92658086Y-51268858D01*
X92746592Y-51266689D01*
X92863232Y-51265928D01*
X93012735Y-51266396D01*
G37*
X93012735Y-51266396D02*
X93199833Y-51267916D01*
X93228782Y-51268194D01*
X93405431Y-51270041D01*
X93545170Y-51272001D01*
X93652737Y-51274417D01*
X93732869Y-51277632D01*
X93790302Y-51281988D01*
X93829774Y-51287829D01*
X93856020Y-51295496D01*
X93873779Y-51305333D01*
X93887785Y-51317682D01*
X93890383Y-51320394D01*
X93923325Y-51373507D01*
X93943871Y-51438408D01*
X93947749Y-51489787D01*
X93933177Y-51532249D01*
X93891905Y-51580018D01*
X93827423Y-51644500D01*
X93174338Y-51644500D01*
X92985216Y-51644346D01*
X92828470Y-51643408D01*
X92705313Y-51640983D01*
X92611317Y-51636364D01*
X92542052Y-51628848D01*
X92493087Y-51617729D01*
X92459994Y-51602301D01*
X92438343Y-51581861D01*
X92423703Y-51555703D01*
X92411645Y-51523122D01*
X92406156Y-51503858D01*
X92404298Y-51420423D01*
X92434409Y-51346274D01*
X92491845Y-51294641D01*
X92514070Y-51285601D01*
X92546555Y-51278136D01*
X92592984Y-51272614D01*
X92658086Y-51268858D01*
X92746592Y-51266689D01*
X92863232Y-51265928D01*
X93012735Y-51266396D01*
X97378838Y-51263614D02*
X97233581Y-51264151D01*
X97233581Y-51264151D02*
X97121227Y-51265400D01*
X97121227Y-51265400D02*
X97037059Y-51267649D01*
X97037059Y-51267649D02*
X96976362Y-51271190D01*
X96976362Y-51271190D02*
X96934420Y-51276310D01*
X96934420Y-51276310D02*
X96906519Y-51283301D01*
X96906519Y-51283301D02*
X96887941Y-51292450D01*
X96887941Y-51292450D02*
X96873972Y-51304049D01*
X96873972Y-51304049D02*
X96872167Y-51305833D01*
X96872167Y-51305833D02*
X96841090Y-51343741D01*
X96841090Y-51343741D02*
X96829833Y-51369333D01*
X96829833Y-51369333D02*
X96808854Y-51375514D01*
X96808854Y-51375514D02*
X96746639Y-51380672D01*
X96746639Y-51380672D02*
X96644276Y-51384779D01*
X96644276Y-51384779D02*
X96502852Y-51387804D01*
X96502852Y-51387804D02*
X96323453Y-51389716D01*
X96323453Y-51389716D02*
X96107166Y-51390485D01*
X96107166Y-51390485D02*
X96069260Y-51390500D01*
X96069260Y-51390500D02*
X95869840Y-51390570D01*
X95869840Y-51390570D02*
X95708606Y-51390929D01*
X95708606Y-51390929D02*
X95581410Y-51391805D01*
X95581410Y-51391805D02*
X95484106Y-51393422D01*
X95484106Y-51393422D02*
X95412544Y-51396007D01*
X95412544Y-51396007D02*
X95362579Y-51399786D01*
X95362579Y-51399786D02*
X95330062Y-51404984D01*
X95330062Y-51404984D02*
X95310846Y-51411826D01*
X95310846Y-51411826D02*
X95300784Y-51420540D01*
X95300784Y-51420540D02*
X95295728Y-51431351D01*
X95295728Y-51431351D02*
X95295310Y-51432644D01*
X95295310Y-51432644D02*
X95290033Y-51476677D01*
X95290033Y-51476677D02*
X95295133Y-51496144D01*
X95295133Y-51496144D02*
X95320186Y-51502341D01*
X95320186Y-51502341D02*
X95386122Y-51507536D01*
X95386122Y-51507536D02*
X95491500Y-51511687D01*
X95491500Y-51511687D02*
X95634880Y-51514756D01*
X95634880Y-51514756D02*
X95814822Y-51516702D01*
X95814822Y-51516702D02*
X96029886Y-51517485D01*
X96029886Y-51517485D02*
X96066614Y-51517500D01*
X96066614Y-51517500D02*
X96265969Y-51517597D01*
X96265969Y-51517597D02*
X96427115Y-51518028D01*
X96427115Y-51518028D02*
X96554176Y-51519002D01*
X96554176Y-51519002D02*
X96651275Y-51520731D01*
X96651275Y-51520731D02*
X96722537Y-51523422D01*
X96722537Y-51523422D02*
X96772086Y-51527287D01*
X96772086Y-51527287D02*
X96804046Y-51532536D01*
X96804046Y-51532536D02*
X96822541Y-51539377D01*
X96822541Y-51539377D02*
X96831694Y-51548021D01*
X96831694Y-51548021D02*
X96835122Y-51556605D01*
X96835122Y-51556605D02*
X96865687Y-51590646D01*
X96865687Y-51590646D02*
X96927549Y-51609289D01*
X96927549Y-51609289D02*
X96969461Y-51612628D01*
X96969461Y-51612628D02*
X97046323Y-51615339D01*
X97046323Y-51615339D02*
X97151229Y-51617424D01*
X97151229Y-51617424D02*
X97277275Y-51618891D01*
X97277275Y-51618891D02*
X97417553Y-51619744D01*
X97417553Y-51619744D02*
X97565158Y-51619989D01*
X97565158Y-51619989D02*
X97713184Y-51619631D01*
X97713184Y-51619631D02*
X97854725Y-51618675D01*
X97854725Y-51618675D02*
X97982876Y-51617127D01*
X97982876Y-51617127D02*
X98090729Y-51614991D01*
X98090729Y-51614991D02*
X98171380Y-51612275D01*
X98171380Y-51612275D02*
X98217923Y-51608981D01*
X98217923Y-51608981D02*
X98222348Y-51608290D01*
X98222348Y-51608290D02*
X98272259Y-51583760D01*
X98272259Y-51583760D02*
X98296231Y-51558255D01*
X98296231Y-51558255D02*
X98304622Y-51547520D01*
X98304622Y-51547520D02*
X98317819Y-51538853D01*
X98317819Y-51538853D02*
X98340051Y-51532034D01*
X98340051Y-51532034D02*
X98375545Y-51526843D01*
X98375545Y-51526843D02*
X98428528Y-51523058D01*
X98428528Y-51523058D02*
X98503229Y-51520459D01*
X98503229Y-51520459D02*
X98603875Y-51518825D01*
X98603875Y-51518825D02*
X98734694Y-51517934D01*
X98734694Y-51517934D02*
X98899913Y-51517566D01*
X98899913Y-51517566D02*
X99076327Y-51517500D01*
X99076327Y-51517500D02*
X99276431Y-51517345D01*
X99276431Y-51517345D02*
X99438286Y-51516757D01*
X99438286Y-51516757D02*
X99565974Y-51515555D01*
X99565974Y-51515555D02*
X99663578Y-51513554D01*
X99663578Y-51513554D02*
X99735182Y-51510571D01*
X99735182Y-51510571D02*
X99784868Y-51506424D01*
X99784868Y-51506424D02*
X99816719Y-51500929D01*
X99816719Y-51500929D02*
X99834819Y-51493903D01*
X99834819Y-51493903D02*
X99843250Y-51485163D01*
X99843250Y-51485163D02*
X99844184Y-51483067D01*
X99844184Y-51483067D02*
X99851621Y-51459452D01*
X99851621Y-51459452D02*
X99851499Y-51440231D01*
X99851499Y-51440231D02*
X99840057Y-51424953D01*
X99840057Y-51424953D02*
X99813535Y-51413167D01*
X99813535Y-51413167D02*
X99768173Y-51404421D01*
X99768173Y-51404421D02*
X99700209Y-51398264D01*
X99700209Y-51398264D02*
X99605883Y-51394245D01*
X99605883Y-51394245D02*
X99481434Y-51391914D01*
X99481434Y-51391914D02*
X99323102Y-51390818D01*
X99323102Y-51390818D02*
X99127126Y-51390508D01*
X99127126Y-51390508D02*
X99072537Y-51390500D01*
X99072537Y-51390500D02*
X98335923Y-51390500D01*
X98335923Y-51390500D02*
X98208923Y-51263500D01*
X98208923Y-51263500D02*
X97561712Y-51263500D01*
X97561712Y-51263500D02*
X97378838Y-51263614D01*
X97378838Y-51263614D02*
X97378838Y-51263614D01*
G36*
X98335923Y-51390500D02*
G01*
X99072537Y-51390500D01*
X99127126Y-51390508D01*
X99323102Y-51390818D01*
X99481434Y-51391914D01*
X99605883Y-51394245D01*
X99700209Y-51398264D01*
X99768173Y-51404421D01*
X99813535Y-51413167D01*
X99840057Y-51424953D01*
X99851499Y-51440231D01*
X99851621Y-51459452D01*
X99844184Y-51483067D01*
X99843250Y-51485163D01*
X99834819Y-51493903D01*
X99816719Y-51500929D01*
X99784868Y-51506424D01*
X99735182Y-51510571D01*
X99663578Y-51513554D01*
X99565974Y-51515555D01*
X99438286Y-51516757D01*
X99276431Y-51517345D01*
X99076327Y-51517500D01*
X98899913Y-51517566D01*
X98734694Y-51517934D01*
X98603875Y-51518825D01*
X98503229Y-51520459D01*
X98428528Y-51523058D01*
X98375545Y-51526843D01*
X98340051Y-51532034D01*
X98317819Y-51538853D01*
X98304622Y-51547520D01*
X98296231Y-51558255D01*
X98272259Y-51583760D01*
X98222348Y-51608290D01*
X98217923Y-51608981D01*
X98171380Y-51612275D01*
X98090729Y-51614991D01*
X97982876Y-51617127D01*
X97854725Y-51618675D01*
X97713184Y-51619631D01*
X97565158Y-51619989D01*
X97417553Y-51619744D01*
X97277275Y-51618891D01*
X97151229Y-51617424D01*
X97046323Y-51615339D01*
X96969461Y-51612628D01*
X96927549Y-51609289D01*
X96865687Y-51590646D01*
X96835122Y-51556605D01*
X96831694Y-51548021D01*
X96822541Y-51539377D01*
X96804046Y-51532536D01*
X96772086Y-51527287D01*
X96722537Y-51523422D01*
X96651275Y-51520731D01*
X96554176Y-51519002D01*
X96427115Y-51518028D01*
X96265969Y-51517597D01*
X96066614Y-51517500D01*
X96029886Y-51517485D01*
X95814822Y-51516702D01*
X95634880Y-51514756D01*
X95491500Y-51511687D01*
X95386122Y-51507536D01*
X95320186Y-51502341D01*
X95295133Y-51496144D01*
X95290033Y-51476677D01*
X95295310Y-51432644D01*
X95295728Y-51431351D01*
X95300784Y-51420540D01*
X95310846Y-51411826D01*
X95330062Y-51404984D01*
X95362579Y-51399786D01*
X95412544Y-51396007D01*
X95484106Y-51393422D01*
X95581410Y-51391805D01*
X95708606Y-51390929D01*
X95869840Y-51390570D01*
X96069260Y-51390500D01*
X96107166Y-51390485D01*
X96323453Y-51389716D01*
X96502852Y-51387804D01*
X96644276Y-51384779D01*
X96746639Y-51380672D01*
X96808854Y-51375514D01*
X96829833Y-51369333D01*
X96841090Y-51343741D01*
X96872167Y-51305833D01*
X96873972Y-51304049D01*
X96887941Y-51292450D01*
X96906519Y-51283301D01*
X96934420Y-51276310D01*
X96976362Y-51271190D01*
X97037059Y-51267649D01*
X97121227Y-51265400D01*
X97233581Y-51264151D01*
X97378838Y-51263614D01*
X97561712Y-51263500D01*
X98208923Y-51263500D01*
X98335923Y-51390500D01*
G37*
X98335923Y-51390500D02*
X99072537Y-51390500D01*
X99127126Y-51390508D01*
X99323102Y-51390818D01*
X99481434Y-51391914D01*
X99605883Y-51394245D01*
X99700209Y-51398264D01*
X99768173Y-51404421D01*
X99813535Y-51413167D01*
X99840057Y-51424953D01*
X99851499Y-51440231D01*
X99851621Y-51459452D01*
X99844184Y-51483067D01*
X99843250Y-51485163D01*
X99834819Y-51493903D01*
X99816719Y-51500929D01*
X99784868Y-51506424D01*
X99735182Y-51510571D01*
X99663578Y-51513554D01*
X99565974Y-51515555D01*
X99438286Y-51516757D01*
X99276431Y-51517345D01*
X99076327Y-51517500D01*
X98899913Y-51517566D01*
X98734694Y-51517934D01*
X98603875Y-51518825D01*
X98503229Y-51520459D01*
X98428528Y-51523058D01*
X98375545Y-51526843D01*
X98340051Y-51532034D01*
X98317819Y-51538853D01*
X98304622Y-51547520D01*
X98296231Y-51558255D01*
X98272259Y-51583760D01*
X98222348Y-51608290D01*
X98217923Y-51608981D01*
X98171380Y-51612275D01*
X98090729Y-51614991D01*
X97982876Y-51617127D01*
X97854725Y-51618675D01*
X97713184Y-51619631D01*
X97565158Y-51619989D01*
X97417553Y-51619744D01*
X97277275Y-51618891D01*
X97151229Y-51617424D01*
X97046323Y-51615339D01*
X96969461Y-51612628D01*
X96927549Y-51609289D01*
X96865687Y-51590646D01*
X96835122Y-51556605D01*
X96831694Y-51548021D01*
X96822541Y-51539377D01*
X96804046Y-51532536D01*
X96772086Y-51527287D01*
X96722537Y-51523422D01*
X96651275Y-51520731D01*
X96554176Y-51519002D01*
X96427115Y-51518028D01*
X96265969Y-51517597D01*
X96066614Y-51517500D01*
X96029886Y-51517485D01*
X95814822Y-51516702D01*
X95634880Y-51514756D01*
X95491500Y-51511687D01*
X95386122Y-51507536D01*
X95320186Y-51502341D01*
X95295133Y-51496144D01*
X95290033Y-51476677D01*
X95295310Y-51432644D01*
X95295728Y-51431351D01*
X95300784Y-51420540D01*
X95310846Y-51411826D01*
X95330062Y-51404984D01*
X95362579Y-51399786D01*
X95412544Y-51396007D01*
X95484106Y-51393422D01*
X95581410Y-51391805D01*
X95708606Y-51390929D01*
X95869840Y-51390570D01*
X96069260Y-51390500D01*
X96107166Y-51390485D01*
X96323453Y-51389716D01*
X96502852Y-51387804D01*
X96644276Y-51384779D01*
X96746639Y-51380672D01*
X96808854Y-51375514D01*
X96829833Y-51369333D01*
X96841090Y-51343741D01*
X96872167Y-51305833D01*
X96873972Y-51304049D01*
X96887941Y-51292450D01*
X96906519Y-51283301D01*
X96934420Y-51276310D01*
X96976362Y-51271190D01*
X97037059Y-51267649D01*
X97121227Y-51265400D01*
X97233581Y-51264151D01*
X97378838Y-51263614D01*
X97561712Y-51263500D01*
X98208923Y-51263500D01*
X98335923Y-51390500D01*
X96854782Y-50893083D02*
X96813158Y-50946000D01*
X96813158Y-50946000D02*
X95322509Y-50946000D01*
X95322509Y-50946000D02*
X95280885Y-50893083D01*
X95280885Y-50893083D02*
X95239261Y-50840167D01*
X95239261Y-50840167D02*
X93181093Y-50840167D01*
X93181093Y-50840167D02*
X92824560Y-50840275D01*
X92824560Y-50840275D02*
X92508267Y-50840619D01*
X92508267Y-50840619D02*
X92230120Y-50841224D01*
X92230120Y-50841224D02*
X91988026Y-50842117D01*
X91988026Y-50842117D02*
X91779891Y-50843325D01*
X91779891Y-50843325D02*
X91603622Y-50844873D01*
X91603622Y-50844873D02*
X91457125Y-50846789D01*
X91457125Y-50846789D02*
X91338308Y-50849098D01*
X91338308Y-50849098D02*
X91245076Y-50851828D01*
X91245076Y-50851828D02*
X91175337Y-50855004D01*
X91175337Y-50855004D02*
X91126997Y-50858654D01*
X91126997Y-50858654D02*
X91097962Y-50862803D01*
X91097962Y-50862803D02*
X91087052Y-50866625D01*
X91087052Y-50866625D02*
X91046681Y-50919913D01*
X91046681Y-50919913D02*
X91028265Y-50993736D01*
X91028265Y-50993736D02*
X91031823Y-51072640D01*
X91031823Y-51072640D02*
X91057371Y-51141169D01*
X91057371Y-51141169D02*
X91086707Y-51173517D01*
X91086707Y-51173517D02*
X91101407Y-51178102D01*
X91101407Y-51178102D02*
X91133625Y-51182165D01*
X91133625Y-51182165D02*
X91185458Y-51185732D01*
X91185458Y-51185732D02*
X91259004Y-51188831D01*
X91259004Y-51188831D02*
X91356359Y-51191487D01*
X91356359Y-51191487D02*
X91479618Y-51193728D01*
X91479618Y-51193728D02*
X91630880Y-51195579D01*
X91630880Y-51195579D02*
X91812240Y-51197068D01*
X91812240Y-51197068D02*
X92025796Y-51198220D01*
X92025796Y-51198220D02*
X92273644Y-51199063D01*
X92273644Y-51199063D02*
X92557880Y-51199622D01*
X92557880Y-51199622D02*
X92880601Y-51199925D01*
X92880601Y-51199925D02*
X93181117Y-51200000D01*
X93181117Y-51200000D02*
X93524762Y-51199948D01*
X93524762Y-51199948D02*
X93828540Y-51199766D01*
X93828540Y-51199766D02*
X94094915Y-51199415D01*
X94094915Y-51199415D02*
X94326353Y-51198856D01*
X94326353Y-51198856D02*
X94525320Y-51198049D01*
X94525320Y-51198049D02*
X94694282Y-51196955D01*
X94694282Y-51196955D02*
X94835703Y-51195536D01*
X94835703Y-51195536D02*
X94952049Y-51193751D01*
X94952049Y-51193751D02*
X95045787Y-51191562D01*
X95045787Y-51191562D02*
X95119380Y-51188929D01*
X95119380Y-51188929D02*
X95175296Y-51185814D01*
X95175296Y-51185814D02*
X95215998Y-51182176D01*
X95215998Y-51182176D02*
X95243954Y-51177977D01*
X95243954Y-51177977D02*
X95261628Y-51173178D01*
X95261628Y-51173178D02*
X95271486Y-51167739D01*
X95271486Y-51167739D02*
X95272572Y-51166738D01*
X95272572Y-51166738D02*
X95299289Y-51132039D01*
X95299289Y-51132039D02*
X95305833Y-51113821D01*
X95305833Y-51113821D02*
X95326443Y-51108764D01*
X95326443Y-51108764D02*
X95386051Y-51104318D01*
X95386051Y-51104318D02*
X95481324Y-51100569D01*
X95481324Y-51100569D02*
X95608931Y-51097602D01*
X95608931Y-51097602D02*
X95765539Y-51095503D01*
X95765539Y-51095503D02*
X95947817Y-51094359D01*
X95947817Y-51094359D02*
X96067833Y-51094167D01*
X96067833Y-51094167D02*
X96263883Y-51094698D01*
X96263883Y-51094698D02*
X96436258Y-51096236D01*
X96436258Y-51096236D02*
X96581626Y-51098693D01*
X96581626Y-51098693D02*
X96696655Y-51101984D01*
X96696655Y-51101984D02*
X96778013Y-51106024D01*
X96778013Y-51106024D02*
X96822368Y-51110726D01*
X96822368Y-51110726D02*
X96829833Y-51113821D01*
X96829833Y-51113821D02*
X96843342Y-51143117D01*
X96843342Y-51143117D02*
X96863095Y-51166738D01*
X96863095Y-51166738D02*
X96877001Y-51176087D01*
X96877001Y-51176087D02*
X96900918Y-51183540D01*
X96900918Y-51183540D02*
X96939243Y-51189301D01*
X96939243Y-51189301D02*
X96996376Y-51193579D01*
X96996376Y-51193579D02*
X97076715Y-51196578D01*
X97076715Y-51196578D02*
X97184659Y-51198507D01*
X97184659Y-51198507D02*
X97324606Y-51199570D01*
X97324606Y-51199570D02*
X97500955Y-51199975D01*
X97500955Y-51199975D02*
X97571691Y-51200000D01*
X97571691Y-51200000D02*
X98247024Y-51200000D01*
X98247024Y-51200000D02*
X98281697Y-51147083D01*
X98281697Y-51147083D02*
X98316369Y-51094167D01*
X98316369Y-51094167D02*
X99064606Y-51094167D01*
X99064606Y-51094167D02*
X99262460Y-51094078D01*
X99262460Y-51094078D02*
X99422208Y-51093661D01*
X99422208Y-51093661D02*
X99548076Y-51092693D01*
X99548076Y-51092693D02*
X99644292Y-51090948D01*
X99644292Y-51090948D02*
X99715082Y-51088203D01*
X99715082Y-51088203D02*
X99764674Y-51084234D01*
X99764674Y-51084234D02*
X99797295Y-51078815D01*
X99797295Y-51078815D02*
X99817170Y-51071724D01*
X99817170Y-51071724D02*
X99828529Y-51062734D01*
X99828529Y-51062734D02*
X99834713Y-51053303D01*
X99834713Y-51053303D02*
X99843949Y-51010671D01*
X99843949Y-51010671D02*
X99823363Y-50979220D01*
X99823363Y-50979220D02*
X99809986Y-50970250D01*
X99809986Y-50970250D02*
X99786858Y-50963023D01*
X99786858Y-50963023D02*
X99749780Y-50957358D01*
X99749780Y-50957358D02*
X99694553Y-50953072D01*
X99694553Y-50953072D02*
X99616978Y-50949986D01*
X99616978Y-50949986D02*
X99512858Y-50947918D01*
X99512858Y-50947918D02*
X99377992Y-50946686D01*
X99377992Y-50946686D02*
X99208183Y-50946110D01*
X99208183Y-50946110D02*
X99053256Y-50946000D01*
X99053256Y-50946000D02*
X98316369Y-50946000D01*
X98316369Y-50946000D02*
X98281697Y-50893083D01*
X98281697Y-50893083D02*
X98247024Y-50840167D01*
X98247024Y-50840167D02*
X96896406Y-50840167D01*
X96896406Y-50840167D02*
X96854782Y-50893083D01*
X96854782Y-50893083D02*
X96854782Y-50893083D01*
G36*
X95280885Y-50893083D02*
G01*
X95322509Y-50946000D01*
X96813158Y-50946000D01*
X96854782Y-50893083D01*
X96896406Y-50840167D01*
X98247024Y-50840167D01*
X98281697Y-50893083D01*
X98316369Y-50946000D01*
X99053256Y-50946000D01*
X99208183Y-50946110D01*
X99377992Y-50946686D01*
X99512858Y-50947918D01*
X99616978Y-50949986D01*
X99694553Y-50953072D01*
X99749780Y-50957358D01*
X99786858Y-50963023D01*
X99809986Y-50970250D01*
X99823363Y-50979220D01*
X99843949Y-51010671D01*
X99834713Y-51053303D01*
X99828529Y-51062734D01*
X99817170Y-51071724D01*
X99797295Y-51078815D01*
X99764674Y-51084234D01*
X99715082Y-51088203D01*
X99644292Y-51090948D01*
X99548076Y-51092693D01*
X99422208Y-51093661D01*
X99262460Y-51094078D01*
X99064606Y-51094167D01*
X98316369Y-51094167D01*
X98281697Y-51147083D01*
X98247024Y-51200000D01*
X97571691Y-51200000D01*
X97500955Y-51199975D01*
X97324606Y-51199570D01*
X97184659Y-51198507D01*
X97076715Y-51196578D01*
X96996376Y-51193579D01*
X96939243Y-51189301D01*
X96900918Y-51183540D01*
X96877001Y-51176087D01*
X96863095Y-51166738D01*
X96843342Y-51143117D01*
X96829833Y-51113821D01*
X96822368Y-51110726D01*
X96778013Y-51106024D01*
X96696655Y-51101984D01*
X96581626Y-51098693D01*
X96436258Y-51096236D01*
X96263883Y-51094698D01*
X96067833Y-51094167D01*
X95947817Y-51094359D01*
X95765539Y-51095503D01*
X95608931Y-51097602D01*
X95481324Y-51100569D01*
X95386051Y-51104318D01*
X95326443Y-51108764D01*
X95305833Y-51113821D01*
X95299289Y-51132039D01*
X95272572Y-51166738D01*
X95271486Y-51167739D01*
X95261628Y-51173178D01*
X95243954Y-51177977D01*
X95215998Y-51182176D01*
X95175296Y-51185814D01*
X95119380Y-51188929D01*
X95045787Y-51191562D01*
X94952049Y-51193751D01*
X94835703Y-51195536D01*
X94694282Y-51196955D01*
X94525320Y-51198049D01*
X94326353Y-51198856D01*
X94094915Y-51199415D01*
X93828540Y-51199766D01*
X93524762Y-51199948D01*
X93181117Y-51200000D01*
X92880601Y-51199925D01*
X92557880Y-51199622D01*
X92273644Y-51199063D01*
X92025796Y-51198220D01*
X91812240Y-51197068D01*
X91630880Y-51195579D01*
X91479618Y-51193728D01*
X91356359Y-51191487D01*
X91259004Y-51188831D01*
X91185458Y-51185732D01*
X91133625Y-51182165D01*
X91101407Y-51178102D01*
X91086707Y-51173517D01*
X91057371Y-51141169D01*
X91031823Y-51072640D01*
X91028265Y-50993736D01*
X91046681Y-50919913D01*
X91087052Y-50866625D01*
X91097962Y-50862803D01*
X91126997Y-50858654D01*
X91175337Y-50855004D01*
X91245076Y-50851828D01*
X91338308Y-50849098D01*
X91457125Y-50846789D01*
X91603622Y-50844873D01*
X91779891Y-50843325D01*
X91988026Y-50842117D01*
X92230120Y-50841224D01*
X92508267Y-50840619D01*
X92824560Y-50840275D01*
X93181093Y-50840167D01*
X95239261Y-50840167D01*
X95280885Y-50893083D01*
G37*
X95280885Y-50893083D02*
X95322509Y-50946000D01*
X96813158Y-50946000D01*
X96854782Y-50893083D01*
X96896406Y-50840167D01*
X98247024Y-50840167D01*
X98281697Y-50893083D01*
X98316369Y-50946000D01*
X99053256Y-50946000D01*
X99208183Y-50946110D01*
X99377992Y-50946686D01*
X99512858Y-50947918D01*
X99616978Y-50949986D01*
X99694553Y-50953072D01*
X99749780Y-50957358D01*
X99786858Y-50963023D01*
X99809986Y-50970250D01*
X99823363Y-50979220D01*
X99843949Y-51010671D01*
X99834713Y-51053303D01*
X99828529Y-51062734D01*
X99817170Y-51071724D01*
X99797295Y-51078815D01*
X99764674Y-51084234D01*
X99715082Y-51088203D01*
X99644292Y-51090948D01*
X99548076Y-51092693D01*
X99422208Y-51093661D01*
X99262460Y-51094078D01*
X99064606Y-51094167D01*
X98316369Y-51094167D01*
X98281697Y-51147083D01*
X98247024Y-51200000D01*
X97571691Y-51200000D01*
X97500955Y-51199975D01*
X97324606Y-51199570D01*
X97184659Y-51198507D01*
X97076715Y-51196578D01*
X96996376Y-51193579D01*
X96939243Y-51189301D01*
X96900918Y-51183540D01*
X96877001Y-51176087D01*
X96863095Y-51166738D01*
X96843342Y-51143117D01*
X96829833Y-51113821D01*
X96822368Y-51110726D01*
X96778013Y-51106024D01*
X96696655Y-51101984D01*
X96581626Y-51098693D01*
X96436258Y-51096236D01*
X96263883Y-51094698D01*
X96067833Y-51094167D01*
X95947817Y-51094359D01*
X95765539Y-51095503D01*
X95608931Y-51097602D01*
X95481324Y-51100569D01*
X95386051Y-51104318D01*
X95326443Y-51108764D01*
X95305833Y-51113821D01*
X95299289Y-51132039D01*
X95272572Y-51166738D01*
X95271486Y-51167739D01*
X95261628Y-51173178D01*
X95243954Y-51177977D01*
X95215998Y-51182176D01*
X95175296Y-51185814D01*
X95119380Y-51188929D01*
X95045787Y-51191562D01*
X94952049Y-51193751D01*
X94835703Y-51195536D01*
X94694282Y-51196955D01*
X94525320Y-51198049D01*
X94326353Y-51198856D01*
X94094915Y-51199415D01*
X93828540Y-51199766D01*
X93524762Y-51199948D01*
X93181117Y-51200000D01*
X92880601Y-51199925D01*
X92557880Y-51199622D01*
X92273644Y-51199063D01*
X92025796Y-51198220D01*
X91812240Y-51197068D01*
X91630880Y-51195579D01*
X91479618Y-51193728D01*
X91356359Y-51191487D01*
X91259004Y-51188831D01*
X91185458Y-51185732D01*
X91133625Y-51182165D01*
X91101407Y-51178102D01*
X91086707Y-51173517D01*
X91057371Y-51141169D01*
X91031823Y-51072640D01*
X91028265Y-50993736D01*
X91046681Y-50919913D01*
X91087052Y-50866625D01*
X91097962Y-50862803D01*
X91126997Y-50858654D01*
X91175337Y-50855004D01*
X91245076Y-50851828D01*
X91338308Y-50849098D01*
X91457125Y-50846789D01*
X91603622Y-50844873D01*
X91779891Y-50843325D01*
X91988026Y-50842117D01*
X92230120Y-50841224D01*
X92508267Y-50840619D01*
X92824560Y-50840275D01*
X93181093Y-50840167D01*
X95239261Y-50840167D01*
X95280885Y-50893083D01*
X91081377Y-50444682D02*
X91035064Y-50509809D01*
X91035064Y-50509809D02*
X91020311Y-50588811D01*
X91020311Y-50588811D02*
X91037120Y-50667344D01*
X91037120Y-50667344D02*
X91081377Y-50727651D01*
X91081377Y-50727651D02*
X91138361Y-50776667D01*
X91138361Y-50776667D02*
X93175054Y-50776667D01*
X93175054Y-50776667D02*
X93517410Y-50776610D01*
X93517410Y-50776610D02*
X93819923Y-50776416D01*
X93819923Y-50776416D02*
X94085079Y-50776044D01*
X94085079Y-50776044D02*
X94315370Y-50775456D01*
X94315370Y-50775456D02*
X94513283Y-50774610D01*
X94513283Y-50774610D02*
X94681308Y-50773470D01*
X94681308Y-50773470D02*
X94821933Y-50771994D01*
X94821933Y-50771994D02*
X94937647Y-50770144D01*
X94937647Y-50770144D02*
X95030941Y-50767880D01*
X95030941Y-50767880D02*
X95104301Y-50765163D01*
X95104301Y-50765163D02*
X95160218Y-50761953D01*
X95160218Y-50761953D02*
X95201180Y-50758212D01*
X95201180Y-50758212D02*
X95229677Y-50753899D01*
X95229677Y-50753899D02*
X95248197Y-50748976D01*
X95248197Y-50748976D02*
X95258790Y-50743716D01*
X95258790Y-50743716D02*
X95293984Y-50708734D01*
X95293984Y-50708734D02*
X95305833Y-50680216D01*
X95305833Y-50680216D02*
X95310884Y-50672086D01*
X95310884Y-50672086D02*
X95328595Y-50665500D01*
X95328595Y-50665500D02*
X95362803Y-50660302D01*
X95362803Y-50660302D02*
X95417347Y-50656340D01*
X95417347Y-50656340D02*
X95496066Y-50653460D01*
X95496066Y-50653460D02*
X95602796Y-50651508D01*
X95602796Y-50651508D02*
X95741377Y-50650329D01*
X95741377Y-50650329D02*
X95915645Y-50649771D01*
X95915645Y-50649771D02*
X96067833Y-50649667D01*
X96067833Y-50649667D02*
X96290158Y-50650249D01*
X96290158Y-50650249D02*
X96475760Y-50651978D01*
X96475760Y-50651978D02*
X96623554Y-50654821D01*
X96623554Y-50654821D02*
X96732458Y-50658750D01*
X96732458Y-50658750D02*
X96801387Y-50663734D01*
X96801387Y-50663734D02*
X96829256Y-50669744D01*
X96829256Y-50669744D02*
X96829833Y-50670833D01*
X96829833Y-50670833D02*
X96843496Y-50700034D01*
X96843496Y-50700034D02*
X96872167Y-50734333D01*
X96872167Y-50734333D02*
X96885779Y-50746213D01*
X96885779Y-50746213D02*
X96903328Y-50755638D01*
X96903328Y-50755638D02*
X96929495Y-50762890D01*
X96929495Y-50762890D02*
X96968958Y-50768253D01*
X96968958Y-50768253D02*
X97026397Y-50772011D01*
X97026397Y-50772011D02*
X97106490Y-50774447D01*
X97106490Y-50774447D02*
X97213917Y-50775846D01*
X97213917Y-50775846D02*
X97353357Y-50776490D01*
X97353357Y-50776490D02*
X97529489Y-50776663D01*
X97529489Y-50776663D02*
X97570667Y-50776667D01*
X97570667Y-50776667D02*
X97754921Y-50776555D01*
X97754921Y-50776555D02*
X97901521Y-50776031D01*
X97901521Y-50776031D02*
X98015146Y-50774810D01*
X98015146Y-50774810D02*
X98100476Y-50772610D01*
X98100476Y-50772610D02*
X98162190Y-50769147D01*
X98162190Y-50769147D02*
X98204966Y-50764137D01*
X98204966Y-50764137D02*
X98233484Y-50757296D01*
X98233484Y-50757296D02*
X98252423Y-50748342D01*
X98252423Y-50748342D02*
X98266462Y-50736990D01*
X98266462Y-50736990D02*
X98269167Y-50734333D01*
X98269167Y-50734333D02*
X98300244Y-50696425D01*
X98300244Y-50696425D02*
X98311500Y-50670833D01*
X98311500Y-50670833D02*
X98332476Y-50664613D01*
X98332476Y-50664613D02*
X98394662Y-50659428D01*
X98394662Y-50659428D02*
X98496947Y-50655311D01*
X98496947Y-50655311D02*
X98638220Y-50652292D01*
X98638220Y-50652292D02*
X98817371Y-50650402D01*
X98817371Y-50650402D02*
X99033288Y-50649674D01*
X99033288Y-50649674D02*
X99060325Y-50649667D01*
X99060325Y-50649667D02*
X99267868Y-50649488D01*
X99267868Y-50649488D02*
X99436815Y-50648657D01*
X99436815Y-50648657D02*
X99570902Y-50646734D01*
X99570902Y-50646734D02*
X99673866Y-50643276D01*
X99673866Y-50643276D02*
X99749443Y-50637843D01*
X99749443Y-50637843D02*
X99801371Y-50629993D01*
X99801371Y-50629993D02*
X99833385Y-50619285D01*
X99833385Y-50619285D02*
X99849222Y-50605278D01*
X99849222Y-50605278D02*
X99852619Y-50587530D01*
X99852619Y-50587530D02*
X99847312Y-50565600D01*
X99847312Y-50565600D02*
X99844184Y-50557099D01*
X99844184Y-50557099D02*
X99837301Y-50548000D01*
X99837301Y-50548000D02*
X99821638Y-50540642D01*
X99821638Y-50540642D02*
X99793126Y-50534844D01*
X99793126Y-50534844D02*
X99747695Y-50530425D01*
X99747695Y-50530425D02*
X99681277Y-50527205D01*
X99681277Y-50527205D02*
X99589803Y-50525000D01*
X99589803Y-50525000D02*
X99469202Y-50523631D01*
X99469202Y-50523631D02*
X99315408Y-50522917D01*
X99315408Y-50522917D02*
X99124349Y-50522674D01*
X99124349Y-50522674D02*
X99071236Y-50522667D01*
X99071236Y-50522667D02*
X98849299Y-50522082D01*
X98849299Y-50522082D02*
X98664071Y-50520349D01*
X98664071Y-50520349D02*
X98516641Y-50517497D01*
X98516641Y-50517497D02*
X98408096Y-50513557D01*
X98408096Y-50513557D02*
X98339526Y-50508559D01*
X98339526Y-50508559D02*
X98312018Y-50502534D01*
X98312018Y-50502534D02*
X98311500Y-50501500D01*
X98311500Y-50501500D02*
X98297838Y-50472299D01*
X98297838Y-50472299D02*
X98269167Y-50438000D01*
X98269167Y-50438000D02*
X98255555Y-50426120D01*
X98255555Y-50426120D02*
X98238005Y-50416695D01*
X98238005Y-50416695D02*
X98211838Y-50409443D01*
X98211838Y-50409443D02*
X98172375Y-50404080D01*
X98172375Y-50404080D02*
X98114937Y-50400322D01*
X98114937Y-50400322D02*
X98034844Y-50397886D01*
X98034844Y-50397886D02*
X97927417Y-50396487D01*
X97927417Y-50396487D02*
X97787977Y-50395843D01*
X97787977Y-50395843D02*
X97611845Y-50395670D01*
X97611845Y-50395670D02*
X97570667Y-50395667D01*
X97570667Y-50395667D02*
X97386413Y-50395778D01*
X97386413Y-50395778D02*
X97239813Y-50396302D01*
X97239813Y-50396302D02*
X97126187Y-50397523D01*
X97126187Y-50397523D02*
X97040857Y-50399723D01*
X97040857Y-50399723D02*
X96979144Y-50403186D01*
X96979144Y-50403186D02*
X96936368Y-50408196D01*
X96936368Y-50408196D02*
X96907850Y-50415037D01*
X96907850Y-50415037D02*
X96888911Y-50423991D01*
X96888911Y-50423991D02*
X96874872Y-50435343D01*
X96874872Y-50435343D02*
X96872167Y-50438000D01*
X96872167Y-50438000D02*
X96841090Y-50475908D01*
X96841090Y-50475908D02*
X96829833Y-50501500D01*
X96829833Y-50501500D02*
X96808853Y-50507676D01*
X96808853Y-50507676D02*
X96746635Y-50512831D01*
X96746635Y-50512831D02*
X96644263Y-50516937D01*
X96644263Y-50516937D02*
X96502821Y-50519962D01*
X96502821Y-50519962D02*
X96323392Y-50521876D01*
X96323392Y-50521876D02*
X96107061Y-50522650D01*
X96107061Y-50522650D02*
X96067833Y-50522667D01*
X96067833Y-50522667D02*
X95865047Y-50522464D01*
X95865047Y-50522464D02*
X95700755Y-50521754D01*
X95700755Y-50521754D02*
X95571118Y-50520383D01*
X95571118Y-50520383D02*
X95472299Y-50518196D01*
X95472299Y-50518196D02*
X95400460Y-50515040D01*
X95400460Y-50515040D02*
X95351763Y-50510761D01*
X95351763Y-50510761D02*
X95322369Y-50505205D01*
X95322369Y-50505205D02*
X95308441Y-50498218D01*
X95308441Y-50498218D02*
X95305833Y-50492117D01*
X95305833Y-50492117D02*
X95289923Y-50458118D01*
X95289923Y-50458118D02*
X95258790Y-50428617D01*
X95258790Y-50428617D02*
X95247423Y-50423079D01*
X95247423Y-50423079D02*
X95228436Y-50418190D01*
X95228436Y-50418190D02*
X95199339Y-50413908D01*
X95199339Y-50413908D02*
X95157645Y-50410196D01*
X95157645Y-50410196D02*
X95100864Y-50407014D01*
X95100864Y-50407014D02*
X95026506Y-50404322D01*
X95026506Y-50404322D02*
X94932084Y-50402081D01*
X94932084Y-50402081D02*
X94815109Y-50400252D01*
X94815109Y-50400252D02*
X94673090Y-50398795D01*
X94673090Y-50398795D02*
X94503540Y-50397671D01*
X94503540Y-50397671D02*
X94303969Y-50396840D01*
X94303969Y-50396840D02*
X94071888Y-50396264D01*
X94071888Y-50396264D02*
X93804809Y-50395902D01*
X93804809Y-50395902D02*
X93500242Y-50395716D01*
X93500242Y-50395716D02*
X93175054Y-50395667D01*
X93175054Y-50395667D02*
X91138361Y-50395667D01*
X91138361Y-50395667D02*
X91081377Y-50444682D01*
X91081377Y-50444682D02*
X91081377Y-50444682D01*
G36*
X93500242Y-50395716D02*
G01*
X93804809Y-50395902D01*
X94071888Y-50396264D01*
X94303969Y-50396840D01*
X94503540Y-50397671D01*
X94673090Y-50398795D01*
X94815109Y-50400252D01*
X94932084Y-50402081D01*
X95026506Y-50404322D01*
X95100864Y-50407014D01*
X95157645Y-50410196D01*
X95199339Y-50413908D01*
X95228436Y-50418190D01*
X95247423Y-50423079D01*
X95258790Y-50428617D01*
X95289923Y-50458118D01*
X95305833Y-50492117D01*
X95308441Y-50498218D01*
X95322369Y-50505205D01*
X95351763Y-50510761D01*
X95400460Y-50515040D01*
X95472299Y-50518196D01*
X95571118Y-50520383D01*
X95700755Y-50521754D01*
X95865047Y-50522464D01*
X96067833Y-50522667D01*
X96107061Y-50522650D01*
X96323392Y-50521876D01*
X96502821Y-50519962D01*
X96644263Y-50516937D01*
X96746635Y-50512831D01*
X96808853Y-50507676D01*
X96829833Y-50501500D01*
X96841090Y-50475908D01*
X96872167Y-50438000D01*
X96874872Y-50435343D01*
X96888911Y-50423991D01*
X96907850Y-50415037D01*
X96936368Y-50408196D01*
X96979144Y-50403186D01*
X97040857Y-50399723D01*
X97126187Y-50397523D01*
X97239813Y-50396302D01*
X97386413Y-50395778D01*
X97570667Y-50395667D01*
X97611845Y-50395670D01*
X97787977Y-50395843D01*
X97927417Y-50396487D01*
X98034844Y-50397886D01*
X98114937Y-50400322D01*
X98172375Y-50404080D01*
X98211838Y-50409443D01*
X98238005Y-50416695D01*
X98255555Y-50426120D01*
X98269167Y-50438000D01*
X98297838Y-50472299D01*
X98311500Y-50501500D01*
X98312018Y-50502534D01*
X98339526Y-50508559D01*
X98408096Y-50513557D01*
X98516641Y-50517497D01*
X98664071Y-50520349D01*
X98849299Y-50522082D01*
X99071236Y-50522667D01*
X99124349Y-50522674D01*
X99315408Y-50522917D01*
X99469202Y-50523631D01*
X99589803Y-50525000D01*
X99681277Y-50527205D01*
X99747695Y-50530425D01*
X99793126Y-50534844D01*
X99821638Y-50540642D01*
X99837301Y-50548000D01*
X99844184Y-50557099D01*
X99847312Y-50565600D01*
X99852619Y-50587530D01*
X99849222Y-50605278D01*
X99833385Y-50619285D01*
X99801371Y-50629993D01*
X99749443Y-50637843D01*
X99673866Y-50643276D01*
X99570902Y-50646734D01*
X99436815Y-50648657D01*
X99267868Y-50649488D01*
X99060325Y-50649667D01*
X99033288Y-50649674D01*
X98817371Y-50650402D01*
X98638220Y-50652292D01*
X98496947Y-50655311D01*
X98394662Y-50659428D01*
X98332476Y-50664613D01*
X98311500Y-50670833D01*
X98300244Y-50696425D01*
X98269167Y-50734333D01*
X98266462Y-50736990D01*
X98252423Y-50748342D01*
X98233484Y-50757296D01*
X98204966Y-50764137D01*
X98162190Y-50769147D01*
X98100476Y-50772610D01*
X98015146Y-50774810D01*
X97901521Y-50776031D01*
X97754921Y-50776555D01*
X97570667Y-50776667D01*
X97529489Y-50776663D01*
X97353357Y-50776490D01*
X97213917Y-50775846D01*
X97106490Y-50774447D01*
X97026397Y-50772011D01*
X96968958Y-50768253D01*
X96929495Y-50762890D01*
X96903328Y-50755638D01*
X96885779Y-50746213D01*
X96872167Y-50734333D01*
X96843496Y-50700034D01*
X96829833Y-50670833D01*
X96829256Y-50669744D01*
X96801387Y-50663734D01*
X96732458Y-50658750D01*
X96623554Y-50654821D01*
X96475760Y-50651978D01*
X96290158Y-50650249D01*
X96067833Y-50649667D01*
X95915645Y-50649771D01*
X95741377Y-50650329D01*
X95602796Y-50651508D01*
X95496066Y-50653460D01*
X95417347Y-50656340D01*
X95362803Y-50660302D01*
X95328595Y-50665500D01*
X95310884Y-50672086D01*
X95305833Y-50680216D01*
X95293984Y-50708734D01*
X95258790Y-50743716D01*
X95248197Y-50748976D01*
X95229677Y-50753899D01*
X95201180Y-50758212D01*
X95160218Y-50761953D01*
X95104301Y-50765163D01*
X95030941Y-50767880D01*
X94937647Y-50770144D01*
X94821933Y-50771994D01*
X94681308Y-50773470D01*
X94513283Y-50774610D01*
X94315370Y-50775456D01*
X94085079Y-50776044D01*
X93819923Y-50776416D01*
X93517410Y-50776610D01*
X93175054Y-50776667D01*
X91138361Y-50776667D01*
X91081377Y-50727651D01*
X91037120Y-50667344D01*
X91020311Y-50588811D01*
X91035064Y-50509809D01*
X91081377Y-50444682D01*
X91138361Y-50395667D01*
X93175054Y-50395667D01*
X93500242Y-50395716D01*
G37*
X93500242Y-50395716D02*
X93804809Y-50395902D01*
X94071888Y-50396264D01*
X94303969Y-50396840D01*
X94503540Y-50397671D01*
X94673090Y-50398795D01*
X94815109Y-50400252D01*
X94932084Y-50402081D01*
X95026506Y-50404322D01*
X95100864Y-50407014D01*
X95157645Y-50410196D01*
X95199339Y-50413908D01*
X95228436Y-50418190D01*
X95247423Y-50423079D01*
X95258790Y-50428617D01*
X95289923Y-50458118D01*
X95305833Y-50492117D01*
X95308441Y-50498218D01*
X95322369Y-50505205D01*
X95351763Y-50510761D01*
X95400460Y-50515040D01*
X95472299Y-50518196D01*
X95571118Y-50520383D01*
X95700755Y-50521754D01*
X95865047Y-50522464D01*
X96067833Y-50522667D01*
X96107061Y-50522650D01*
X96323392Y-50521876D01*
X96502821Y-50519962D01*
X96644263Y-50516937D01*
X96746635Y-50512831D01*
X96808853Y-50507676D01*
X96829833Y-50501500D01*
X96841090Y-50475908D01*
X96872167Y-50438000D01*
X96874872Y-50435343D01*
X96888911Y-50423991D01*
X96907850Y-50415037D01*
X96936368Y-50408196D01*
X96979144Y-50403186D01*
X97040857Y-50399723D01*
X97126187Y-50397523D01*
X97239813Y-50396302D01*
X97386413Y-50395778D01*
X97570667Y-50395667D01*
X97611845Y-50395670D01*
X97787977Y-50395843D01*
X97927417Y-50396487D01*
X98034844Y-50397886D01*
X98114937Y-50400322D01*
X98172375Y-50404080D01*
X98211838Y-50409443D01*
X98238005Y-50416695D01*
X98255555Y-50426120D01*
X98269167Y-50438000D01*
X98297838Y-50472299D01*
X98311500Y-50501500D01*
X98312018Y-50502534D01*
X98339526Y-50508559D01*
X98408096Y-50513557D01*
X98516641Y-50517497D01*
X98664071Y-50520349D01*
X98849299Y-50522082D01*
X99071236Y-50522667D01*
X99124349Y-50522674D01*
X99315408Y-50522917D01*
X99469202Y-50523631D01*
X99589803Y-50525000D01*
X99681277Y-50527205D01*
X99747695Y-50530425D01*
X99793126Y-50534844D01*
X99821638Y-50540642D01*
X99837301Y-50548000D01*
X99844184Y-50557099D01*
X99847312Y-50565600D01*
X99852619Y-50587530D01*
X99849222Y-50605278D01*
X99833385Y-50619285D01*
X99801371Y-50629993D01*
X99749443Y-50637843D01*
X99673866Y-50643276D01*
X99570902Y-50646734D01*
X99436815Y-50648657D01*
X99267868Y-50649488D01*
X99060325Y-50649667D01*
X99033288Y-50649674D01*
X98817371Y-50650402D01*
X98638220Y-50652292D01*
X98496947Y-50655311D01*
X98394662Y-50659428D01*
X98332476Y-50664613D01*
X98311500Y-50670833D01*
X98300244Y-50696425D01*
X98269167Y-50734333D01*
X98266462Y-50736990D01*
X98252423Y-50748342D01*
X98233484Y-50757296D01*
X98204966Y-50764137D01*
X98162190Y-50769147D01*
X98100476Y-50772610D01*
X98015146Y-50774810D01*
X97901521Y-50776031D01*
X97754921Y-50776555D01*
X97570667Y-50776667D01*
X97529489Y-50776663D01*
X97353357Y-50776490D01*
X97213917Y-50775846D01*
X97106490Y-50774447D01*
X97026397Y-50772011D01*
X96968958Y-50768253D01*
X96929495Y-50762890D01*
X96903328Y-50755638D01*
X96885779Y-50746213D01*
X96872167Y-50734333D01*
X96843496Y-50700034D01*
X96829833Y-50670833D01*
X96829256Y-50669744D01*
X96801387Y-50663734D01*
X96732458Y-50658750D01*
X96623554Y-50654821D01*
X96475760Y-50651978D01*
X96290158Y-50650249D01*
X96067833Y-50649667D01*
X95915645Y-50649771D01*
X95741377Y-50650329D01*
X95602796Y-50651508D01*
X95496066Y-50653460D01*
X95417347Y-50656340D01*
X95362803Y-50660302D01*
X95328595Y-50665500D01*
X95310884Y-50672086D01*
X95305833Y-50680216D01*
X95293984Y-50708734D01*
X95258790Y-50743716D01*
X95248197Y-50748976D01*
X95229677Y-50753899D01*
X95201180Y-50758212D01*
X95160218Y-50761953D01*
X95104301Y-50765163D01*
X95030941Y-50767880D01*
X94937647Y-50770144D01*
X94821933Y-50771994D01*
X94681308Y-50773470D01*
X94513283Y-50774610D01*
X94315370Y-50775456D01*
X94085079Y-50776044D01*
X93819923Y-50776416D01*
X93517410Y-50776610D01*
X93175054Y-50776667D01*
X91138361Y-50776667D01*
X91081377Y-50727651D01*
X91037120Y-50667344D01*
X91020311Y-50588811D01*
X91035064Y-50509809D01*
X91081377Y-50444682D01*
X91138361Y-50395667D01*
X93175054Y-50395667D01*
X93500242Y-50395716D01*
X97381638Y-49972558D02*
X97229519Y-49973368D01*
X97229519Y-49973368D02*
X97110934Y-49974972D01*
X97110934Y-49974972D02*
X97021485Y-49977576D01*
X97021485Y-49977576D02*
X96956773Y-49981385D01*
X96956773Y-49981385D02*
X96912400Y-49986606D01*
X96912400Y-49986606D02*
X96883967Y-49993447D01*
X96883967Y-49993447D02*
X96867075Y-50002112D01*
X96867075Y-50002112D02*
X96863095Y-50005595D01*
X96863095Y-50005595D02*
X96836378Y-50040294D01*
X96836378Y-50040294D02*
X96829833Y-50058512D01*
X96829833Y-50058512D02*
X96809226Y-50063583D01*
X96809226Y-50063583D02*
X96749637Y-50068040D01*
X96749637Y-50068040D02*
X96654413Y-50071796D01*
X96654413Y-50071796D02*
X96526903Y-50074763D01*
X96526903Y-50074763D02*
X96370453Y-50076856D01*
X96370453Y-50076856D02*
X96188412Y-50077986D01*
X96188412Y-50077986D02*
X96072925Y-50078167D01*
X96072925Y-50078167D02*
X95873922Y-50078090D01*
X95873922Y-50078090D02*
X95713021Y-50077709D01*
X95713021Y-50077709D02*
X95585993Y-50076794D01*
X95585993Y-50076794D02*
X95488605Y-50075116D01*
X95488605Y-50075116D02*
X95416629Y-50072448D01*
X95416629Y-50072448D02*
X95365832Y-50068560D01*
X95365832Y-50068560D02*
X95331985Y-50063224D01*
X95331985Y-50063224D02*
X95310857Y-50056211D01*
X95310857Y-50056211D02*
X95298217Y-50047293D01*
X95298217Y-50047293D02*
X95289834Y-50036241D01*
X95289834Y-50036241D02*
X95289579Y-50035833D01*
X95289579Y-50035833D02*
X95284562Y-50028843D01*
X95284562Y-50028843D02*
X95277103Y-50022668D01*
X95277103Y-50022668D02*
X95264700Y-50017257D01*
X95264700Y-50017257D02*
X95244850Y-50012561D01*
X95244850Y-50012561D02*
X95215049Y-50008528D01*
X95215049Y-50008528D02*
X95172795Y-50005108D01*
X95172795Y-50005108D02*
X95115586Y-50002251D01*
X95115586Y-50002251D02*
X95040917Y-49999906D01*
X95040917Y-49999906D02*
X94946287Y-49998022D01*
X94946287Y-49998022D02*
X94829193Y-49996549D01*
X94829193Y-49996549D02*
X94687131Y-49995436D01*
X94687131Y-49995436D02*
X94517599Y-49994634D01*
X94517599Y-49994634D02*
X94318094Y-49994090D01*
X94318094Y-49994090D02*
X94086114Y-49993756D01*
X94086114Y-49993756D02*
X93819154Y-49993580D01*
X93819154Y-49993580D02*
X93514713Y-49993511D01*
X93514713Y-49993511D02*
X93192677Y-49993500D01*
X93192677Y-49993500D02*
X91122213Y-49993500D01*
X91122213Y-49993500D02*
X91076190Y-50042489D01*
X91076190Y-50042489D02*
X91038486Y-50108950D01*
X91038486Y-50108950D02*
X91030346Y-50185926D01*
X91030346Y-50185926D02*
X91051751Y-50257439D01*
X91051751Y-50257439D02*
X91076491Y-50289009D01*
X91076491Y-50289009D02*
X91084744Y-50296155D01*
X91084744Y-50296155D02*
X91094916Y-50302465D01*
X91094916Y-50302465D02*
X91109542Y-50307992D01*
X91109542Y-50307992D02*
X91131157Y-50312786D01*
X91131157Y-50312786D02*
X91162295Y-50316901D01*
X91162295Y-50316901D02*
X91205493Y-50320388D01*
X91205493Y-50320388D02*
X91263283Y-50323299D01*
X91263283Y-50323299D02*
X91338202Y-50325686D01*
X91338202Y-50325686D02*
X91432784Y-50327601D01*
X91432784Y-50327601D02*
X91549564Y-50329095D01*
X91549564Y-50329095D02*
X91691076Y-50330222D01*
X91691076Y-50330222D02*
X91859855Y-50331033D01*
X91859855Y-50331033D02*
X92058437Y-50331580D01*
X92058437Y-50331580D02*
X92289355Y-50331915D01*
X92289355Y-50331915D02*
X92555146Y-50332090D01*
X92555146Y-50332090D02*
X92858343Y-50332156D01*
X92858343Y-50332156D02*
X93181038Y-50332167D01*
X93181038Y-50332167D02*
X95239261Y-50332167D01*
X95239261Y-50332167D02*
X95322509Y-50226333D01*
X95322509Y-50226333D02*
X96813158Y-50226333D01*
X96813158Y-50226333D02*
X96896406Y-50332167D01*
X96896406Y-50332167D02*
X98247024Y-50332167D01*
X98247024Y-50332167D02*
X98281697Y-50279250D01*
X98281697Y-50279250D02*
X98316369Y-50226333D01*
X98316369Y-50226333D02*
X99053256Y-50226333D01*
X99053256Y-50226333D02*
X99252416Y-50226134D01*
X99252416Y-50226134D02*
X99413442Y-50225418D01*
X99413442Y-50225418D02*
X99540534Y-50224001D01*
X99540534Y-50224001D02*
X99637890Y-50221705D01*
X99637890Y-50221705D02*
X99709709Y-50218347D01*
X99709709Y-50218347D02*
X99760191Y-50213746D01*
X99760191Y-50213746D02*
X99793532Y-50207722D01*
X99793532Y-50207722D02*
X99813933Y-50200093D01*
X99813933Y-50200093D02*
X99823363Y-50193113D01*
X99823363Y-50193113D02*
X99845006Y-50154765D01*
X99845006Y-50154765D02*
X99834713Y-50119030D01*
X99834713Y-50119030D02*
X99827302Y-50108227D01*
X99827302Y-50108227D02*
X99815013Y-50099515D01*
X99815013Y-50099515D02*
X99793618Y-50092669D01*
X99793618Y-50092669D02*
X99758891Y-50087466D01*
X99758891Y-50087466D02*
X99706605Y-50083680D01*
X99706605Y-50083680D02*
X99632533Y-50081088D01*
X99632533Y-50081088D02*
X99532448Y-50079464D01*
X99532448Y-50079464D02*
X99402123Y-50078586D01*
X99402123Y-50078586D02*
X99237331Y-50078229D01*
X99237331Y-50078229D02*
X99064606Y-50078167D01*
X99064606Y-50078167D02*
X98316369Y-50078167D01*
X98316369Y-50078167D02*
X98281697Y-50025250D01*
X98281697Y-50025250D02*
X98247024Y-49972333D01*
X98247024Y-49972333D02*
X97571691Y-49972333D01*
X97571691Y-49972333D02*
X97381638Y-49972558D01*
X97381638Y-49972558D02*
X97381638Y-49972558D01*
G36*
X98281697Y-50025250D02*
G01*
X98316369Y-50078167D01*
X99064606Y-50078167D01*
X99237331Y-50078229D01*
X99402123Y-50078586D01*
X99532448Y-50079464D01*
X99632533Y-50081088D01*
X99706605Y-50083680D01*
X99758891Y-50087466D01*
X99793618Y-50092669D01*
X99815013Y-50099515D01*
X99827302Y-50108227D01*
X99834713Y-50119030D01*
X99845006Y-50154765D01*
X99823363Y-50193113D01*
X99813933Y-50200093D01*
X99793532Y-50207722D01*
X99760191Y-50213746D01*
X99709709Y-50218347D01*
X99637890Y-50221705D01*
X99540534Y-50224001D01*
X99413442Y-50225418D01*
X99252416Y-50226134D01*
X99053256Y-50226333D01*
X98316369Y-50226333D01*
X98281697Y-50279250D01*
X98247024Y-50332167D01*
X96896406Y-50332167D01*
X96813158Y-50226333D01*
X95322509Y-50226333D01*
X95239261Y-50332167D01*
X93181038Y-50332167D01*
X92858343Y-50332156D01*
X92555146Y-50332090D01*
X92289355Y-50331915D01*
X92058437Y-50331580D01*
X91859855Y-50331033D01*
X91691076Y-50330222D01*
X91549564Y-50329095D01*
X91432784Y-50327601D01*
X91338202Y-50325686D01*
X91263283Y-50323299D01*
X91205493Y-50320388D01*
X91162295Y-50316901D01*
X91131157Y-50312786D01*
X91109542Y-50307992D01*
X91094916Y-50302465D01*
X91084744Y-50296155D01*
X91076491Y-50289009D01*
X91051751Y-50257439D01*
X91030346Y-50185926D01*
X91038486Y-50108950D01*
X91076190Y-50042489D01*
X91122213Y-49993500D01*
X93192677Y-49993500D01*
X93514713Y-49993511D01*
X93819154Y-49993580D01*
X94086114Y-49993756D01*
X94318094Y-49994090D01*
X94517599Y-49994634D01*
X94687131Y-49995436D01*
X94829193Y-49996549D01*
X94946287Y-49998022D01*
X95040917Y-49999906D01*
X95115586Y-50002251D01*
X95172795Y-50005108D01*
X95215049Y-50008528D01*
X95244850Y-50012561D01*
X95264700Y-50017257D01*
X95277103Y-50022668D01*
X95284562Y-50028843D01*
X95289579Y-50035833D01*
X95289834Y-50036241D01*
X95298217Y-50047293D01*
X95310857Y-50056211D01*
X95331985Y-50063224D01*
X95365832Y-50068560D01*
X95416629Y-50072448D01*
X95488605Y-50075116D01*
X95585993Y-50076794D01*
X95713021Y-50077709D01*
X95873922Y-50078090D01*
X96072925Y-50078167D01*
X96188412Y-50077986D01*
X96370453Y-50076856D01*
X96526903Y-50074763D01*
X96654413Y-50071796D01*
X96749637Y-50068040D01*
X96809226Y-50063583D01*
X96829833Y-50058512D01*
X96836378Y-50040294D01*
X96863095Y-50005595D01*
X96867075Y-50002112D01*
X96883967Y-49993447D01*
X96912400Y-49986606D01*
X96956773Y-49981385D01*
X97021485Y-49977576D01*
X97110934Y-49974972D01*
X97229519Y-49973368D01*
X97381638Y-49972558D01*
X97571691Y-49972333D01*
X98247024Y-49972333D01*
X98281697Y-50025250D01*
G37*
X98281697Y-50025250D02*
X98316369Y-50078167D01*
X99064606Y-50078167D01*
X99237331Y-50078229D01*
X99402123Y-50078586D01*
X99532448Y-50079464D01*
X99632533Y-50081088D01*
X99706605Y-50083680D01*
X99758891Y-50087466D01*
X99793618Y-50092669D01*
X99815013Y-50099515D01*
X99827302Y-50108227D01*
X99834713Y-50119030D01*
X99845006Y-50154765D01*
X99823363Y-50193113D01*
X99813933Y-50200093D01*
X99793532Y-50207722D01*
X99760191Y-50213746D01*
X99709709Y-50218347D01*
X99637890Y-50221705D01*
X99540534Y-50224001D01*
X99413442Y-50225418D01*
X99252416Y-50226134D01*
X99053256Y-50226333D01*
X98316369Y-50226333D01*
X98281697Y-50279250D01*
X98247024Y-50332167D01*
X96896406Y-50332167D01*
X96813158Y-50226333D01*
X95322509Y-50226333D01*
X95239261Y-50332167D01*
X93181038Y-50332167D01*
X92858343Y-50332156D01*
X92555146Y-50332090D01*
X92289355Y-50331915D01*
X92058437Y-50331580D01*
X91859855Y-50331033D01*
X91691076Y-50330222D01*
X91549564Y-50329095D01*
X91432784Y-50327601D01*
X91338202Y-50325686D01*
X91263283Y-50323299D01*
X91205493Y-50320388D01*
X91162295Y-50316901D01*
X91131157Y-50312786D01*
X91109542Y-50307992D01*
X91094916Y-50302465D01*
X91084744Y-50296155D01*
X91076491Y-50289009D01*
X91051751Y-50257439D01*
X91030346Y-50185926D01*
X91038486Y-50108950D01*
X91076190Y-50042489D01*
X91122213Y-49993500D01*
X93192677Y-49993500D01*
X93514713Y-49993511D01*
X93819154Y-49993580D01*
X94086114Y-49993756D01*
X94318094Y-49994090D01*
X94517599Y-49994634D01*
X94687131Y-49995436D01*
X94829193Y-49996549D01*
X94946287Y-49998022D01*
X95040917Y-49999906D01*
X95115586Y-50002251D01*
X95172795Y-50005108D01*
X95215049Y-50008528D01*
X95244850Y-50012561D01*
X95264700Y-50017257D01*
X95277103Y-50022668D01*
X95284562Y-50028843D01*
X95289579Y-50035833D01*
X95289834Y-50036241D01*
X95298217Y-50047293D01*
X95310857Y-50056211D01*
X95331985Y-50063224D01*
X95365832Y-50068560D01*
X95416629Y-50072448D01*
X95488605Y-50075116D01*
X95585993Y-50076794D01*
X95713021Y-50077709D01*
X95873922Y-50078090D01*
X96072925Y-50078167D01*
X96188412Y-50077986D01*
X96370453Y-50076856D01*
X96526903Y-50074763D01*
X96654413Y-50071796D01*
X96749637Y-50068040D01*
X96809226Y-50063583D01*
X96829833Y-50058512D01*
X96836378Y-50040294D01*
X96863095Y-50005595D01*
X96867075Y-50002112D01*
X96883967Y-49993447D01*
X96912400Y-49986606D01*
X96956773Y-49981385D01*
X97021485Y-49977576D01*
X97110934Y-49974972D01*
X97229519Y-49973368D01*
X97381638Y-49972558D01*
X97571691Y-49972333D01*
X98247024Y-49972333D01*
X98281697Y-50025250D01*
%TD*%
M02*
